<?xml version="1.0" encoding="utf-8"?>
<!-- Generator: Adobe Illustrator 23.1.1, SVG Export Plug-In . SVG Version: 6.00 Build 0)  -->
<svg version="1.1" id="Capa_1" xmlns="http://www.w3.org/2000/svg" xmlns:xlink="http://www.w3.org/1999/xlink" x="0px" y="0px"
	 viewBox="0 0 100 100" style="enable-background:new 0 0 100 100;" xml:space="preserve">
<style type="text/css">
	.st0{fill:#38396A;}
	.st1{fill:#371D16;}
	.st2{fill:#1C1A45;}
	.st3{fill:#361C15;}
	.st4{fill:#DCAA53;}
	.st5{fill:#ECCC8F;}
	.st6{fill:#8E4E3C;}
	.st7{fill:#515399;}
	.st8{fill:#BBBBDA;}
	.st9{fill:#5B5C9E;}
	.st10{fill:#EBEBF5;}
	.st11{fill:#DC9F90;}
	.st12{fill:#E3B5AC;}
	.st13{fill:#C4C4DC;}
	.st14{fill:#DCDDEC;}
	.st15{fill:#1E1D48;}
	.st16{fill:#383E75;}
	.st17{fill:#474F83;}
	.st18{fill:#16193B;}
	.st19{fill:#FAFAFD;}
</style>
<g>
	<g>
		<g>
			<g id="Axo_Extrusion_00000165223647939571146690000004759586787644653732_">
				<g id="Axo_Surface_x2A__00000042000872034528793690000002370998705895548857_">
					<polygon id="Axo_panel_00000039847232438112642320000002022808194272903828_" class="st0" points="22.2,45.1 21,38.7 
						21.8,38.2 23.1,44.6 					"/>
					<polygon id="Axo_panel_00000170244819936391533550000005382974547867600814_" class="st1" points="21,38.7 20.1,38.4 21,37.9 
						21.8,38.2 					"/>
				</g>
				<polygon id="Axo_base_00000140004068673120364710000003468567321144119197_" class="st2" points="22.2,45.1 21.4,44.9 
					20.1,38.4 21,38.7 				"/>
			</g>
			<g id="Axo_Extrusion_00000044888720692436304880000011747699033927574192_">
				<g id="Axo_Surface_x2A__00000178887470918447077880000007427156155503221693_">
					<polygon id="Axo_panel_00000040575596136585826610000011291519011105382305_" class="st0" points="31.7,39.6 30.5,33.2 
						31.3,32.7 32.5,39.1 					"/>
					<polygon id="Axo_panel_00000023277349332007243790000007038332979234728106_" class="st1" points="30.5,33.2 29.6,32.9 
						30.5,32.4 31.3,32.7 					"/>
				</g>
				<polygon id="Axo_base_00000154392091054587155030000014562464265942312840_" class="st2" points="31.7,39.6 30.8,39.4 
					29.6,32.9 30.5,33.2 				"/>
			</g>
			<g id="Axo_Projection_00000171711315157577729270000017991904758661104549_">
				<g id="Axo_Extrusion_00000098181245068290642400000001785837816084659863_">
					<polygon id="Axo_panel_00000152968699112302017350000013560667995224777151_" class="st2" points="20.8,64.3 24.1,48.5 25,48 
						21.7,63.8 					"/>
					<g id="Axo_Surface_x2A__00000091699540543587597820000003298449230572637842_">
						<polygon id="Axo_panel_00000114758490994793798110000001781501519348464548_" class="st2" points="36.5,73.2 31.8,52 
							32.7,51.5 37.5,72.7 						"/>
						<polygon id="Axo_panel_00000103962847893404634200000003081172231098741154_" class="st3" points="31.8,52 23.4,47.2 
							24.3,46.6 32.7,51.5 						"/>
					</g>
					<polygon id="Axo_base_00000102538261837195984200000017856617447156684683_" class="st2" points="36.5,73.2 35.7,73 31.2,52.6 
						24.1,48.5 20.8,64.3 20,63.7 23.4,47.2 31.8,52 					"/>
				</g>
				<g id="Axo_Extrusion_00000013192317141518963840000016294462017653047477_">
					<polygon id="Axo_panel_00000065775480306438401590000006159787032992523707_" class="st2" points="34,56.7 37.3,40.9 
						38.2,40.4 34.9,56.2 					"/>
					<g id="Axo_Surface_x2A__00000116228751508273476670000007876186801487142283_">
						<polygon id="Axo_panel_00000178175523982975975340000008842348651032576162_" class="st2" points="49.8,65.6 45,44.4 
							45.9,43.9 50.7,65 						"/>
						<polygon id="Axo_panel_00000183954108242622531000000002509483723276579202_" class="st3" points="45,44.4 36.6,39.5 37.5,39 
							45.9,43.9 						"/>
					</g>
					<polygon id="Axo_base_00000147188235172197882070000005810447163756221354_" class="st2" points="49.8,65.6 49,65.4 44.4,45 
						37.3,40.9 34,56.7 33.2,56 36.6,39.5 45,44.4 					"/>
				</g>
			</g>
			<g id="Axo_Extrusion_00000149357830694313290850000012500955025929696923_">
				<g id="Axo_Surface_x2A__00000118375743479292081400000005215960472345408418_">
					<polygon id="Axo_panel_00000072978560090980916520000016058208563456766592_" class="st4" points="19.6,40.2 15.9,25 
						29.9,16.9 33.6,32.1 					"/>
					<polygon id="Axo_panel_00000025419896171326589940000002856919932361599930_" class="st5" points="15.9,25 14.7,24.7 
						28.7,16.6 29.9,16.9 					"/>
				</g>
				<polygon id="Axo_base_00000102545859399159888380000003916011834327476405_" class="st4" points="19.6,40.2 18.3,39.9 
					14.7,24.7 15.9,25 				"/>
			</g>
			<g id="Axo_Extrusion_00000110460708950258619510000008052999470583999632_">
				<g id="Axo_Surface_x2A__00000004534413300697810290000015821478212651836321_">
					<polygon id="Axo_panel_00000082328660201728209340000004618358972453161352_" class="st4" points="36.1,55.4 36.1,53.9 
						50.1,45.9 50.1,47.3 					"/>
					<polygon id="Axo_panel_00000075132967453587229780000004447861532419872168_" class="st5" points="36.1,53.9 20.4,44.8 
						34.4,36.8 50.1,45.9 					"/>
				</g>
				<polygon id="Axo_base_00000176748018354455679690000009908900249440397445_" class="st4" points="36.1,55.4 20.4,46.3 
					20.4,44.8 36.1,53.9 				"/>
			</g>
			<g>
				<g>
					<g>
						<path class="st6" d="M38.9,61.5c0,0-2.2,3-0.9,3.8c1.3,0.9,3.7,1.7,4.7,2.7c1,1,1.6,2.1,3.8,2.4c2.2,0.3,1.5-1.7,0.6-3.3
							c-1-1.6-3.7-4.4-3.9-5.6C42.9,60.3,40.1,59.2,38.9,61.5z"/>
						<path class="st7" d="M35.1,42.2l8.3,3.7c-2.4,4.2-4.7,10.5-4.7,15.3c0,1.2,1,2.1,2.2,2.4c1.3,0.3,2-1.8,2.6-3
							c1.6-3.4,3.7-6.9,5.2-10.3c0.8-1.8,1.7-3.8,1.5-5.7c-0.3-2.7-2.5-4.7-4.5-6.4c-2.2-1.9-4.5-3.9-7.1-5.2
							C35.9,31.7,30,30,28.4,34C26.8,38.1,32.2,40.9,35.1,42.2z"/>
					</g>
					<path class="st6" d="M46.8,62.3c0,0,1.7,1.4,3.5,2.3c1.8,0.9,2.9,2,3.2,3.5c0.3,1.4-1,1.7-1.9,1.7c-0.8,0-2.8-0.5-3.7-1.5
						c-0.9-1-3.5-2.8-3.5-3.4C44.4,64.4,46.8,62.3,46.8,62.3z"/>
					<path class="st8" d="M37.5,17c0,0-1.4-0.5,0.3-2.3c1.7-1.8,9.2-3,10.3-2.7c1.1,0.4,2,3.3,1.4,3.4c-0.6,0-8.5,4.2-9.5,4.1
						C39,19.3,37.5,17,37.5,17z"/>
					<path class="st9" d="M30.6,34.2c0,0,1.6,1.8,3.4,4.2c2.5,3.1,5.6,7.2,6.3,8.9c1.2,3,4.8,13.6,6.6,14.8c1.8,1.2,0.6,4-0.9,4
						s-7.2-6-8.8-10.3l-1.6-4.3c0,0-11.9-4.5-13.4-9.9c-1.5-5.3-0.4-8.5,1.2-10.1S29.5,32.9,30.6,34.2z"/>
					<path class="st10" d="M39.8,9c-0.2,0.4,0,2.1,0.5,2.7c0.5,0.6,3,2.6,3.4,3.1c0.4,0.5,1.8,2.1,2.8,2c1-0.2,1.2-0.5,2.2-0.9
						c1.1-0.4,1.4-1.5,1-2.9c-0.4-1.4-7.9-4.1-8.3-4.3C40.9,8.5,39.9,8.6,39.8,9z"/>
					<path class="st8" d="M31.1,14.7c-0.1,0.1-3.8,2.2-5,4.9c-1.3,2.7-2.1,6.2-2.4,7.8c-0.3,1.6-3.1,6.4-1.5,9s4.7,3.4,9.3,1.5
						c4.6-1.9,5-5.7,5.1-5.7c0.1,0,3.4-8.1,3.6-9.9c0.2-1.8,1.2-4.7,0-6.2C39,14.5,34.1,12.4,31.1,14.7z"/>
					<path class="st11" d="M38.7,7.6c-1.1-0.9-0.8-1.1-1.3-1.6c-0.6-0.5-1.3-1.3-1.3-1.3s0.6,1.5,0.3,2.4c-0.3,0.9-1.9,1.2-0.6,1.8
						c1.3,0.5,2,0.4,2,0.4s1.7,1.3,2.3,1.9c0.6,0.6,1.3-0.1,1.7-0.8c0.4-0.8,0.6-1.5-0.4-1.8C40.3,8.4,38.7,7.6,38.7,7.6z"/>
					<path class="st6" d="M33.2,12.7c0,0-1.2,0-1.5-2c-0.2-2-0.2-3.1,0.7-4.3c1-1.2,3.1-2.5,5.3-1.2c2.2,1.3,2.6,2,1.9,3.3
						c-0.8,1.3-0.9,2.4-0.9,2.4s-1.5,1.5-1.8,1.6c-0.4,0.1-2.6,0.6-2.6,0.6L33.2,12.7z"/>
					<path class="st11" d="M32.3,12c0,0-0.1,1.7-0.8,2.6c-0.7,0.9-1.4,2,0.1,3.6c1.5,1.6,3.2,2.3,3.8,1.3c0.7-1,0.1-1.3,0.6-2.7
						s0.5-1.6,0.5-1.6L32.3,12z"/>
					<path class="st12" d="M33.3,11.5c0,0-0.6-1.4-1.2-1.1c-0.6,0.3-0.6,1.6,0,2.5c0.6,0.9,0.9,0.7,1,0.7c0,0-0.3,0.7,0.6,1.8
						c0.9,1.1,1.4,1.7,2,1.8c0.6,0.1,0.9,0.2,1.3,0.1c0.4-0.1,1.3-1.2,1.6-1.7c0.4-0.5,0.4-1.3,0.4-1.5c0-0.2,0.5-1.2,0.6-1.4
						s0.4-0.9,0.3-2c-0.1-1.1-0.3-2.1-0.4-2.1S37.9,11,36,10.7c-1.9-0.3-2.1,1-2.5,1.2C33.1,12,33.3,11.5,33.3,11.5z"/>
				</g>
				<path class="st10" d="M30.2,16.6c0,0,0.3-1.5,1-2l0.7-0.4c0,0-0.7,3.1,1,4.5c1.7,1.4,2.5,1.2,2.5,1.2s0.6-1,0.6-1.4
					c0-0.4,0.1-1.2,0.1-1.2l0-0.1c0,0,0.7,0.6,0.8,2.2c0,1.7,0,1.6,0,1.6L35.3,20l0,2c0,0-1.9-0.2-3.4-1.8
					C30.4,18.5,30.1,17.4,30.2,16.6z"/>
			</g>
		</g>
		<g>
			<g id="Axo_Extrusion_00000003094800009614031980000016895312819772943796_">
				<g id="Axo_Surface_x2A__00000103977120051495720120000014766699302471873959_">
					<polygon id="Axo_panel_00000100362522805047341110000009876661657460840888_" class="st2" points="29.7,79.7 36.3,54.1 
						37.8,53.3 31.2,78.9 					"/>
					<polygon id="Axo_panel_00000170992493500345712720000005613602150470188452_" class="st6" points="36.3,54.1 33.4,52.4 
						34.9,51.6 37.8,53.3 					"/>
				</g>
				<polygon id="Axo_base_00000055688754099225017560000011782171885681072525_" class="st2" points="29.7,79.7 28.9,79.2 
					33.9,52.7 36.3,54.1 				"/>
			</g>
			<polygon class="st2" points="49,61.4 53.5,93.4 52.4,92.8 47.5,60.5 			"/>
			<polygon class="st2" points="68.7,42.3 74.2,73.6 73.1,72.6 67.2,41 			"/>
			<polygon class="st0" points="54.5,92.8 50.8,60.4 49,61.4 53.5,93.4 			"/>
			<polygon class="st0" points="75,73.2 71.4,40.7 68.7,42.3 74.2,73.6 			"/>
			<g id="Axo_Extrusion_00000129180972012236354110000012870395767721695630_">
				<g id="Axo_Surface_x2A__00000074440792136021469640000017137431348728430480_">
					<polygon id="Axo_panel_00000021112866762845620010000001694693536860094101_" class="st13" points="19.2,45.8 46.8,61.7 
						46.8,64.1 19.2,48.2 					"/>
					<polygon id="Axo_panel_00000124878034019831664130000016908729517530612113_" class="st14" points="46.8,61.7 85.4,39.4 
						85.4,41.8 46.7,64.1 					"/>
				</g>
				<polygon id="Axo_base_00000116228985590430188970000011191047379965284025_" class="st10" points="19.2,45.8 57.8,23.4 
					85.4,39.4 46.8,61.7 				"/>
			</g>
		</g>
		<g>
			<path class="st15" d="M41,38.3h0.8l14.5-8.4c0.2-0.1,0.6-0.1,0.8,0l8.8,5.1h0.8v0.5c0,0.1,0,0.2-0.1,0.3l-15.2,8.8
				c-0.2,0.1-0.9,0.3-1.1,0.1l-9-5.6C41,39,41,38.9,41,38.8C41,38.8,41,38.3,41,38.3z"/>
			<g>
				<path class="st16" d="M51.3,43.9l15.2-8.8c0.2-0.1,0.2-0.3-0.1-0.5l-9.3-5.4c-0.2-0.1-0.6-0.2-0.8,0l-15.2,8.8
					c-0.2,0.1-0.2,0.3,0.1,0.5l9,5.6C50.5,44.2,51.1,44.1,51.3,43.9z"/>
				<path class="st15" d="M51,43.2l14-8.1c0.2-0.1,0.2-0.3,0-0.4l-6.1-3.5c-0.2-0.1-0.5-0.1-0.7,0l-14,8.1c-0.2,0.1-0.2,0.3,0,0.4
					l6.1,3.5C50.6,43.3,50.9,43.3,51,43.2z"/>
			</g>
			<g>
				<polygon class="st17" points="50.4,35.2 52.8,33.8 50.9,32.7 48.5,34.1 				"/>
				<path class="st17" d="M53.1,33.6l0.7-0.4c0.2-0.1,0.2-0.3-0.1-0.4l-1.1-0.6c-0.2-0.1-0.6-0.1-0.8,0l-0.7,0.4L53.1,33.6z"/>
				<path class="st17" d="M50.1,35.3l-0.7,0.4c-0.2,0.1-0.5,0.1-0.8,0l-1.1-0.6c-0.2-0.1-0.3-0.3-0.1-0.4l0.7-0.4L50.1,35.3z"/>
			</g>
			<g>
				<g>
					<path class="st16" d="M49.9,42.7l0.6,0.3c0.2,0.1,0.4,0.1,0.5,0l0.7-0.4c0.1-0.1,0.1-0.2,0-0.3L51.1,42c-0.2-0.1-0.4-0.1-0.5,0
						l-0.7,0.4C49.7,42.5,49.8,42.6,49.9,42.7z"/>
					<path class="st16" d="M51.2,42l0.6,0.3c0.2,0.1,0.4,0.1,0.5,0l0.7-0.4c0.1-0.1,0.1-0.2,0-0.3l-0.6-0.3c-0.2-0.1-0.4-0.1-0.5,0
						l-0.7,0.4C51,41.7,51.1,41.9,51.2,42z"/>
					<path class="st16" d="M52.5,41.2l0.6,0.3c0.2,0.1,0.4,0.1,0.5,0l0.7-0.4c0.1-0.1,0.1-0.2,0-0.3l-0.6-0.3
						c-0.2-0.1-0.4-0.1-0.5,0l-0.7,0.4C52.3,41,52.4,41.1,52.5,41.2z"/>
					<path class="st16" d="M53.8,40.4l0.6,0.3c0.2,0.1,0.4,0.1,0.5,0l0.7-0.4c0.1-0.1,0.1-0.2,0-0.3L55,39.8c-0.2-0.1-0.4-0.1-0.5,0
						l-0.7,0.4C53.7,40.2,53.7,40.4,53.8,40.4z"/>
					<path class="st16" d="M55.1,39.7l0.6,0.3c0.2,0.1,0.4,0.1,0.5,0l0.7-0.4c0.1-0.1,0.1-0.2,0-0.3L56.3,39c-0.2-0.1-0.4-0.1-0.5,0
						l-0.7,0.4C55,39.5,55,39.6,55.1,39.7z"/>
					<path class="st16" d="M56.4,38.9l0.6,0.3c0.2,0.1,0.4,0.1,0.5,0l0.7-0.4c0.1-0.1,0.1-0.2,0-0.3l-0.6-0.3
						c-0.2-0.1-0.4-0.1-0.5,0l-0.7,0.4C56.3,38.7,56.3,38.8,56.4,38.9z"/>
					<path class="st16" d="M57.7,38.2l0.6,0.3c0.2,0.1,0.4,0.1,0.5,0l0.7-0.4c0.1-0.1,0.1-0.2,0-0.3l-0.6-0.3
						c-0.2-0.1-0.4-0.1-0.5,0l-0.7,0.4C57.6,38,57.6,38.1,57.7,38.2z"/>
					<path class="st16" d="M59.1,37.4l0.6,0.3c0.2,0.1,0.4,0.1,0.5,0l0.7-0.4c0.1-0.1,0.1-0.2,0-0.3l-0.6-0.3
						c-0.2-0.1-0.4-0.1-0.5,0L59,37.1C58.9,37.2,58.9,37.3,59.1,37.4z"/>
					<path class="st16" d="M60.4,36.7l0.6,0.3c0.2,0.1,0.4,0.1,0.5,0l0.7-0.4c0.1-0.1,0.1-0.2,0-0.3L61.5,36c-0.2-0.1-0.4-0.1-0.5,0
						l-0.7,0.4C60.2,36.4,60.2,36.6,60.4,36.7z"/>
					<path class="st16" d="M61.7,35.9l0.6,0.3c0.2,0.1,0.4,0.1,0.5,0l0.7-0.4c0.1-0.1,0.1-0.2,0-0.3l-0.6-0.3
						c-0.2-0.1-0.4-0.1-0.5,0l-0.7,0.4C61.5,35.7,61.5,35.8,61.7,35.9z"/>
					<path class="st16" d="M63,35.2l0.6,0.3c0.2,0.1,0.4,0.1,0.5,0l0.7-0.4c0.1-0.1,0.1-0.2,0-0.3l-0.6-0.3c-0.2-0.1-0.4-0.1-0.5,0
						l-0.7,0.4C62.8,34.9,62.8,35.1,63,35.2z"/>
					<path class="st16" d="M48.6,41.9l0.6,0.3c0.2,0.1,0.4,0.1,0.5,0l1-0.6c0.1-0.1,0.1-0.2,0-0.3L50.1,41c-0.2-0.1-0.4-0.1-0.5,0
						l-1,0.6C48.4,41.7,48.4,41.9,48.6,41.9z"/>
					<path class="st16" d="M50.2,41l0.6,0.3c0.2,0.1,0.4,0.1,0.5,0l0.7-0.4c0.1-0.1,0.1-0.2,0-0.3l-0.6-0.3c-0.2-0.1-0.4-0.1-0.5,0
						l-0.7,0.4C50,40.8,50,40.9,50.2,41z"/>
					<path class="st16" d="M51.3,40.4l0.6,0.3c0.2,0.1,0.4,0.1,0.5,0l0.7-0.4c0.1-0.1,0.1-0.2,0-0.3l-0.6-0.3
						c-0.2-0.1-0.4-0.1-0.5,0L51.3,40C51.1,40.1,51.2,40.3,51.3,40.4z"/>
					<path class="st16" d="M52.5,39.7L53,40c0.2,0.1,0.4,0.1,0.5,0l0.7-0.4c0.1-0.1,0.1-0.2,0-0.3L53.6,39c-0.2-0.1-0.4-0.1-0.5,0
						l-0.7,0.4C52.3,39.5,52.3,39.6,52.5,39.7z"/>
					<path class="st16" d="M53.6,39l0.6,0.3c0.2,0.1,0.4,0.1,0.5,0l0.7-0.4c0.1-0.1,0.1-0.2,0-0.3l-0.6-0.3c-0.2-0.1-0.4-0.1-0.5,0
						l-0.7,0.4C53.5,38.8,53.5,38.9,53.6,39z"/>
					<path class="st16" d="M54.8,38.4l0.6,0.3c0.2,0.1,0.4,0.1,0.5,0l0.7-0.4c0.1-0.1,0.1-0.2,0-0.3l-0.6-0.3
						c-0.2-0.1-0.4-0.1-0.5,0l-0.7,0.4C54.6,38.1,54.6,38.3,54.8,38.4z"/>
					<path class="st16" d="M55.9,37.7l0.6,0.3c0.2,0.1,0.4,0.1,0.5,0l0.7-0.4c0.1-0.1,0.1-0.2,0-0.3L57.1,37c-0.2-0.1-0.4-0.1-0.5,0
						l-0.7,0.4C55.8,37.5,55.8,37.6,55.9,37.7z"/>
					<path class="st16" d="M57.1,37l0.6,0.3c0.2,0.1,0.4,0.1,0.5,0l0.7-0.4c0.1-0.1,0.1-0.2,0-0.3l-0.6-0.3c-0.2-0.1-0.4-0.1-0.5,0
						l-0.7,0.4C56.9,36.8,56.9,36.9,57.1,37z"/>
					<path class="st16" d="M58.3,36.4l0.6,0.3c0.2,0.1,0.4,0.1,0.5,0l0.7-0.4c0.1-0.1,0.1-0.2,0-0.3l-0.6-0.3
						c-0.2-0.1-0.4-0.1-0.5,0l-0.7,0.4C58.1,36.1,58.1,36.3,58.3,36.4z"/>
					<path class="st16" d="M59.4,35.7L60,36c0.2,0.1,0.4,0.1,0.5,0l0.7-0.4c0.1-0.1,0.1-0.2,0-0.3L60.6,35c-0.2-0.1-0.4-0.1-0.5,0
						l-0.7,0.4C59.2,35.5,59.2,35.6,59.4,35.7z"/>
					<path class="st16" d="M60.6,35l0.6,0.3c0.2,0.1,0.4,0.1,0.5,0l0.7-0.4c0.1-0.1,0.1-0.2,0-0.3l-0.6-0.3c-0.2-0.1-0.4-0.1-0.5,0
						l-0.7,0.4C60.4,34.8,60.4,34.9,60.6,35z"/>
					<path class="st16" d="M49.1,40.1l0.6,0.3c0.2,0.1,0.4,0.1,0.5,0l0.7-0.4c0.1-0.1,0.1-0.2,0-0.3l-0.6-0.3
						c-0.2-0.1-0.4-0.1-0.5,0l-0.7,0.4C48.9,39.9,48.9,40,49.1,40.1z"/>
					<path class="st16" d="M50.2,39.5l0.6,0.3c0.2,0.1,0.4,0.1,0.5,0l0.7-0.4c0.1-0.1,0.1-0.2,0-0.3l-0.6-0.3
						c-0.2-0.1-0.4-0.1-0.5,0l-0.7,0.4C50.1,39.2,50.1,39.4,50.2,39.5z"/>
					<path class="st16" d="M51.4,38.8l0.6,0.3c0.2,0.1,0.4,0.1,0.5,0l0.7-0.4c0.1-0.1,0.1-0.2,0-0.3l-0.6-0.3
						c-0.2-0.1-0.4-0.1-0.5,0l-0.7,0.4C51.2,38.6,51.2,38.7,51.4,38.8z"/>
					<path class="st16" d="M52.5,38.1l0.6,0.3c0.2,0.1,0.4,0.1,0.5,0l0.7-0.4c0.1-0.1,0.1-0.2,0-0.3l-0.6-0.3
						c-0.2-0.1-0.4-0.1-0.5,0l-0.7,0.4C52.4,37.9,52.4,38,52.5,38.1z"/>
					<path class="st16" d="M53.7,37.5l0.6,0.3c0.2,0.1,0.4,0.1,0.5,0l0.7-0.4c0.1-0.1,0.1-0.2,0-0.3l-0.6-0.3
						c-0.2-0.1-0.4-0.1-0.5,0l-0.7,0.4C53.5,37.2,53.5,37.4,53.7,37.5z"/>
					<path class="st16" d="M54.8,36.8l0.6,0.3c0.2,0.1,0.4,0.1,0.5,0l0.7-0.4c0.1-0.1,0.1-0.2,0-0.3L56,36.1c-0.2-0.1-0.4-0.1-0.5,0
						l-0.7,0.4C54.6,36.6,54.7,36.7,54.8,36.8z"/>
					<path class="st16" d="M56,36.1l0.6,0.3c0.2,0.1,0.4,0.1,0.5,0l0.7-0.4c0.1-0.1,0.1-0.2,0-0.3l-0.6-0.3c-0.2-0.1-0.4-0.1-0.5,0
						l-0.7,0.4C55.8,35.9,55.8,36.1,56,36.1z"/>
					<path class="st16" d="M57.1,35.5l0.6,0.3c0.2,0.1,0.4,0.1,0.5,0l0.7-0.4c0.1-0.1,0.1-0.2,0-0.3l-0.6-0.3
						c-0.2-0.1-0.4-0.1-0.5,0l-0.7,0.4C56.9,35.3,57,35.4,57.1,35.5z"/>
					<path class="st16" d="M48.3,39l0.6,0.3c0.2,0.1,0.4,0.1,0.5,0l0.7-0.4c0.1-0.1,0.1-0.2,0-0.3l-0.6-0.3c-0.2-0.1-0.4-0.1-0.5,0
						l-0.7,0.4C48.2,38.8,48.2,38.9,48.3,39z"/>
					<path class="st16" d="M49.5,38.4l0.6,0.3c0.2,0.1,0.4,0.1,0.5,0l0.7-0.4c0.1-0.1,0.1-0.2,0-0.3l-0.6-0.3
						c-0.2-0.1-0.4-0.1-0.5,0L49.5,38C49.3,38.1,49.3,38.3,49.5,38.4z"/>
					<path class="st16" d="M50.6,37.7l0.6,0.3c0.2,0.1,0.4,0.1,0.5,0l0.7-0.4c0.1-0.1,0.1-0.2,0-0.3L51.8,37c-0.2-0.1-0.4-0.1-0.5,0
						l-0.7,0.4C50.5,37.5,50.5,37.6,50.6,37.7z"/>
					<path class="st16" d="M44.6,39.7l0.6,0.3c0.2,0.1,0.4,0.1,0.5,0l0.7-0.4c0.1-0.1,0.1-0.2,0-0.3L45.7,39c-0.2-0.1-0.4-0.1-0.5,0
						l-0.7,0.4C44.4,39.4,44.4,39.6,44.6,39.7z"/>
					<path class="st16" d="M45.7,39l0.6,0.3c0.2,0.1,0.4,0.1,0.5,0l0.7-0.4c0.1-0.1,0.1-0.2,0-0.3l-0.6-0.3c-0.2-0.1-0.4-0.1-0.5,0
						l-0.7,0.4C45.5,38.8,45.6,38.9,45.7,39z"/>
					<path class="st16" d="M46.9,38.3l0.6,0.3c0.2,0.1,0.4,0.1,0.5,0l0.7-0.4c0.1-0.1,0.1-0.2,0-0.3L48,37.7c-0.2-0.1-0.4-0.1-0.5,0
						L46.8,38C46.7,38.1,46.7,38.2,46.9,38.3z"/>
					<path class="st16" d="M55.4,33.4l0.6,0.3c0.2,0.1,0.4,0.1,0.5,0l0.7-0.4c0.1-0.1,0.1-0.2,0-0.3l-0.6-0.3
						c-0.2-0.1-0.4-0.1-0.5,0l-0.7,0.4C55.2,33.2,55.2,33.3,55.4,33.4z"/>
					<path class="st16" d="M56.5,32.8l0.6,0.3c0.2,0.1,0.4,0.1,0.5,0l0.7-0.4c0.1-0.1,0.1-0.2,0-0.3l-0.6-0.3
						c-0.2-0.1-0.4-0.1-0.5,0l-0.7,0.4C56.3,32.5,56.4,32.7,56.5,32.8z"/>
					<path class="st16" d="M57.7,32.1l0.6,0.3c0.2,0.1,0.4,0.1,0.5,0l0.7-0.4c0.1-0.1,0.1-0.2,0-0.3l-0.6-0.3
						c-0.2-0.1-0.4-0.1-0.5,0l-0.7,0.4C57.5,31.9,57.5,32,57.7,32.1z"/>
					<path class="st16" d="M51.8,37l0.6,0.3c0.2,0.1,0.4,0.1,0.5,0l0.7-0.4c0.1-0.1,0.1-0.2,0-0.3l-0.6-0.3c-0.2-0.1-0.4-0.1-0.5,0
						l-0.7,0.4C51.6,36.8,51.6,36.9,51.8,37z"/>
					<path class="st16" d="M52.9,36.4l0.6,0.3c0.2,0.1,0.4,0.1,0.5,0l0.7-0.4c0.1-0.1,0.1-0.2,0-0.3l-0.6-0.3
						c-0.2-0.1-0.4-0.1-0.5,0l-0.7,0.4C52.7,36.1,52.8,36.3,52.9,36.4z"/>
					<path class="st16" d="M54.1,35.7l0.6,0.3c0.2,0.1,0.4,0.1,0.5,0l0.7-0.4c0.1-0.1,0.1-0.2,0-0.3L55.2,35c-0.2-0.1-0.4-0.1-0.5,0
						L54,35.4C53.9,35.5,53.9,35.6,54.1,35.7z"/>
					<path class="st16" d="M55.2,35l0.6,0.3c0.2,0.1,0.4,0.1,0.5,0L57,35c0.1-0.1,0.1-0.2,0-0.3l-0.6-0.3c-0.2-0.1-0.4-0.1-0.5,0
						l-0.7,0.4C55,34.8,55.1,35,55.2,35z"/>
					<path class="st16" d="M56.4,34.4l0.6,0.3c0.2,0.1,0.4,0.1,0.5,0l0.7-0.4c0.1-0.1,0.1-0.2,0-0.3l-0.6-0.3
						c-0.2-0.1-0.4-0.1-0.5,0l-0.7,0.4C56.2,34.2,56.2,34.3,56.4,34.4z"/>
					<path class="st16" d="M58.3,34.8l0.6,0.3c0.2,0.1,0.4,0.1,0.5,0l0.7-0.4c0.1-0.1,0.1-0.2,0-0.3l-0.6-0.3
						c-0.2-0.1-0.4-0.1-0.5,0l-0.7,0.4C58.1,34.6,58.1,34.7,58.3,34.8z"/>
					<path class="st16" d="M61.6,34.4l0.6,0.3c0.2,0.1,0.4,0.1,0.5,0l0.7-0.4c0.1-0.1,0.1-0.2,0-0.3l-0.6-0.3
						c-0.2-0.1-0.4-0.1-0.5,0l-0.7,0.4C61.5,34.2,61.5,34.3,61.6,34.4z"/>
					<path class="st16" d="M47.3,41.2l0.6,0.3c0.2,0.1,0.4,0.1,0.5,0l1.3-0.8c0.1-0.1,0.1-0.2,0-0.3l-0.6-0.3
						c-0.2-0.1-0.4-0.1-0.5,0l-1.3,0.8C47.1,40.9,47.1,41.1,47.3,41.2z"/>
					<path class="st16" d="M57.6,33.7l0.6,0.3c0.2,0.1,0.4,0.1,0.5,0l2.1-1.2c0.1-0.1,0.1-0.2,0-0.3l-0.6-0.3
						c-0.2-0.1-0.4-0.1-0.5,0l-2.1,1.2C57.4,33.5,57.4,33.6,57.6,33.7z"/>
					<path class="st16" d="M48.1,37.6l0.6,0.3c0.2,0.1,0.4,0.1,0.5,0l6.7-3.9c0.1-0.1,0.1-0.2,0-0.3l-0.6-0.3
						c-0.2-0.1-0.4-0.1-0.5,0l-6.7,3.9C47.9,37.4,47.9,37.5,48.1,37.6z"/>
					<path class="st16" d="M45.9,40.4l0.6,0.3c0.2,0.1,0.4,0.1,0.5,0l1.8-1c0.1-0.1,0.1-0.2,0-0.3l-0.6-0.3c-0.2-0.1-0.4-0.1-0.5,0
						l-1.8,1C45.8,40.2,45.8,40.3,45.9,40.4z"/>
					<path class="st16" d="M59.4,34.2l0.6,0.3c0.2,0.1,0.4,0.1,0.5,0l1.6-0.9c0.1-0.1,0.1-0.2,0-0.3L61.5,33c-0.2-0.1-0.4-0.1-0.5,0
						l-1.6,0.9C59.2,33.9,59.3,34.1,59.4,34.2z"/>
				</g>
				<g>
					<path class="st17" d="M50.5,42l-0.6,0.4c-0.1,0.1-0.1,0.2,0,0.2l0.6,0.3c0.1,0.1,0.3,0.1,0.4,0l0.6-0.4c0.1-0.1,0.1-0.2,0-0.2
						L50.9,42C50.8,41.9,50.6,41.9,50.5,42z"/>
					<path class="st17" d="M51.8,41.2l-0.6,0.4c-0.1,0.1-0.1,0.2,0,0.2l0.6,0.3c0.1,0.1,0.3,0.1,0.4,0l0.6-0.4
						c0.1-0.1,0.1-0.2,0-0.2l-0.6-0.3C52.1,41.2,51.9,41.2,51.8,41.2z"/>
					<path class="st17" d="M53.2,40.5l-0.6,0.4c-0.1,0.1-0.1,0.2,0,0.2l0.6,0.3c0.1,0.1,0.3,0.1,0.4,0l0.6-0.4
						c0.1-0.1,0.1-0.2,0-0.2l-0.6-0.3C53.4,40.4,53.3,40.4,53.2,40.5z"/>
					<path class="st17" d="M54.5,39.7l-0.6,0.4c-0.1,0.1-0.1,0.2,0,0.2l0.6,0.3c0.1,0.1,0.3,0.1,0.4,0l0.6-0.4
						c0.1-0.1,0.1-0.2,0-0.2l-0.6-0.3C54.7,39.7,54.6,39.7,54.5,39.7z"/>
					<path class="st17" d="M55.8,39l-0.6,0.4c-0.1,0.1-0.1,0.2,0,0.2l0.6,0.3c0.1,0.1,0.3,0.1,0.4,0l0.6-0.4c0.1-0.1,0.1-0.2,0-0.2
						L56.2,39C56,38.9,55.9,38.9,55.8,39z"/>
					<path class="st17" d="M57.1,38.2l-0.6,0.4c-0.1,0.1-0.1,0.2,0,0.2l0.6,0.3c0.1,0.1,0.3,0.1,0.4,0l0.6-0.4
						c0.1-0.1,0.1-0.2,0-0.2l-0.6-0.3C57.4,38.2,57.2,38.1,57.1,38.2z"/>
					<path class="st17" d="M58.4,37.5l-0.6,0.4c-0.1,0.1-0.1,0.2,0,0.2l0.6,0.3c0.1,0.1,0.3,0.1,0.4,0l0.6-0.4
						c0.1-0.1,0.1-0.2,0-0.2l-0.6-0.3C58.7,37.4,58.5,37.4,58.4,37.5z"/>
					<path class="st17" d="M59.7,36.7L59,37.1c-0.1,0.1-0.1,0.2,0,0.2l0.6,0.3c0.1,0.1,0.3,0.1,0.4,0l0.6-0.4c0.1-0.1,0.1-0.2,0-0.2
						l-0.6-0.3C60,36.6,59.8,36.6,59.7,36.7z"/>
					<path class="st17" d="M61,35.9l-0.6,0.4c-0.1,0.1-0.1,0.2,0,0.2l0.6,0.3c0.1,0.1,0.3,0.1,0.4,0l0.6-0.4c0.1-0.1,0.1-0.2,0-0.2
						L61.4,36C61.3,35.9,61.1,35.9,61,35.9z"/>
					<path class="st17" d="M62.3,35.2l-0.6,0.4c-0.1,0.1-0.1,0.2,0,0.2l0.6,0.3c0.1,0.1,0.3,0.1,0.4,0l0.6-0.4
						c0.1-0.1,0.1-0.2,0-0.2l-0.6-0.3C62.6,35.1,62.4,35.1,62.3,35.2z"/>
					<path class="st17" d="M63.6,34.4L63,34.8c-0.1,0.1-0.1,0.2,0,0.2l0.6,0.3c0.1,0.1,0.3,0.1,0.4,0l0.6-0.4c0.1-0.1,0.1-0.2,0-0.2
						L64,34.5C63.9,34.4,63.7,34.4,63.6,34.4z"/>
					<path class="st17" d="M49.6,41l-1,0.6c-0.1,0.1-0.1,0.2,0,0.2l0.6,0.3c0.1,0.1,0.3,0.1,0.4,0l1-0.6c0.1-0.1,0.1-0.2,0-0.2
						L50,41C49.9,40.9,49.7,40.9,49.6,41z"/>
					<path class="st17" d="M50.8,40.3l-0.6,0.4c-0.1,0.1-0.1,0.2,0,0.2l0.6,0.3c0.1,0.1,0.3,0.1,0.4,0l0.6-0.4
						c0.1-0.1,0.1-0.2,0-0.2l-0.6-0.3C51.1,40.2,50.9,40.2,50.8,40.3z"/>
					<path class="st17" d="M51.9,39.6L51.3,40c-0.1,0.1-0.1,0.2,0,0.2l0.6,0.3c0.1,0.1,0.3,0.1,0.4,0l0.6-0.4c0.1-0.1,0.1-0.2,0-0.2
						l-0.6-0.3C52.2,39.6,52.1,39.6,51.9,39.6z"/>
					<path class="st17" d="M53.1,39l-0.6,0.4c-0.1,0.1-0.1,0.2,0,0.2l0.6,0.3c0.1,0.1,0.3,0.1,0.4,0l0.6-0.4c0.1-0.1,0.1-0.2,0-0.2
						L53.5,39C53.4,38.9,53.2,38.9,53.1,39z"/>
					<path class="st17" d="M54.3,38.3l-0.6,0.4c-0.1,0.1-0.1,0.2,0,0.2l0.6,0.3c0.1,0.1,0.3,0.1,0.4,0l0.6-0.4
						c0.1-0.1,0.1-0.2,0-0.2l-0.6-0.3C54.5,38.2,54.4,38.2,54.3,38.3z"/>
					<path class="st17" d="M55.4,37.6L54.8,38c-0.1,0.1-0.1,0.2,0,0.2l0.6,0.3c0.1,0.1,0.3,0.1,0.4,0l0.6-0.4c0.1-0.1,0.1-0.2,0-0.2
						l-0.6-0.3C55.7,37.6,55.5,37.6,55.4,37.6z"/>
					<path class="st17" d="M56.6,37l-0.6,0.4c-0.1,0.1-0.1,0.2,0,0.2l0.6,0.3c0.1,0.1,0.3,0.1,0.4,0l0.6-0.4c0.1-0.1,0.1-0.2,0-0.2
						L57,37C56.8,36.9,56.7,36.9,56.6,37z"/>
					<path class="st17" d="M57.7,36.3l-0.6,0.4c-0.1,0.1-0.1,0.2,0,0.2l0.6,0.3c0.1,0.1,0.3,0.1,0.4,0l0.6-0.4
						c0.1-0.1,0.1-0.2,0-0.2l-0.6-0.3C58,36.2,57.8,36.2,57.7,36.3z"/>
					<path class="st17" d="M58.9,35.6L58.2,36c-0.1,0.1-0.1,0.2,0,0.2l0.6,0.3c0.1,0.1,0.3,0.1,0.4,0l0.6-0.4c0.1-0.1,0.1-0.2,0-0.2
						l-0.6-0.3C59.2,35.6,59,35.6,58.9,35.6z"/>
					<path class="st17" d="M60,35l-0.6,0.4c-0.1,0.1-0.1,0.2,0,0.2l0.6,0.3c0.1,0.1,0.3,0.1,0.4,0l0.6-0.4c0.1-0.1,0.1-0.2,0-0.2
						L60.4,35C60.3,34.9,60.1,34.9,60,35z"/>
					<path class="st17" d="M61.2,34.3l-0.6,0.4c-0.1,0.1-0.1,0.2,0,0.2l0.6,0.3c0.1,0.1,0.3,0.1,0.4,0l0.6-0.4
						c0.1-0.1,0.1-0.2,0-0.2l-0.6-0.3C61.5,34.2,61.3,34.2,61.2,34.3z"/>
					<path class="st17" d="M49.7,39.4l-0.6,0.4c-0.1,0.1-0.1,0.2,0,0.2l0.6,0.3c0.1,0.1,0.3,0.1,0.4,0l0.6-0.4
						c0.1-0.1,0.1-0.2,0-0.2l-0.6-0.3C50,39.3,49.8,39.3,49.7,39.4z"/>
					<path class="st17" d="M50.9,38.7l-0.6,0.4c-0.1,0.1-0.1,0.2,0,0.2l0.6,0.3c0.1,0.1,0.3,0.1,0.4,0l0.6-0.4
						c0.1-0.1,0.1-0.2,0-0.2l-0.6-0.3C51.2,38.7,51,38.7,50.9,38.7z"/>
					<path class="st17" d="M52,38.1l-0.6,0.4c-0.1,0.1-0.1,0.2,0,0.2L52,39c0.1,0.1,0.3,0.1,0.4,0l0.6-0.4c0.1-0.1,0.1-0.2,0-0.2
						l-0.6-0.3C52.3,38,52.1,38,52,38.1z"/>
					<path class="st17" d="M53.2,37.4l-0.6,0.4c-0.1,0.1-0.1,0.2,0,0.2l0.6,0.3c0.1,0.1,0.3,0.1,0.4,0l0.6-0.4
						c0.1-0.1,0.1-0.2,0-0.2l-0.6-0.3C53.4,37.3,53.3,37.3,53.2,37.4z"/>
					<path class="st17" d="M54.3,36.7l-0.6,0.4c-0.1,0.1-0.1,0.2,0,0.2l0.6,0.3c0.1,0.1,0.3,0.1,0.4,0l0.6-0.4
						c0.1-0.1,0.1-0.2,0-0.2l-0.6-0.3C54.6,36.7,54.4,36.7,54.3,36.7z"/>
					<path class="st17" d="M55.5,36.1l-0.6,0.4c-0.1,0.1-0.1,0.2,0,0.2l0.6,0.3c0.1,0.1,0.3,0.1,0.4,0l0.6-0.4
						c0.1-0.1,0.1-0.2,0-0.2l-0.6-0.3C55.7,36,55.6,36,55.5,36.1z"/>
					<path class="st17" d="M56.6,35.4L56,35.8c-0.1,0.1-0.1,0.2,0,0.2l0.6,0.3c0.1,0.1,0.3,0.1,0.4,0l0.6-0.4c0.1-0.1,0.1-0.2,0-0.2
						L57,35.4C56.9,35.4,56.7,35.4,56.6,35.4z"/>
					<path class="st17" d="M57.7,34.7l-0.6,0.4c-0.1,0.1-0.1,0.2,0,0.2l0.6,0.3c0.1,0.1,0.3,0.1,0.4,0l0.6-0.4
						c0.1-0.1,0.1-0.2,0-0.2l-0.6-0.3C58,34.7,57.8,34.7,57.7,34.7z"/>
					<path class="st17" d="M49,38.3l-0.6,0.4c-0.1,0.1-0.1,0.2,0,0.2l0.6,0.3c0.1,0.1,0.3,0.1,0.4,0l0.6-0.4c0.1-0.1,0.1-0.2,0-0.2
						l-0.6-0.3C49.3,38.2,49.1,38.2,49,38.3z"/>
					<path class="st17" d="M50.1,37.6L49.5,38c-0.1,0.1-0.1,0.2,0,0.2l0.6,0.3c0.1,0.1,0.3,0.1,0.4,0l0.6-0.4c0.1-0.1,0.1-0.2,0-0.2
						l-0.6-0.3C50.4,37.6,50.2,37.6,50.1,37.6z"/>
					<path class="st17" d="M51.3,37l-0.6,0.4c-0.1,0.1-0.1,0.2,0,0.2l0.6,0.3c0.1,0.1,0.3,0.1,0.4,0l0.6-0.4c0.1-0.1,0.1-0.2,0-0.2
						L51.7,37C51.5,36.9,51.4,36.9,51.3,37z"/>
					<path class="st17" d="M45.2,38.9l-0.6,0.4c-0.1,0.1-0.1,0.2,0,0.2l0.6,0.3c0.1,0.1,0.3,0.1,0.4,0l0.6-0.4
						c0.1-0.1,0.1-0.2,0-0.2l-0.6-0.3C45.5,38.9,45.3,38.9,45.2,38.9z"/>
					<path class="st17" d="M46.4,38.3l-0.6,0.4c-0.1,0.1-0.1,0.2,0,0.2l0.6,0.3c0.1,0.1,0.3,0.1,0.4,0l0.6-0.4
						c0.1-0.1,0.1-0.2,0-0.2l-0.6-0.3C46.6,38.2,46.5,38.2,46.4,38.3z"/>
					<path class="st17" d="M47.5,37.6L46.9,38c-0.1,0.1-0.1,0.2,0,0.2l0.6,0.3c0.1,0.1,0.3,0.1,0.4,0l0.6-0.4c0.1-0.1,0.1-0.2,0-0.2
						l-0.6-0.3C47.8,37.5,47.6,37.5,47.5,37.6z"/>
					<g>
						<path class="st17" d="M56,32.7l-0.6,0.4c-0.1,0.1-0.1,0.2,0,0.2l0.6,0.3c0.1,0.1,0.3,0.1,0.4,0l0.6-0.4c0.1-0.1,0.1-0.2,0-0.2
							l-0.6-0.3C56.3,32.6,56.1,32.6,56,32.7z"/>
						<path class="st17" d="M57.1,32l-0.6,0.4c-0.1,0.1-0.1,0.2,0,0.2l0.6,0.3c0.1,0.1,0.3,0.1,0.4,0l0.6-0.4c0.1-0.1,0.1-0.2,0-0.2
							L57.5,32C57.4,32,57.2,32,57.1,32z"/>
						<path class="st17" d="M58.3,31.4l-0.6,0.4c-0.1,0.1-0.1,0.2,0,0.2l0.6,0.3c0.1,0.1,0.3,0.1,0.4,0l0.6-0.4
							c0.1-0.1,0.1-0.2,0-0.2l-0.6-0.3C58.6,31.3,58.4,31.3,58.3,31.4z"/>
					</g>
					<path class="st17" d="M52.4,36.3l-0.6,0.4c-0.1,0.1-0.1,0.2,0,0.2l0.6,0.3c0.1,0.1,0.3,0.1,0.4,0l0.6-0.4
						c0.1-0.1,0.1-0.2,0-0.2l-0.6-0.3C52.7,36.2,52.5,36.2,52.4,36.3z"/>
					<path class="st17" d="M53.6,35.6L52.9,36c-0.1,0.1-0.1,0.2,0,0.2l0.6,0.3c0.1,0.1,0.3,0.1,0.4,0l0.6-0.4c0.1-0.1,0.1-0.2,0-0.2
						L54,35.7C53.8,35.6,53.7,35.6,53.6,35.6z"/>
					<path class="st17" d="M54.7,35l-0.6,0.4c-0.1,0.1-0.1,0.2,0,0.2l0.6,0.3c0.1,0.1,0.3,0.1,0.4,0l0.6-0.4c0.1-0.1,0.1-0.2,0-0.2
						L55.1,35C55,34.9,54.8,34.9,54.7,35z"/>
					<path class="st17" d="M55.8,34.3l-0.6,0.4c-0.1,0.1-0.1,0.2,0,0.2l0.6,0.3c0.1,0.1,0.3,0.1,0.4,0l0.6-0.4
						c0.1-0.1,0.1-0.2,0-0.2l-0.6-0.3C56.1,34.3,55.9,34.3,55.8,34.3z"/>
					<path class="st17" d="M57,33.7L56.3,34c-0.1,0.1-0.1,0.2,0,0.2l0.6,0.3c0.1,0.1,0.3,0.1,0.4,0l0.6-0.4c0.1-0.1,0.1-0.2,0-0.2
						l-0.6-0.3C57.3,33.6,57.1,33.6,57,33.7z"/>
					<path class="st17" d="M58.9,34.1l-0.6,0.4c-0.1,0.1-0.1,0.2,0,0.2l0.6,0.3c0.1,0.1,0.3,0.1,0.4,0l0.6-0.4
						c0.1-0.1,0.1-0.2,0-0.2l-0.6-0.3C59.2,34,59,34,58.9,34.1z"/>
					<path class="st17" d="M62.3,33.7L61.6,34c-0.1,0.1-0.1,0.2,0,0.2l0.6,0.3c0.1,0.1,0.3,0.1,0.4,0l0.6-0.4c0.1-0.1,0.1-0.2,0-0.2
						l-0.6-0.3C62.5,33.6,62.4,33.6,62.3,33.7z"/>
					<path class="st17" d="M48.6,40.1l-1.3,0.8c-0.1,0.1-0.1,0.2,0,0.2l0.6,0.3c0.1,0.1,0.3,0.1,0.4,0l1.3-0.8
						c0.1-0.1,0.1-0.2,0-0.2L49,40.1C48.8,40,48.7,40,48.6,40.1z"/>
					<path class="st17" d="M59.6,32.1l-2.1,1.2c-0.1,0.1-0.1,0.2,0,0.2l0.6,0.3c0.1,0.1,0.3,0.1,0.4,0l2.1-1.2
						c0.1-0.1,0.1-0.2,0-0.2L60,32.2C59.9,32.1,59.7,32.1,59.6,32.1z"/>
					<path class="st17" d="M54.7,33.4l-6.7,3.8c-0.1,0.1-0.1,0.2,0,0.2l0.6,0.3c0.1,0.1,0.3,0.1,0.4,0l6.7-3.8
						c0.1-0.1,0.1-0.2,0-0.2l-0.6-0.3C55,33.4,54.8,33.4,54.7,33.4z"/>
					<path class="st17" d="M47.7,39l-1.7,1c-0.1,0.1-0.1,0.2,0,0.2l0.6,0.3c0.1,0.1,0.3,0.1,0.4,0l1.7-1c0.1-0.1,0.1-0.2,0-0.2
						l-0.6-0.3C47.9,39,47.8,39,47.7,39z"/>
					<path class="st17" d="M60.9,32.9l-1.5,0.9c-0.1,0.1-0.1,0.2,0,0.2l0.6,0.3c0.1,0.1,0.3,0.1,0.4,0l1.5-0.9
						c0.1-0.1,0.1-0.2,0-0.2l-0.6-0.3C61.2,32.9,61,32.8,60.9,32.9z"/>
				</g>
			</g>
			<g>
				<path class="st15" d="M51.8,44.2L67,35c0.1-0.1,0.3-0.3,0.3-0.5l0.3-11.5c0-0.2-0.4-0.4-0.6-0.3l-15.4,8.9
					c-0.1,0.1-0.3,0.3-0.3,0.5v11.7C51.3,44,51.7,44.3,51.8,44.2z"/>
				<path class="st18" d="M51.9,44.2l15.4-8.9c0.1-0.1,0.3-0.3,0.3-0.5V23.1c0-0.2-0.1-0.2-0.3-0.2l-15.4,8.9
					c-0.1,0.1-0.3,0.3-0.3,0.5V44C51.7,44.2,51.8,44.2,51.9,44.2z"/>
			</g>
		</g>
	</g>
	<path class="st11" d="M41.7,31.9c0.1,0,1.4-0.5,1.9-0.3c0.6,0.2,3.5,0.7,4,1c0.5,0.3,2.7,1.5,2.8,1.6s-0.1,0.5-0.5,0.4l-0.4-0.1
		c0,0,1.2,0.5,1,0.8c-0.2,0.3-0.8,0.2-0.8,0.2s0.6,0.3,0.5,0.5c-0.1,0.2-2.2-0.4-2.2-0.4l-2-0.7c0,0,1.5,1,1.8,1.1
		c0.3,0.1-0.1,0.7-0.8,0.4c-0.8-0.3-3-1.4-3.2-1.5c-0.2-0.1-2.3-1.2-2.3-1.9C41.3,32.4,41.7,31.9,41.7,31.9z"/>
	<path class="st19" d="M27,19.4c-1.4,0-1.8,5.4-0.1,9.2c1.7,3.8,0.2,6.5,5.4,7.1c5.2,0.6,10.6-1.3,10.6-1.3s0.6-1.6,0.4-2.6
		c-0.2-1-0.8-0.6-2-0.5c-1.2,0.1-7.9,0-7.9,0s-0.4-6.7-2.9-9.8C29.2,19.7,29.6,19.4,27,19.4z"/>
</g>
</svg>
