<?xml version="1.0" encoding="utf-8"?>
<!-- Generator: Adobe Illustrator 23.1.1, SVG Export Plug-In . SVG Version: 6.00 Build 0)  -->
<svg version="1.1" id="Capa_1" xmlns="http://www.w3.org/2000/svg" xmlns:xlink="http://www.w3.org/1999/xlink" x="0px" y="0px"
	 viewBox="0 0 100 100" style="enable-background:new 0 0 100 100;" xml:space="preserve">
<style type="text/css">
	.st0{fill:#C4C4DC;}
	.st1{fill:#7170AB;}
	.st2{fill:#6364A3;}
	.st3{fill:#6E6BA8;}
	.st4{fill:#EBEBF5;}
	.st5{fill:#4D4B94;}
	.st6{fill:#283954;}
	.st7{fill:#6161A2;}
	.st8{fill:#DC9F90;}
	.st9{fill:#DCAA53;}
	.st10{fill:#4C785F;}
	.st11{fill:#8E4E3C;}
	.st12{fill:#E3B5AC;}
	.st13{fill:#F1F1F8;}
	.st14{fill:#DCDDEC;}
	.st15{fill:#A9A8CF;}
	.st16{fill:#1C1A45;}
	.st17{fill:#BBBBDA;}
	.st18{fill:#C6C5E0;}
	.st19{fill:#1E1D48;}
	.st20{fill:#383E75;}
	.st21{fill:#474F83;}
	.st22{fill:#16193B;}
</style>
<g>
	<g>
		<g>
			<path class="st0" d="M12.8,62.1c0,0,0.9,10.4,0,13.7c-0.1,0.4,0.5,1.7,1.7,0.2c0.6-0.7,1.2-12.7,1.2-12.7L12.8,62.1z"/>
			<path class="st0" d="M54.8,37.9c0,0,0.9,10.4,0,13.7c-0.1,0.4,0.5,1.7,1.7,0.2c0.6-0.7,1.2-12.7,1.2-12.7L54.8,37.9z"/>
			<path class="st0" d="M25,69.2c0,0,0.9,10.4,0,13.7c-0.1,0.4,0.5,1.7,1.7,0.2c0.6-0.7,1.2-12.7,1.2-12.7L25,69.2z"/>
			<path class="st0" d="M67,44.9c0,0,0.9,10.8,1.5,13.4c0.3,1.6,2.8,1.3,2-0.4c-0.9-2-0.5-11.8-0.5-11.8L67,44.9z"/>
			<g id="Axo_Extrusion_00000013158070701747754960000005133252660839311028_">
				<path id="Axo_panel_00000039101514880302632940000003344223519232473534_" class="st1" d="M76.2,33.1c-0.7-0.4-2,0-3.3,2.2
					c-2.3,3.7-5.1,13.2-5.1,13.2l-13.7-7.9c0,0-1.8-12.1,0.6-15.8c1.4-2.2,2.6-2.6,3.3-2.2L76.2,33.1z"/>
				<path id="Axo_base_00000008151267874970602200000013614194775865461410_" class="st2" d="M76.2,33.1c0.5,0.3,0.7,1,0.4,1.8
					c-0.7,1.7-1.8,0.4-2.6,2.8c-1.1,3.4-2.7,8.1-3.9,9.4c-1.2,1.2-2.3,1.4-2.3,1.4s2.8-9.4,5.1-13.2C74.2,33.1,75.5,32.7,76.2,33.1z
					"/>
			</g>
			<g id="Axo_Extrusion_00000016754862428303530300000002873911363149599409_">
				<g id="Axo_Surface_x2A__00000055688361487051771740000003201065262614928024_">
					<path id="Axo_panel_00000044137469636623713940000005257354543184118204_" class="st3" d="M16.4,63.4l-2.5-16.1
						c-0.4-2.3-2-4.7-3.8-5.8l40.4-23.4c1.8,1.1,3.4,3.5,3.8,5.8L56.8,40L16.4,63.4z"/>
					<path id="Axo_panel_00000089561258625786746490000013968942084248204171_" class="st3" d="M16.4,63.4l-2.5-16.1
						c-0.4-2.3-2-4.7-3.8-5.8l20.5-11.8c1.8,1.1,3.4,3.5,3.8,5.8l2.5,16.1L16.4,63.4z"/>
					<path id="Axo_panel_00000048492674598294732740000013611209642586900394_" class="st4" d="M16.4,63.4l-2.5-16.1
						c-0.4-2.3-2-4.7-3.8-5.8L16.4,63.4z"/>
					<path id="Axo_panel_00000166665793962611164240000000846485075933379001_" class="st5" d="M37.1,51.4
						C36.7,49.5,34.6,37,34.6,37c-0.2-1-0.2-1.9-0.5-2.8c-0.3-0.9-0.7-1.8-1.3-2.6c-0.6-0.8-1.2-1.5-2.1-2c1.7,1,2.9,2.7,3.6,4.5
						c0.3,0.9,0.4,1.9,0.6,2.9l1.4,8.7C36.6,47.5,36.8,49.5,37.1,51.4z"/>
				</g>
				<path id="Axo_base_00000166677932069914708900000010436344718704599229_" class="st2" d="M16.4,63.4L10,59.7V41.5
					c1.8,1.1,3.4,3.5,3.8,5.8L16.4,63.4z"/>
			</g>
			<g id="Axo_Extrusion_00000133527576295469123280000003512469216311427232_">
				<path id="Axo_panel_00000049204463486762583600000007481414033687901362_" class="st5" d="M29.5,70.8c0.2-0.1,0.3-0.3,0.3-0.6
					v-2.8c0-0.6-0.4-1.2-0.9-1.5l-11.6-6.7c-0.2-0.1-0.5-0.2-0.6-0.1l38.7-22.4c0.2-0.1,0.4-0.1,0.6,0.1l11.6,6.7
					c0.5,0.3,0.9,1,0.9,1.5v2.8c0,0.3-0.1,0.5-0.3,0.6L29.5,70.8z"/>
				<path id="Axo_base_00000131358253687556165700000000807867452284698277_" class="st6" d="M29.5,70.8c-0.2,0.1-0.4,0.1-0.6-0.1
					L17.2,64c-0.5-0.3-0.9-1-0.9-1.5v-2.8c0-0.3,0.1-0.5,0.3-0.6c0.2-0.1,0.4-0.1,0.6,0.1L28.9,66c0.5,0.3,0.9,1,0.9,1.5v2.8
					C29.7,70.5,29.6,70.7,29.5,70.8z"/>
			</g>
			<g id="Axo_Extrusion_00000160190076530734820710000017533155495004788627_">
				<path class="st7" d="M68.5,43.8v2.8c0,0.3-0.1,0.5-0.3,0.6L29.5,69.5c0.2-0.1,0.3-0.3,0.3-0.6v-2.8c0-0.6-0.4-1.2-0.9-1.5
					l-11.6-6.7c-0.2-0.1-0.5-0.2-0.6-0.1l38.7-22.4c0.2-0.1,0.4-0.1,0.6,0.1l11.6,6.7c0.4,0.2,0.7,0.7,0.8,1.2
					C68.5,43.6,68.5,43.7,68.5,43.8z"/>
				<path class="st7" d="M29.7,66.1v2.8c0,0.3-0.1,0.5-0.3,0.6s-0.4,0.1-0.6-0.1l-11.6-6.7c-0.5-0.3-0.9-1-0.9-1.5v-2.8
					c0-0.3,0.1-0.5,0.3-0.6c0.2-0.1,0.4-0.1,0.6,0.1l11.6,6.7C29.3,64.9,29.7,65.6,29.7,66.1z"/>
				<path class="st5" d="M68.5,43.8c0-0.1,0-0.2,0-0.3C68.5,43.6,68.5,43.7,68.5,43.8z"/>
				<path class="st5" d="M68.5,43.8v2.8c0,0.3-0.1,0.5-0.3,0.6L29.5,69.5c-0.2,0.1-0.4,0.1-0.6-0.1l-11.6-6.7
					c-0.5-0.3-0.9-1-0.9-1.5v-1.5c1,0.7,9.3,6.4,13.4,6.5c0.4,0,0.7,0,1-0.1C34.3,65.1,68.5,44.4,68.5,43.8z"/>
			</g>
			<g id="Axo_Extrusion_00000165232968538840248640000016387943432014843807_">
				<path id="Axo_panel_00000112624000317002060160000007672500804021842360_" class="st5" d="M23.2,66.2c0.1,0.1,0.2,0.2,0.3,0.4
					c1,2,2.5,4.7,3.7,5.4L9.4,61.7c-1.2-0.7-2.7-3.4-3.7-5.4c-0.1-0.2-0.2-0.3-0.3-0.4L23.2,66.2z"/>
				<path id="Axo_panel_00000132074568013210584820000017055762553579745164_" class="st1" d="M24.8,62.9c0,0-0.1,0-0.1-0.1
					c-2.3-1-4.5,2.9-3.7,3.9c0,0.1,0.1,0.1,0.2,0.1L3.3,56.6c-0.1,0-0.1-0.1-0.2-0.1c-0.7-1,1.4-5,3.7-3.9c0,0,0.1,0,0.1,0.1
					L24.8,62.9z"/>
				<path id="Axo_base_00000022532587122351402730000017436849615086792845_" class="st2" d="M24.8,62.9c2.3,1.3,5,7.8,5,7.8
					s-1.1,1.2-2.3,1.4c-0.1,0-0.2,0-0.2-0.1c-1.2-0.7-2.7-3.4-3.7-5.4c-0.1-0.2-0.2-0.3-0.3-0.4c-0.7-0.4-1.5,1.1-2.1,0.7
					c-0.1,0-0.1-0.1-0.2-0.1c-0.7-1,1.4-5,3.7-3.9C24.7,62.8,24.7,62.9,24.8,62.9z"/>
			</g>
		</g>
		<g>
			<path class="st8" d="M45.8,23.5c0,0,1.7-2,4.5,1.4c2.7,3.4,1.1,10,2.4,11.4c1.3,1.4,2.1,4,2.1,4s1.2-1.1,1.3-1.1
				c0.1,0,1.1-0.6,1.2-0.7c0.1-0.1,0.4-0.1,0.3,0.1c-0.1,0.2-0.7,0.7-0.7,0.7s1.1-1.2,1.2-1.1c0.1,0,0.1,0.2,0.1,0.2
				s0.2-0.2,0.3-0.1c0.1,0.1-0.8,1.5-0.8,1.5s1-1,1.1-1c0.1-0.1,0.2,0,0,0.3c-0.2,0.4-1.2,1.6-1.2,1.6l-0.5,0.6l0.9-0.2
				c0,0,0.2-0.4,0.5-0.4c0.3,0,0.2,0.1,0,0.4c-0.1,0.3-0.3,0.6-0.4,0.6c-0.1,0.1-1,0.6-0.9,0.5c0,0-2.1,0.4-2.1,0.4
				c-0.1,0-1.1-0.2-1.1-0.3s-4-5.6-4.3-7.7C49.1,32.4,45.8,23.5,45.8,23.5z"/>
			<path class="st0" d="M45.6,23.1c0,0,1.5-0.7,2.3-0.2c0.8,0.5,2.1,1.1,2.9,3.4c0.8,2.3,0.8,4,0.8,4s0.1,1.6-1.2,2.1
				c-1.3,0.5-2,0.1-2.2,0C48.2,32.3,44.1,24.8,45.6,23.1z"/>
			<path class="st8" d="M60.9,45.6c-4.2-3.6-10.4-5.4-10.4-5.4l-3.3,4.5l1.6-1.5c0,0,1.8,4.2,3.3,4.6c1.5,0.4,6.2,1.1,6.2,1.1
				s-2.5,1.9-3.2,3.1c-0.7,1.2-2.9,5.7-3.8,7c-0.9,1.3-2.4,0.8-3,2c-0.1,0.3,0,1.3-0.1,1.7c0,0.2-0.2,0.4-0.4,0.7
				c-0.1,0.2-0.2,0.3-0.2,0.5c-0.2,0.6-0.2,1.2-0.2,1.8c0,0.5-0.1,1-0.1,1.5c0,0,0,0,0,0c0.1,0.1,0.3-0.1,0.3-0.1s0.1,0.1,0.3,0.1
				c0.2,0,0.4-0.3,0.4-0.3s0.1,0,0.2,0.1c0.1,0,0.3-0.1,0.3-0.1s0.1,0.1,0.2,0.1c0.1,0,0.5-0.4,0.7-0.7c0.2-0.3,1-3.2,1.5-4
				c1.1-1.9,7.2-7.9,8.9-10.2C61.9,49.7,63.7,48,60.9,45.6z"/>
			<path class="st9" d="M48,60.6c0.5-0.3,2-0.9,2-0.9s-0.8,1.5-1.2,2.8c-0.3,1.3-0.7,2.5-0.2,3.5c0.5,0.8,1.3-0.6,1.3-0.6
				s-0.2,1-1.3,2.6c-1.1,1.6-1.4,2.6-1.7,1.5c-0.3-1.1-0.3-1.5-0.4-2.9c-0.1-1.4,1.2-3.5,1.2-3.5l-0.2,0C47.6,63.1,47.5,61,48,60.6z
				"/>
			<path class="st10" d="M50.6,59.5c0,0-0.8,0.6-0.5,1.6c0.2,0.9,1.4,0.9,1.4,0.9l0.4-0.6c0,0-0.1,0.4-0.7,0.2
				c-1.1-0.5-0.2-2.3-0.2-2.3L50.6,59.5z"/>
			<path class="st4" d="M48.2,39.6c0,0,0.1-0.1,0.3-0.1c0.4-0.2,1.3-0.5,2.1-0.2c1.2,0.3,4.4,2.2,6.2,3.4c2.2,1.6,3.6,2.6,3.6,2.6
				s-2.5,0.2-2.8,1.7c-0.3,1.5,0.2,1.8,0.2,1.8s-6.3,0.2-8-1c-1.7-1.2-4.7-5.4-3.9-5.8C46.7,41.6,48.2,39.6,48.2,39.6z"/>
			<path class="st4" d="M48.2,39.6c0,0,0.1-0.1,0.3-0.1c0.4-0.2,1.3-0.5,2.1-0.2c1.2,0.3,4.5,2,6.2,3.4c1.7,1.4,3.6,2.6,3.6,2.6
				s-2.5,0.2-2.8,1.7c-0.3,1.5,0.2,1.8,0.2,1.8s-6.2-2.3-7.9-3.5c-1.7-1.2-4.8-2.8-4-3.2C46.7,41.6,48.2,39.6,48.2,39.6z"/>
			<path class="st11" d="M47.8,20.1c0-0.1,0.9-0.8,0.7-2.2c-0.2-1.4-1.4-2.9-3.2-3.2c-1.8-0.4-2.7,0.4-2.7,0.4s-1.9,0.8-2.3,2.4
				c-0.4,1.6,0.5,7.9,0.3,8.5c-0.2,0.6,0.7,0.5,0.9,1c0.2,0.5,3,1.2,3.1,1.4c0.1,0.2,1.6,1,1.7,1.8c0.1,0.8,1.1,0.9,1.1,0.9
				s-1-2.4-0.6-3.1c0.4-0.8-0.4-2.7-0.6-3.1c-0.2-0.3-1.8-1.9-1.8-2.2c-0.1-0.3-0.2-1.8-0.1-2.3c0.1-0.4,2.1-0.8,2.1-0.8L47.8,20.1z
				"/>
			<path class="st12" d="M48.8,43.1c0,0,6.5,5.4,6.2,8.4c-0.3,3-3,13.8-2.8,14.8c0.2,1,1.7,3.9,2.2,4.2c0.5,0.3,1.1,0.7,1,0.8
				c0,0.2-1.2,0.3-1.5,0.4c-0.3,0.1-0.5,0-0.6-0.1c-0.2-0.1-1,0.2-1.5-0.2c-0.5-0.3-0.8-1.3-1.8-1.7c-1.1-0.4-1.4-0.4-1.4-0.8
				c-0.1-0.5,0.8-1.4,0.9-1.7c1-2.2-0.6-7.4,0.1-9.8l1.2-4c0,0-2.5-3.8-4.4-5.6c-0.9-0.8-4.2-3.7-4.4-5.1
				C41.8,41.2,48.8,43.1,48.8,43.1z"/>
			<path class="st9" d="M49.4,67c0,0-1,1.5-1,2.1l0,0.6l1.7,0.7l0.2-0.3c0,0,1.2,1.4,1.6,1.6c0.4,0.2,3.8,0.2,4.2,0
				c0.4-0.2,0.5-0.5,0.2-0.6c-0.3-0.2-2.3-1.3-2.3-1.3s-0.4,0.8-0.8,0.6C52.8,70.3,49.4,67,49.4,67z"/>
			<path class="st9" d="M49.5,66.1L49.4,67c0,0,0.9,0.6,1.8,0.4c0.8-0.1,1.2-0.6,1.2-0.6l-0.1-0.9c0,0-0.6,0.8-1.3,0.8
				C50.1,66.6,49.5,66.1,49.5,66.1z"/>
			<path class="st13" d="M50.3,40.8c5.1,7.3,4.5,9.4,4.5,9.4s-1.5-1-3,0c-2.1,1.4-1,3.1-1,3.1S40.1,46,40.2,42c0.2-4,1.8-4.9,2-5
				c0.2-0.1,6.5,3.3,6.5,3.3L50.3,40.8z"/>
			<path class="st0" d="M48.3,24.2c0,0,1.6,4.5,2,6.1c0.4,1.7,0.5,1.6-0.2,4c-0.6,2.3,2,4.6,1.6,5.2c-2.2,3.7-3.8,3.5-5.8,4
				c-5.2,1.2-5.4-4.1-5.6-4.2c-0.2-0.1,0.3-4.9,0-7.1c-0.3-2.2-0.4-4.3-0.1-5.4c0.3-1.1,1.9-3,2.6-3.3c0.7-0.3,1.9-1.1,1.9-1.1
				L48.3,24.2z"/>
			<path class="st8" d="M47.4,21.8c0,0-0.9,1.3-0.1,2.8c0.7,1.4-0.6,2.2-2,1.5c-1.4-0.7-3.1-2.4-2.3-3c0.7-0.6-0.2-2.5-0.2-2.5
				L47.4,21.8z"/>
			<path class="st4" d="M47.4,21.8c-0.4,0.8-0.5,1.8-0.1,2.5c0.2,0.4,0.5,0.9,0.3,1.4c-0.1,0.5-0.7,0.8-1.2,0.8
				c-0.5,0-1-0.1-1.4-0.4c-0.4-0.2-0.8-0.5-1.1-0.8c-0.3-0.3-0.7-0.6-0.9-1c-0.1-0.2-0.2-0.4-0.3-0.6c0-0.2,0-0.5,0.2-0.6
				c-0.2,0.1-0.2,0.4-0.2,0.6c0.1,0.2,0.2,0.4,0.3,0.6c0.3,0.3,0.6,0.7,0.9,0.9c0.7,0.5,1.5,1.1,2.3,1c0.4,0,0.8-0.2,0.9-0.6
				c0.1-0.2,0-0.4,0-0.6c-0.1-0.2-0.2-0.4-0.2-0.6c-0.2-0.4-0.2-0.9-0.2-1.4C46.9,22.6,47.1,22.2,47.4,21.8z"/>
			<path class="st12" d="M47.3,16.4c0,0,0.8,1.4,0.7,2c-0.1,0.6-0.2,0.8,0.1,1.3c0.3,0.4,0.2,1.7-0.3,2.6c-0.5,0.9-1,1.8-1.5,1.7
				c-0.5-0.2-1.9-0.6-2.5-1.4c-0.6-0.8-0.8-1.7-0.8-1.7s-0.1,0.7-0.7-0.2c-0.6-0.9-0.7-2.1,0-2.1c0.7-0.1,0.7,0.2,0.7,0.3
				c0.1,0,1.3,0.1,2-0.9l0.7-1L47.3,16.4z"/>
			<path class="st11" d="M45.8,17c0,0-2,2.4-1.9,3.9c0.1,1.5,0.7,2,0.7,2s-2-1.6-1.9-3c0.1-1.4,0.7-2.4,0.7-2.4L45.8,17z"/>
			<g>
				<path id="Axo_base_00000144329701908368231950000002020413289965789069_" class="st9" d="M42.4,20.8c0.1-0.1,0.4,0.1,0.5,0.3
					c0.1,0.2,0.1,0.5,0,0.6c-0.1,0.1-0.4-0.1-0.5-0.3C42.2,21.1,42.2,20.9,42.4,20.8z"/>
				<path id="Axo_base_00000103250570901850564490000017952554766235452607_" class="st9" d="M42.7,21.7c0.1-0.1,0.3,0,0.4,0.2
					c0.1,0.2,0.1,0.3,0,0.4c-0.1,0.1-0.3,0-0.4-0.2C42.6,21.9,42.6,21.8,42.7,21.7z"/>
			</g>
			<path class="st12" d="M42.9,29.4c0.1,0.5-0.2,3.5-0.8,5.5c-0.5,1.9-0.4,3.4-0.4,3.4l3.6,4.2h1.8c0,0,1.4,0.7,1.5,0.9
				c0.1,0.2,0.8,0.9,0.6,0.9c-0.2,0-0.6-0.1-0.9-0.3c-0.4-0.2-1.3-0.6-1.3-0.6l1.8,1.1c0,0,0.9,0.9,1,1.1c0.1,0.2-0.3,0.2-0.6,0
				c-0.2-0.2-0.8-0.8-1.1-0.8c-0.3,0-0.5-0.3-0.5-0.3s1.1,1,1.2,1.2c0.1,0.2,0.7,0.8,0.6,0.9c-0.1,0.1-0.5,0-0.5,0s0.3,0.3,0,0.3
				c-0.3,0-0.7-0.1-0.7-0.1l-2-1.2c0,0,0.8,1,0.8,1.1c0,0,1,0.7,0.6,0.7c-0.4,0-1.2-0.7-2-1.4c-0.8-0.7-1.8-2.1-1.8-2.1
				s-4.2-3-4.7-4.8c-0.4-1.7,0.1-10.5,0.9-11.6C41,26.2,42.7,28.7,42.9,29.4z"/>
		</g>
		<path class="st14" d="M41.9,26.3c0.2,0.2,1.7,1.4,1.6,4.1c-0.2,2.6-0.8,3.5-0.8,3.5s-1.5,1.5-2.8,0.9c-1.3-0.6-1.6-2.1-1.6-2.1
			S38.7,23.9,41.9,26.3z"/>
	</g>
	<g>
		<g>
			<g id="Axo_Extrusion_00000102509904125291143640000000351229126198298538_">
				<g id="Axo_Surface_x2A__00000064327579233750405850000015536130887361174966_">
					<polygon id="Axo_panel_00000163056601839858267270000011989109573044630165_" class="st15" points="57.6,74.1 62.4,63.5 
						63.5,62.9 58.6,73.5 					"/>
					<polygon id="Axo_panel_00000053515882779804281690000014042873240788961971_" class="st11" points="62.4,63.5 60.3,62.3 
						61.3,61.6 63.5,62.9 					"/>
				</g>
				<polygon id="Axo_base_00000096026408143445190060000006677141931989794745_" class="st0" points="57.6,74.1 57,73.8 60.6,62.4 
					62.4,63.5 				"/>
			</g>
			<g id="Axo_Extrusion_00000000907013067729299720000015852542131209323427_">
				<g id="Axo_Surface_x2A__00000139974556952576279720000013641384331218195868_">
					<polygon id="Axo_panel_00000155852785489208984410000006665810516212532133_" class="st16" points="78.7,61.9 83.5,51.3 
						84.6,50.7 79.8,61.3 					"/>
					<polygon id="Axo_panel_00000085212347131685724850000002783395649078984600_" class="st11" points="83.5,51.3 81.4,50.1 
						82.5,49.5 84.6,50.7 					"/>
				</g>
				<polygon id="Axo_base_00000021813896497167430070000013422821986370341769_" class="st16" points="78.7,61.9 78.1,61.6 
					81.7,50.3 83.5,51.3 				"/>
			</g>
			<polygon class="st15" points="72.7,69.4 76,84.7 75.2,84.3 71.6,68.8 			"/>
			<polygon class="st15" points="93.8,57.2 97.1,72.6 96.3,72.1 92.7,56.6 			"/>
			<polygon class="st0" points="76.7,84.3 74,68.7 72.7,69.4 76,84.7 			"/>
			<polygon class="st0" points="97.8,72.1 95.1,56.5 93.8,57.2 97.1,72.6 			"/>
			<g id="Axo_Extrusion_00000024717888589761525360000018371645106955041456_">
				<g id="Axo_Surface_x2A__00000009575713986818002720000012397207453261016975_">
					<polygon id="Axo_panel_00000114784090533046698400000016873054006522097037_" class="st17" points="55.7,60.7 71.1,69.6 
						71.1,71.4 55.7,62.5 					"/>
					<polygon id="Axo_panel_00000117667170299622102250000000703424376822975116_" class="st18" points="71.1,69.6 99.2,53.4 
						99.2,55.1 71.1,71.4 					"/>
				</g>
				<polygon id="Axo_base_00000160907068566657230350000011920048249109048499_" class="st4" points="55.7,60.7 83.9,44.5 
					99.2,53.4 71.1,69.6 				"/>
			</g>
		</g>
		<g>
			<path class="st19" d="M64.3,57.1h0.6L75.5,51c0.2-0.1,0.4-0.1,0.6,0l6.4,3.7H83v0.4c0,0.1,0,0.1-0.1,0.2l-11.1,6.4
				c-0.2,0.1-0.6,0.2-0.8,0.1l-6.6-4c-0.1-0.1-0.2-0.2-0.1-0.2C64.3,57.5,64.3,57.1,64.3,57.1z"/>
			<g>
				<path class="st20" d="M71.8,61.2l11.1-6.4c0.2-0.1,0.1-0.2,0-0.3L76,50.6c-0.2-0.1-0.4-0.1-0.6,0l-11.1,6.4
					c-0.2,0.1-0.1,0.2,0,0.3l6.6,4C71.2,61.4,71.7,61.3,71.8,61.2z"/>
				<path class="st19" d="M71.6,60.7l10.2-5.9c0.1-0.1,0.1-0.2,0-0.3L77.3,52c-0.1-0.1-0.4-0.1-0.5,0l-10.2,5.9
					c-0.1,0.1-0.1,0.2,0,0.3l4.4,2.6C71.2,60.8,71.5,60.8,71.6,60.7z"/>
			</g>
			<g>
				<polygon class="st21" points="71.2,54.8 72.9,53.8 71.5,53 69.8,54 				"/>
				<path class="st21" d="M73.1,53.7l0.5-0.3c0.1-0.1,0.1-0.2,0-0.3l-0.8-0.4c-0.2-0.1-0.4-0.1-0.6,0l-0.5,0.3L73.1,53.7z"/>
				<path class="st21" d="M70.9,55l-0.5,0.3c-0.1,0.1-0.4,0.1-0.6,0l-0.8-0.4c-0.2-0.1-0.2-0.2,0-0.3l0.5-0.3L70.9,55z"/>
			</g>
			<g>
				<g>
					<path class="st20" d="M70.8,60.3l0.4,0.2c0.1,0.1,0.3,0.1,0.4,0l0.5-0.3c0.1-0.1,0.1-0.2,0-0.2l-0.4-0.2
						c-0.1-0.1-0.3-0.1-0.4,0l-0.5,0.3C70.6,60.2,70.7,60.3,70.8,60.3z"/>
					<path class="st20" d="M71.7,59.8l0.4,0.2c0.1,0.1,0.3,0.1,0.4,0l0.5-0.3c0.1-0.1,0.1-0.2,0-0.2l-0.4-0.2
						c-0.1-0.1-0.3-0.1-0.4,0l-0.5,0.3C71.6,59.6,71.6,59.7,71.7,59.8z"/>
					<path class="st20" d="M72.7,59.2l0.4,0.2c0.1,0.1,0.3,0.1,0.4,0l0.5-0.3c0.1-0.1,0.1-0.2,0-0.2l-0.4-0.2
						c-0.1-0.1-0.3-0.1-0.4,0L72.6,59C72.5,59.1,72.6,59.2,72.7,59.2z"/>
					<path class="st20" d="M73.6,58.7l0.4,0.2c0.1,0.1,0.3,0.1,0.4,0l0.5-0.3c0.1-0.1,0.1-0.2,0-0.2l-0.4-0.2
						c-0.1-0.1-0.3-0.1-0.4,0l-0.5,0.3C73.5,58.5,73.5,58.6,73.6,58.7z"/>
					<path class="st20" d="M74.6,58.1l0.4,0.2c0.1,0.1,0.3,0.1,0.4,0l0.5-0.3c0.1-0.1,0.1-0.2,0-0.2l-0.4-0.2
						c-0.1-0.1-0.3-0.1-0.4,0l-0.5,0.3C74.4,58,74.5,58.1,74.6,58.1z"/>
					<path class="st20" d="M75.5,57.6l0.4,0.2c0.1,0.1,0.3,0.1,0.4,0l0.5-0.3c0.1-0.1,0.1-0.2,0-0.2l-0.4-0.2
						c-0.1-0.1-0.3-0.1-0.4,0l-0.5,0.3C75.4,57.4,75.4,57.5,75.5,57.6z"/>
					<path class="st20" d="M76.5,57l0.4,0.2c0.1,0.1,0.3,0.1,0.4,0l0.5-0.3c0.1-0.1,0.1-0.2,0-0.2l-0.4-0.2c-0.1-0.1-0.3-0.1-0.4,0
						l-0.5,0.3C76.3,56.9,76.4,57,76.5,57z"/>
					<path class="st20" d="M77.4,56.5l0.4,0.2c0.1,0.1,0.3,0.1,0.4,0l0.5-0.3c0.1-0.1,0.1-0.2,0-0.2L78.3,56c-0.1-0.1-0.3-0.1-0.4,0
						l-0.5,0.3C77.3,56.3,77.3,56.4,77.4,56.5z"/>
					<path class="st20" d="M78.4,55.9l0.4,0.2c0.1,0.1,0.3,0.1,0.4,0l0.5-0.3c0.1-0.1,0.1-0.2,0-0.2l-0.4-0.2
						c-0.1-0.1-0.3-0.1-0.4,0l-0.5,0.3C78.3,55.8,78.3,55.9,78.4,55.9z"/>
					<path class="st20" d="M79.3,55.4l0.4,0.2c0.1,0.1,0.3,0.1,0.4,0l0.5-0.3c0.1-0.1,0.1-0.2,0-0.2l-0.4-0.2
						c-0.1-0.1-0.3-0.1-0.4,0l-0.5,0.3C79.2,55.2,79.2,55.3,79.3,55.4z"/>
					<path class="st20" d="M80.3,54.8l0.4,0.2c0.1,0.1,0.3,0.1,0.4,0l0.5-0.3c0.1-0.1,0.1-0.2,0-0.2l-0.4-0.2
						c-0.1-0.1-0.3-0.1-0.4,0l-0.5,0.3C80.2,54.7,80.2,54.8,80.3,54.8z"/>
					<path class="st20" d="M69.8,59.8l0.4,0.2c0.1,0.1,0.3,0.1,0.4,0l0.8-0.4c0.1-0.1,0.1-0.2,0-0.2l-0.4-0.2
						c-0.1-0.1-0.3-0.1-0.4,0l-0.8,0.4C69.7,59.6,69.7,59.7,69.8,59.8z"/>
					<path class="st20" d="M71,59.1l0.4,0.2c0.1,0.1,0.3,0.1,0.4,0l0.5-0.3c0.1-0.1,0.1-0.2,0-0.2l-0.4-0.2c-0.1-0.1-0.3-0.1-0.4,0
						l-0.5,0.3C70.8,58.9,70.8,59,71,59.1z"/>
					<path class="st20" d="M71.8,58.6l0.4,0.2c0.1,0.1,0.3,0.1,0.4,0l0.5-0.3c0.1-0.1,0.1-0.2,0-0.2l-0.4-0.2
						c-0.1-0.1-0.3-0.1-0.4,0l-0.5,0.3C71.7,58.4,71.7,58.5,71.8,58.6z"/>
					<path class="st20" d="M72.6,58.1l0.4,0.2c0.1,0.1,0.3,0.1,0.4,0l0.5-0.3c0.1-0.1,0.1-0.2,0-0.2l-0.4-0.2
						c-0.1-0.1-0.3-0.1-0.4,0l-0.5,0.3C72.5,58,72.5,58.1,72.6,58.1z"/>
					<path class="st20" d="M73.5,57.6l0.4,0.2c0.1,0.1,0.3,0.1,0.4,0l0.5-0.3c0.1-0.1,0.1-0.2,0-0.2l-0.4-0.2
						c-0.1-0.1-0.3-0.1-0.4,0l-0.5,0.3C73.4,57.5,73.4,57.6,73.5,57.6z"/>
					<path class="st20" d="M74.3,57.2l0.4,0.2c0.1,0.1,0.3,0.1,0.4,0l0.5-0.3c0.1-0.1,0.1-0.2,0-0.2l-0.4-0.2
						c-0.1-0.1-0.3-0.1-0.4,0l-0.5,0.3C74.2,57,74.2,57.1,74.3,57.2z"/>
					<path class="st20" d="M75.2,56.7l0.4,0.2c0.1,0.1,0.3,0.1,0.4,0l0.5-0.3c0.1-0.1,0.1-0.2,0-0.2L76,56.2c-0.1-0.1-0.3-0.1-0.4,0
						l-0.5,0.3C75,56.5,75,56.6,75.2,56.7z"/>
					<path class="st20" d="M76,56.2l0.4,0.2c0.1,0.1,0.3,0.1,0.4,0l0.5-0.3c0.1-0.1,0.1-0.2,0-0.2l-0.4-0.2c-0.1-0.1-0.3-0.1-0.4,0
						L76,56C75.9,56,75.9,56.1,76,56.2z"/>
					<path class="st20" d="M76.8,55.7l0.4,0.2c0.1,0.1,0.3,0.1,0.4,0l0.5-0.3c0.1-0.1,0.1-0.2,0-0.2l-0.4-0.2
						c-0.1-0.1-0.3-0.1-0.4,0l-0.5,0.3C76.7,55.5,76.7,55.6,76.8,55.7z"/>
					<path class="st20" d="M77.7,55.2l0.4,0.2c0.1,0.1,0.3,0.1,0.4,0l0.5-0.3c0.1-0.1,0.1-0.2,0-0.2l-0.4-0.2
						c-0.1-0.1-0.3-0.1-0.4,0L77.7,55C77.6,55,77.6,55.1,77.7,55.2z"/>
					<path class="st20" d="M78.5,54.7l0.4,0.2c0.1,0.1,0.3,0.1,0.4,0l0.5-0.3c0.1-0.1,0.1-0.2,0-0.2l-0.4-0.2
						c-0.1-0.1-0.3-0.1-0.4,0l-0.5,0.3C78.4,54.6,78.4,54.7,78.5,54.7z"/>
					<path class="st20" d="M70.2,58.4l0.4,0.2c0.1,0.1,0.3,0.1,0.4,0l0.5-0.3c0.1-0.1,0.1-0.2,0-0.2L71,57.9c-0.1-0.1-0.3-0.1-0.4,0
						l-0.5,0.3C70.1,58.3,70.1,58.4,70.2,58.4z"/>
					<path class="st20" d="M71,57.9l0.4,0.2c0.1,0.1,0.3,0.1,0.4,0l0.5-0.3c0.1-0.1,0.1-0.2,0-0.2l-0.4-0.2c-0.1-0.1-0.3-0.1-0.4,0
						L71,57.7C70.9,57.8,70.9,57.9,71,57.9z"/>
					<path class="st20" d="M71.9,57.5l0.4,0.2c0.1,0.1,0.3,0.1,0.4,0l0.5-0.3c0.1-0.1,0.1-0.2,0-0.2L72.7,57c-0.1-0.1-0.3-0.1-0.4,0
						l-0.5,0.3C71.7,57.3,71.7,57.4,71.9,57.5z"/>
					<path class="st20" d="M72.7,57l0.4,0.2c0.1,0.1,0.3,0.1,0.4,0L74,57c0.1-0.1,0.1-0.2,0-0.2l-0.4-0.2c-0.1-0.1-0.3-0.1-0.4,0
						l-0.5,0.3C72.6,56.8,72.6,56.9,72.7,57z"/>
					<path class="st20" d="M73.5,56.5l0.4,0.2c0.1,0.1,0.3,0.1,0.4,0l0.5-0.3c0.1-0.1,0.1-0.2,0-0.2L74.4,56c-0.1-0.1-0.3-0.1-0.4,0
						l-0.5,0.3C73.4,56.3,73.4,56.4,73.5,56.5z"/>
					<path class="st20" d="M74.4,56l0.4,0.2c0.1,0.1,0.3,0.1,0.4,0l0.5-0.3c0.1-0.1,0.1-0.2,0-0.2l-0.4-0.2c-0.1-0.1-0.3-0.1-0.4,0
						l-0.5,0.3C74.2,55.9,74.2,56,74.4,56z"/>
					<path class="st20" d="M75.2,55.5l0.4,0.2c0.1,0.1,0.3,0.1,0.4,0l0.5-0.3c0.1-0.1,0.1-0.2,0-0.2L76,55.1c-0.1-0.1-0.3-0.1-0.4,0
						l-0.5,0.3C75.1,55.4,75.1,55.5,75.2,55.5z"/>
					<path class="st20" d="M76,55.1l0.4,0.2c0.1,0.1,0.3,0.1,0.4,0l0.5-0.3c0.1-0.1,0.1-0.2,0-0.2l-0.4-0.2c-0.1-0.1-0.3-0.1-0.4,0
						L76,54.8C75.9,54.9,75.9,55,76,55.1z"/>
					<path class="st20" d="M69.6,57.6l0.4,0.2c0.1,0.1,0.3,0.1,0.4,0l0.5-0.3c0.1-0.1,0.1-0.2,0-0.2l-0.4-0.2
						c-0.1-0.1-0.3-0.1-0.4,0l-0.5,0.3C69.5,57.5,69.5,57.6,69.6,57.6z"/>
					<path class="st20" d="M70.5,57.2l0.4,0.2c0.1,0.1,0.3,0.1,0.4,0l0.5-0.3c0.1-0.1,0.1-0.2,0-0.2l-0.4-0.2
						c-0.1-0.1-0.3-0.1-0.4,0l-0.5,0.3C70.3,57,70.4,57.1,70.5,57.2z"/>
					<path class="st20" d="M71.3,56.7l0.4,0.2c0.1,0.1,0.3,0.1,0.4,0l0.5-0.3c0.1-0.1,0.1-0.2,0-0.2l-0.4-0.2
						c-0.1-0.1-0.3-0.1-0.4,0l-0.5,0.3C71.2,56.5,71.2,56.6,71.3,56.7z"/>
					<path class="st20" d="M66.9,58.1l0.4,0.2c0.1,0.1,0.3,0.1,0.4,0l0.5-0.3c0.1-0.1,0.1-0.2,0-0.2l-0.4-0.2
						c-0.1-0.1-0.3-0.1-0.4,0l-0.5,0.3C66.8,57.9,66.8,58,66.9,58.1z"/>
					<path class="st20" d="M67.7,57.6l0.4,0.2c0.1,0.1,0.3,0.1,0.4,0l0.5-0.3c0.1-0.1,0.1-0.2,0-0.2l-0.4-0.2
						c-0.1-0.1-0.3-0.1-0.4,0l-0.5,0.3C67.6,57.4,67.6,57.5,67.7,57.6z"/>
					<path class="st20" d="M68.6,57.1l0.4,0.2c0.1,0.1,0.3,0.1,0.4,0l0.5-0.3c0.1-0.1,0.1-0.2,0-0.2l-0.4-0.2
						c-0.1-0.1-0.3-0.1-0.4,0l-0.5,0.3C68.4,57,68.4,57.1,68.6,57.1z"/>
					<path class="st20" d="M74.7,53.6l0.4,0.2c0.1,0.1,0.3,0.1,0.4,0l0.5-0.3c0.1-0.1,0.1-0.2,0-0.2l-0.4-0.2
						c-0.1-0.1-0.3-0.1-0.4,0l-0.5,0.3C74.6,53.4,74.6,53.5,74.7,53.6z"/>
					<path class="st20" d="M75.6,53.1l0.4,0.2c0.1,0.1,0.3,0.1,0.4,0l0.5-0.3c0.1-0.1,0.1-0.2,0-0.2l-0.4-0.2
						c-0.1-0.1-0.3-0.1-0.4,0l-0.5,0.3C75.4,52.9,75.5,53,75.6,53.1z"/>
					<path class="st20" d="M76.4,52.6l0.4,0.2c0.1,0.1,0.3,0.1,0.4,0l0.5-0.3c0.1-0.1,0.1-0.2,0-0.2l-0.4-0.2
						c-0.1-0.1-0.3-0.1-0.4,0l-0.5,0.3C76.3,52.4,76.3,52.5,76.4,52.6z"/>
					<path class="st20" d="M72.1,56.2l0.4,0.2c0.1,0.1,0.3,0.1,0.4,0l0.5-0.3c0.1-0.1,0.1-0.2,0-0.2L73,55.7c-0.1-0.1-0.3-0.1-0.4,0
						L72.1,56C72,56,72,56.1,72.1,56.2z"/>
					<path class="st20" d="M73,55.7l0.4,0.2c0.1,0.1,0.3,0.1,0.4,0l0.5-0.3c0.1-0.1,0.1-0.2,0-0.2l-0.4-0.2c-0.1-0.1-0.3-0.1-0.4,0
						l-0.5,0.3C72.8,55.5,72.9,55.6,73,55.7z"/>
					<path class="st20" d="M73.8,55.2l0.4,0.2c0.1,0.1,0.3,0.1,0.4,0l0.5-0.3c0.1-0.1,0.1-0.2,0-0.2l-0.4-0.2
						c-0.1-0.1-0.3-0.1-0.4,0L73.8,55C73.7,55.1,73.7,55.2,73.8,55.2z"/>
					<path class="st20" d="M74.6,54.7l0.4,0.2c0.1,0.1,0.3,0.1,0.4,0l0.5-0.3c0.1-0.1,0.1-0.2,0-0.2l-0.4-0.2
						c-0.1-0.1-0.3-0.1-0.4,0l-0.5,0.3C74.5,54.6,74.5,54.7,74.6,54.7z"/>
					<path class="st20" d="M75.5,54.3l0.4,0.2c0.1,0.1,0.3,0.1,0.4,0l0.5-0.3c0.1-0.1,0.1-0.2,0-0.2l-0.4-0.2
						c-0.1-0.1-0.3-0.1-0.4,0L75.4,54C75.3,54.1,75.4,54.2,75.5,54.3z"/>
					<path class="st20" d="M76.9,54.6l0.4,0.2c0.1,0.1,0.3,0.1,0.4,0l0.5-0.3c0.1-0.1,0.1-0.2,0-0.2l-0.4-0.2
						c-0.1-0.1-0.3-0.1-0.4,0l-0.5,0.3C76.7,54.4,76.7,54.5,76.9,54.6z"/>
					<path class="st20" d="M79.3,54.3l0.4,0.2c0.1,0.1,0.3,0.1,0.4,0l0.5-0.3c0.1-0.1,0.1-0.2,0-0.2l-0.4-0.2
						c-0.1-0.1-0.3-0.1-0.4,0L79.3,54C79.2,54.1,79.2,54.2,79.3,54.3z"/>
					<path class="st20" d="M68.8,59.2l0.4,0.2c0.1,0.1,0.3,0.1,0.4,0l1-0.6c0.1-0.1,0.1-0.2,0-0.2l-0.4-0.2c-0.1-0.1-0.3-0.1-0.4,0
						l-1,0.6C68.7,59,68.7,59.1,68.8,59.2z"/>
					<path class="st20" d="M76.4,53.8l0.4,0.2c0.1,0.1,0.3,0.1,0.4,0l1.5-0.9c0.1-0.1,0.1-0.2,0-0.2l-0.4-0.2
						c-0.1-0.1-0.3-0.1-0.4,0l-1.5,0.9C76.2,53.6,76.2,53.7,76.4,53.8z"/>
					<path class="st20" d="M69.5,56.6l0.4,0.2c0.1,0.1,0.3,0.1,0.4,0l4.9-2.8c0.1-0.1,0.1-0.2,0-0.2l-0.4-0.2
						c-0.1-0.1-0.3-0.1-0.4,0l-4.9,2.8C69.3,56.5,69.3,56.6,69.5,56.6z"/>
					<path class="st20" d="M67.9,58.6l0.4,0.2c0.1,0.1,0.3,0.1,0.4,0l1.3-0.7c0.1-0.1,0.1-0.2,0-0.2l-0.4-0.2
						c-0.1-0.1-0.3-0.1-0.4,0l-1.3,0.7C67.7,58.5,67.8,58.6,67.9,58.6z"/>
					<path class="st20" d="M77.7,54.1l0.4,0.2c0.1,0.1,0.3,0.1,0.4,0l1.1-0.7c0.1-0.1,0.1-0.2,0-0.2l-0.4-0.2
						c-0.1-0.1-0.3-0.1-0.4,0l-1.1,0.7C77.6,53.9,77.6,54,77.7,54.1z"/>
				</g>
				<g>
					<path class="st21" d="M71.2,59.8l-0.5,0.3c-0.1,0-0.1,0.1,0,0.2l0.4,0.2c0.1,0.1,0.2,0.1,0.3,0l0.5-0.3c0.1,0,0.1-0.1,0-0.2
						l-0.4-0.2C71.4,59.7,71.3,59.7,71.2,59.8z"/>
					<path class="st21" d="M72.2,59.2l-0.5,0.3c-0.1,0-0.1,0.1,0,0.2l0.4,0.2c0.1,0.1,0.2,0.1,0.3,0l0.5-0.3c0.1,0,0.1-0.1,0-0.2
						l-0.4-0.2C72.4,59.2,72.3,59.2,72.2,59.2z"/>
					<path class="st21" d="M73.1,58.7L72.7,59c-0.1,0-0.1,0.1,0,0.2l0.4,0.2c0.1,0,0.2,0.1,0.3,0l0.5-0.3c0.1,0,0.1-0.1,0-0.2
						l-0.4-0.2C73.3,58.7,73.2,58.6,73.1,58.7z"/>
					<path class="st21" d="M74.1,58.1l-0.5,0.3c-0.1,0-0.1,0.1,0,0.2l0.4,0.2c0.1,0,0.2,0.1,0.3,0l0.5-0.3c0.1,0,0.1-0.1,0-0.2
						l-0.4-0.2C74.3,58.1,74.2,58.1,74.1,58.1z"/>
					<path class="st21" d="M75,57.6l-0.5,0.3c-0.1,0-0.1,0.1,0,0.2l0.4,0.2c0.1,0,0.2,0.1,0.3,0l0.5-0.3c0.1,0,0.1-0.1,0-0.2
						l-0.4-0.2C75.2,57.6,75.1,57.5,75,57.6z"/>
					<path class="st21" d="M76,57l-0.5,0.3c-0.1,0-0.1,0.1,0,0.2l0.4,0.2c0.1,0.1,0.2,0.1,0.3,0l0.5-0.3c0.1,0,0.1-0.1,0-0.2
						l-0.4-0.2C76.2,57,76.1,57,76,57z"/>
					<path class="st21" d="M76.9,56.5l-0.5,0.3c-0.1,0-0.1,0.1,0,0.2l0.4,0.2c0.1,0.1,0.2,0.1,0.3,0l0.5-0.3c0.1,0,0.1-0.1,0-0.2
						l-0.4-0.2C77.1,56.5,77,56.5,76.9,56.5z"/>
					<path class="st21" d="M77.9,55.9l-0.5,0.3c-0.1,0-0.1,0.1,0,0.2l0.4,0.2c0.1,0.1,0.2,0.1,0.3,0l0.5-0.3c0.1,0,0.1-0.1,0-0.2
						L78.2,56C78.1,55.9,78,55.9,77.9,55.9z"/>
					<path class="st21" d="M78.8,55.4l-0.5,0.3c-0.1,0-0.1,0.1,0,0.2l0.4,0.2c0.1,0.1,0.2,0.1,0.3,0l0.5-0.3c0.1,0,0.1-0.1,0-0.2
						l-0.4-0.2C79,55.4,78.9,55.4,78.8,55.4z"/>
					<path class="st21" d="M79.8,54.8l-0.5,0.3c-0.1,0-0.1,0.1,0,0.2l0.4,0.2c0.1,0,0.2,0.1,0.3,0l0.5-0.3c0.1,0,0.1-0.1,0-0.2
						l-0.4-0.2C80,54.8,79.9,54.8,79.8,54.8z"/>
					<path class="st21" d="M80.7,54.3l-0.5,0.3c-0.1,0-0.1,0.1,0,0.2l0.4,0.2c0.1,0.1,0.2,0.1,0.3,0l0.5-0.3c0.1,0,0.1-0.1,0-0.2
						L81,54.3C80.9,54.3,80.8,54.3,80.7,54.3z"/>
					<path class="st21" d="M70.5,59.1l-0.8,0.4c-0.1,0-0.1,0.1,0,0.2l0.4,0.2c0.1,0.1,0.2,0.1,0.3,0l0.8-0.4c0.1,0,0.1-0.1,0-0.2
						l-0.4-0.2C70.8,59,70.6,59,70.5,59.1z"/>
					<path class="st21" d="M71.4,58.6l-0.5,0.3c-0.1,0-0.1,0.1,0,0.2l0.4,0.2c0.1,0.1,0.2,0.1,0.3,0l0.5-0.3c0.1,0,0.1-0.1,0-0.2
						l-0.4-0.2C71.6,58.5,71.5,58.5,71.4,58.6z"/>
					<path class="st21" d="M72.3,58.1l-0.5,0.3c-0.1,0-0.1,0.1,0,0.2l0.4,0.2c0.1,0,0.2,0.1,0.3,0l0.5-0.3c0.1,0,0.1-0.1,0-0.2
						l-0.4-0.2C72.5,58,72.3,58,72.3,58.1z"/>
					<path class="st21" d="M73.1,57.6l-0.5,0.3c-0.1,0-0.1,0.1,0,0.2l0.4,0.2c0.1,0.1,0.2,0.1,0.3,0l0.5-0.3c0.1,0,0.1-0.1,0-0.2
						l-0.4-0.2C73.3,57.6,73.2,57.6,73.1,57.6z"/>
					<path class="st21" d="M73.9,57.1l-0.5,0.3c-0.1,0-0.1,0.1,0,0.2l0.4,0.2c0.1,0.1,0.2,0.1,0.3,0l0.5-0.3c0.1,0,0.1-0.1,0-0.2
						l-0.4-0.2C74.1,57.1,74,57.1,73.9,57.1z"/>
					<path class="st21" d="M74.8,56.6l-0.5,0.3c-0.1,0-0.1,0.1,0,0.2l0.4,0.2c0.1,0,0.2,0.1,0.3,0l0.5-0.3c0.1,0,0.1-0.1,0-0.2
						l-0.4-0.2C75,56.6,74.9,56.6,74.8,56.6z"/>
					<path class="st21" d="M75.6,56.1l-0.5,0.3c-0.1,0-0.1,0.1,0,0.2l0.4,0.2c0.1,0.1,0.2,0.1,0.3,0l0.5-0.3c0.1,0,0.1-0.1,0-0.2
						l-0.4-0.2C75.8,56.1,75.7,56.1,75.6,56.1z"/>
					<path class="st21" d="M76.5,55.7L76,55.9c-0.1,0-0.1,0.1,0,0.2l0.4,0.2c0.1,0.1,0.2,0.1,0.3,0l0.5-0.3c0.1,0,0.1-0.1,0-0.2
						l-0.4-0.2C76.7,55.6,76.5,55.6,76.5,55.7z"/>
					<path class="st21" d="M77.3,55.2l-0.5,0.3c-0.1,0-0.1,0.1,0,0.2l0.4,0.2c0.1,0.1,0.2,0.1,0.3,0l0.5-0.3c0.1,0,0.1-0.1,0-0.2
						l-0.4-0.2C77.5,55.1,77.4,55.1,77.3,55.2z"/>
					<path class="st21" d="M78.1,54.7L77.7,55c-0.1,0-0.1,0.1,0,0.2l0.4,0.2c0.1,0.1,0.2,0.1,0.3,0l0.5-0.3c0.1,0,0.1-0.1,0-0.2
						l-0.4-0.2C78.3,54.6,78.2,54.6,78.1,54.7z"/>
					<path class="st21" d="M79,54.2l-0.5,0.3c-0.1,0-0.1,0.1,0,0.2l0.4,0.2c0.1,0.1,0.2,0.1,0.3,0l0.5-0.3c0.1,0,0.1-0.1,0-0.2
						l-0.4-0.2C79.2,54.2,79.1,54.2,79,54.2z"/>
					<path class="st21" d="M70.6,57.9l-0.5,0.3c-0.1,0-0.1,0.1,0,0.2l0.4,0.2c0.1,0.1,0.2,0.1,0.3,0l0.5-0.3c0.1,0,0.1-0.1,0-0.2
						l-0.4-0.2C70.8,57.9,70.7,57.9,70.6,57.9z"/>
					<path class="st21" d="M71.5,57.4L71,57.7c-0.1,0-0.1,0.1,0,0.2l0.4,0.2c0.1,0,0.2,0.1,0.3,0l0.5-0.3c0.1,0,0.1-0.1,0-0.2
						l-0.4-0.2C71.7,57.4,71.5,57.4,71.5,57.4z"/>
					<path class="st21" d="M72.3,56.9l-0.5,0.3c-0.1,0-0.1,0.1,0,0.2l0.4,0.2c0.1,0.1,0.2,0.1,0.3,0l0.5-0.3c0.1,0,0.1-0.1,0-0.2
						l-0.4-0.2C72.5,56.9,72.4,56.9,72.3,56.9z"/>
					<path class="st21" d="M73.1,56.5l-0.5,0.3c-0.1,0-0.1,0.1,0,0.2l0.4,0.2c0.1,0,0.2,0.1,0.3,0l0.5-0.3c0.1,0,0.1-0.1,0-0.2
						l-0.4-0.2C73.3,56.4,73.2,56.4,73.1,56.5z"/>
					<path class="st21" d="M74,56l-0.5,0.3c-0.1,0-0.1,0.1,0,0.2l0.4,0.2c0.1,0,0.2,0.1,0.3,0l0.5-0.3c0.1,0,0.1-0.1,0-0.2L74.3,56
						C74.2,55.9,74,55.9,74,56z"/>
					<path class="st21" d="M74.8,55.5l-0.5,0.3c-0.1,0-0.1,0.1,0,0.2l0.4,0.2c0.1,0.1,0.2,0.1,0.3,0l0.5-0.3c0.1,0,0.1-0.1,0-0.2
						l-0.4-0.2C75,55.5,74.9,55.4,74.8,55.5z"/>
					<path class="st21" d="M75.6,55l-0.5,0.3c-0.1,0-0.1,0.1,0,0.2l0.4,0.2c0.1,0,0.2,0.1,0.3,0l0.5-0.3c0.1,0,0.1-0.1,0-0.2
						L75.9,55C75.8,55,75.7,55,75.6,55z"/>
					<path class="st21" d="M76.5,54.5L76,54.8c-0.1,0-0.1,0.1,0,0.2l0.4,0.2c0.1,0,0.2,0.1,0.3,0l0.5-0.3c0.1,0,0.1-0.1,0-0.2
						l-0.4-0.2C76.7,54.5,76.6,54.5,76.5,54.5z"/>
					<path class="st21" d="M70.1,57.1l-0.5,0.3c-0.1,0-0.1,0.1,0,0.2l0.4,0.2c0.1,0.1,0.2,0.1,0.3,0l0.5-0.3c0.1,0,0.1-0.1,0-0.2
						l-0.4-0.2C70.3,57.1,70.2,57.1,70.1,57.1z"/>
					<path class="st21" d="M70.9,56.6l-0.5,0.3c-0.1,0-0.1,0.1,0,0.2l0.4,0.2c0.1,0,0.2,0.1,0.3,0l0.5-0.3c0.1,0,0.1-0.1,0-0.2
						l-0.4-0.2C71.1,56.6,71,56.6,70.9,56.6z"/>
					<path class="st21" d="M71.8,56.1l-0.5,0.3c-0.1,0-0.1,0.1,0,0.2l0.4,0.2c0.1,0,0.2,0.1,0.3,0l0.5-0.3c0.1,0,0.1-0.1,0-0.2
						L72,56.1C72,56.1,71.8,56.1,71.8,56.1z"/>
					<path class="st21" d="M67.3,57.6l-0.5,0.3c-0.1,0-0.1,0.1,0,0.2l0.4,0.2c0.1,0,0.2,0.1,0.3,0l0.5-0.3c0.1,0,0.1-0.1,0-0.2
						l-0.4-0.2C67.6,57.5,67.4,57.5,67.3,57.6z"/>
					<path class="st21" d="M68.2,57.1l-0.5,0.3c-0.1,0-0.1,0.1,0,0.2l0.4,0.2c0.1,0,0.2,0.1,0.3,0l0.5-0.3c0.1,0,0.1-0.1,0-0.2
						l-0.4-0.2C68.4,57,68.3,57,68.2,57.1z"/>
					<path class="st21" d="M69,56.6l-0.5,0.3c-0.1,0-0.1,0.1,0,0.2l0.4,0.2c0.1,0.1,0.2,0.1,0.3,0l0.5-0.3c0.1,0,0.1-0.1,0-0.2
						l-0.4-0.2C69.2,56.6,69.1,56.6,69,56.6z"/>
					<g>
						<path class="st21" d="M75.2,53l-0.5,0.3c-0.1,0-0.1,0.1,0,0.2l0.4,0.2c0.1,0.1,0.2,0.1,0.3,0l0.5-0.3c0.1,0,0.1-0.1,0-0.2
							L75.5,53C75.4,53,75.3,53,75.2,53z"/>
						<path class="st21" d="M76,52.5l-0.5,0.3c-0.1,0-0.1,0.1,0,0.2l0.4,0.2c0.1,0,0.2,0.1,0.3,0l0.5-0.3c0.1,0,0.1-0.1,0-0.2
							l-0.4-0.2C76.2,52.5,76.1,52.5,76,52.5z"/>
						<path class="st21" d="M76.9,52.1l-0.5,0.3c-0.1,0-0.1,0.1,0,0.2l0.4,0.2c0.1,0.1,0.2,0.1,0.3,0l0.5-0.3c0.1,0,0.1-0.1,0-0.2
							l-0.4-0.2C77.1,52,76.9,52,76.9,52.1z"/>
					</g>
					<path class="st21" d="M72.6,55.7l-0.5,0.3c-0.1,0-0.1,0.1,0,0.2l0.4,0.2c0.1,0,0.2,0.1,0.3,0l0.5-0.3c0.1,0,0.1-0.1,0-0.2
						l-0.4-0.2C72.8,55.6,72.7,55.6,72.6,55.7z"/>
					<path class="st21" d="M73.4,55.2L73,55.4c-0.1,0-0.1,0.1,0,0.2l0.4,0.2c0.1,0,0.2,0.1,0.3,0l0.5-0.3c0.1,0,0.1-0.1,0-0.2
						l-0.4-0.2C73.6,55.1,73.5,55.1,73.4,55.2z"/>
					<path class="st21" d="M74.3,54.7L73.8,55c-0.1,0-0.1,0.1,0,0.2l0.4,0.2c0.1,0,0.2,0.1,0.3,0l0.5-0.3c0.1,0,0.1-0.1,0-0.2
						l-0.4-0.2C74.5,54.7,74.3,54.6,74.3,54.7z"/>
					<path class="st21" d="M75.1,54.2l-0.5,0.3c-0.1,0-0.1,0.1,0,0.2l0.4,0.2c0.1,0.1,0.2,0.1,0.3,0l0.5-0.3c0.1,0,0.1-0.1,0-0.2
						l-0.4-0.2C75.3,54.2,75.2,54.2,75.1,54.2z"/>
					<path class="st21" d="M75.9,53.7L75.5,54c-0.1,0-0.1,0.1,0,0.2l0.4,0.2c0.1,0,0.2,0.1,0.3,0l0.5-0.3c0.1,0,0.1-0.1,0-0.2
						l-0.4-0.2C76.1,53.7,76,53.7,75.9,53.7z"/>
					<path class="st21" d="M77.3,54l-0.5,0.3c-0.1,0-0.1,0.1,0,0.2l0.4,0.2c0.1,0,0.2,0.1,0.3,0l0.5-0.3c0.1,0,0.1-0.1,0-0.2
						l-0.4-0.2C77.5,54,77.4,54,77.3,54z"/>
					<path class="st21" d="M79.8,53.7L79.3,54c-0.1,0-0.1,0.1,0,0.2l0.4,0.2c0.1,0.1,0.2,0.1,0.3,0l0.5-0.3c0.1,0,0.1-0.1,0-0.2
						l-0.4-0.2C80,53.7,79.8,53.7,79.8,53.7z"/>
					<path class="st21" d="M69.8,58.4l-1,0.6c-0.1,0-0.1,0.1,0,0.2l0.4,0.2c0.1,0.1,0.2,0.1,0.3,0l1-0.6c0.1,0,0.1-0.1,0-0.2
						l-0.4-0.2C70,58.3,69.9,58.3,69.8,58.4z"/>
					<path class="st21" d="M77.8,52.6l-1.5,0.9c-0.1,0-0.1,0.1,0,0.2l0.4,0.2c0.1,0.1,0.2,0.1,0.3,0l1.5-0.9c0.1,0,0.1-0.1,0-0.2
						l-0.4-0.2C78,52.6,77.9,52.6,77.8,52.6z"/>
					<path class="st21" d="M74.3,53.6l-4.9,2.8c-0.1,0-0.1,0.1,0,0.2l0.4,0.2c0.1,0,0.2,0.1,0.3,0L75,54c0.1,0,0.1-0.1,0-0.2
						l-0.4-0.2C74.5,53.5,74.4,53.5,74.3,53.6z"/>
					<path class="st21" d="M69.1,57.7l-1.3,0.7c-0.1,0-0.1,0.1,0,0.2l0.4,0.2c0.1,0.1,0.2,0.1,0.3,0l1.3-0.7c0.1,0,0.1-0.1,0-0.2
						l-0.4-0.2C69.3,57.6,69.2,57.6,69.1,57.7z"/>
					<path class="st21" d="M78.8,53.2l-1.1,0.6c-0.1,0-0.1,0.1,0,0.2l0.4,0.2c0.1,0.1,0.2,0.1,0.3,0l1.1-0.6c0.1,0,0.1-0.1,0-0.2
						l-0.4-0.2C79,53.1,78.9,53.1,78.8,53.2z"/>
				</g>
			</g>
			<g>
				<path class="st19" d="M72.2,61.4l11-6.7c0.1-0.1,0.2-0.2,0.2-0.3l0.2-8.4c0-0.1-0.3-0.3-0.4-0.2L72,52.3
					c-0.1,0.1-0.2,0.2-0.2,0.3v8.5C71.8,61.2,72.1,61.5,72.2,61.4z"/>
				<path class="st22" d="M72.2,61.4l11.2-6.5c0.1-0.1,0.2-0.2,0.2-0.3v-8.5c0-0.1-0.1-0.2-0.2-0.1l-11.2,6.5
					c-0.1,0.1-0.2,0.2-0.2,0.3v8.5C72,61.4,72.1,61.4,72.2,61.4z"/>
			</g>
		</g>
	</g>
</g>
</svg>
