<?xml version="1.0" encoding="utf-8"?>
<!-- Generator: Adobe Illustrator 23.1.1, SVG Export Plug-In . SVG Version: 6.00 Build 0)  -->
<svg version="1.1" id="Capa_1" xmlns="http://www.w3.org/2000/svg" xmlns:xlink="http://www.w3.org/1999/xlink" x="0px" y="0px"
	 viewBox="0 0 100 100" style="enable-background:new 0 0 100 100;" xml:space="preserve">
<style type="text/css">
	.st0{fill:#98301C;}
	.st1{fill:#689F7E;}
	.st2{fill:#6B68A6;}
	.st3{fill:#5B5C9E;}
	.st4{fill:#AFAFD3;}
	.st5{fill:#D1AC85;}
	.st6{fill:#4C765E;}
	.st7{fill:#ECCC8F;}
	.st8{fill:#E3B5AC;}
	.st9{fill:#8E4E3C;}
	.st10{fill:#DCAA53;}
	.st11{fill:#DC9F90;}
	.st12{fill:#FFFFFF;}
	.st13{fill:#8F4C3C;}
	.st14{fill:#3F6A83;}
	.st15{fill:#38396A;}
	.st16{fill:#7D3C2F;}
	.st17{fill:#B3D6E1;}
	.st18{fill:#EBC695;}
	.st19{fill:#894B4B;}
	.st20{fill:#1E1D48;}
	.st21{fill:#7A3F3F;}
	.st22{fill:#CC7B50;}
	.st23{fill:#955959;}
	.st24{fill:#1C1A45;}
	.st25{fill:#BAC1C7;}
	.st26{fill:#577E6D;}
	.st27{fill:#4D735F;}
	.st28{fill:#F8F9FB;}
	.st29{fill:#A06564;}
	.st30{fill:#0B090C;}
	.st31{fill:#C4C4DC;}
	.st32{fill:#DCDDEC;}
	.st33{fill:#EBCABA;}
	.st34{fill:#F1F1F0;}
	.st35{fill:#6E2F26;}
	.st36{fill:#DAAC75;}
	.st37{fill:#383E75;}
	.st38{fill:#474F83;}
	.st39{fill:#16193B;}
	.st40{fill:#5A1E25;}
	.st41{fill:#703437;}
	.st42{fill:#682D30;}
	.st43{fill:#B5928B;}
	.st44{fill:#713437;}
	.st45{fill:#EBEBF5;}
	.st46{fill:#803A2C;}
	.st47{fill:#9C5546;}
</style>
<g>
	<g>
		<g>
			<g>
				<g>
					<g>
						<g>
							<path class="st0" d="M80.4,47.3l-1.7-11.8c-0.1-1-1-1.4-2-0.8L72,37.5c-1,0.6-1.8,1.9-2,3.1l-1.6,13.3c0,0.3,0.3,0.6,0.6,0.4
								c0.2-0.1,0.3-0.2,0.3-0.4l1.6-13.5c0.1-0.9,0.7-1.8,1.4-2.2l4.3-2.5c0.7-0.4,1.3-0.2,1.4,0.6l1.6,11.3c0,0.3,0.4,0.5,0.6,0.3
								C80.2,47.8,80.5,47.6,80.4,47.3z"/>
							<path class="st1" d="M82.4,21.9c0.1,0.4,0,0.5-0.5,1.3c-0.5,0.8-0.8,2.7-1,3.9c-0.2,1.7-0.6,4.6-0.8,5.7
								c0,0.2-0.2,0.5-0.4,0.5l-0.4,0c-0.1,0-0.2-0.1-0.2-0.3c0.2-1.5,1.2-8.5,1.6-9.3C81.2,22.7,82.3,21.6,82.4,21.9z"/>
							<path class="st2" d="M89.4,40c0.6-0.3-9.3-5.4-9.7-5.7c-0.2-0.1-0.6-0.3-0.9-0.2c-0.7,0.4-9,5-10,5.8c-1,0.8-2.2,3.8-1.7,3.9
								c0.5,0.2,9.7,7.5,10.6,5.8C79,47,87.3,41.3,89.4,40z"/>
						</g>
						<path class="st2" d="M90,38.8L89.5,39c0,0-0.6-2.3-3.7-3.9c-3-1.7-5.7-1.7-6.1-1.7c-0.4,0-0.5-0.3-0.5-0.3l2.1-9.9l1-1.2
							c0,0,3.3,0.5,6.2,1.9c2.9,1.5,4.1,4,4.1,4s-2,3.9-1.9,4.7C90.8,33.2,90,38.8,90,38.8z"/>
						<path class="st3" d="M92.7,27.9c0.1,0.4,0,0.5-0.5,1.3c-0.5,0.8-0.8,2.7-1,3.9c-0.2,1.7-0.6,4.6-0.8,5.7
							c0,0.2-0.2,0.5-0.4,0.5l-0.4,0c-0.1,0-0.2-0.1-0.2-0.3c0.2-1.5,1.2-8.5,1.6-9.3C91.5,28.7,92.6,27.5,92.7,27.9z"/>
					</g>
					<g>
						<path class="st3" d="M88.5,42c0.6-0.3,1-1.2,0.9-1.8c0-0.2-0.2-0.3-0.4-0.2c-0.7,0.4-9,5-10,5.8c-1,0.8-2.2,3.8-1.7,3.9
							c0.5,0.2,0.5-1.2,2.1-2.3C80.8,46.5,86.4,43.3,88.5,42z"/>
						<path class="st4" d="M90.6,53.7c0.1-0.1,0.1-0.2,0.1-0.3L89,41.5c-0.1-1-1-1.4-2-0.8l-4.8,2.8c-1,0.6-1.8,1.9-2,3.1L78.6,60
							c0,0.3,0.3,0.5,0.5,0.3l0.3-0.1c0.1,0,0.1-0.1,0.1-0.2l1.6-13.7c0.1-0.9,0.7-1.8,1.4-2.2l4.3-2.5c0.7-0.4,1.3-0.2,1.4,0.6
							l1.6,11.4c0,0.2,0.3,0.4,0.5,0.2L90.6,53.7z"/>
					</g>
					<g>
						<g>
							<path class="st5" d="M81.1,37c-0.6,0.8-9.7,7.2-9.7,7.2s1.4,1.9,1.6,3c0.2,1-0.6,6.3-0.3,7.3c0.3,1,0.7,1.2,0.7,1.6
								c0,0.5-0.6,1.1-1.2,1.4c-0.6,0.2-0.4,0.5-1.3,1.1c-0.9,0.6-2.4,0.4-3.1,0.5c-0.7,0.1-0.4-0.8,1-1.9c1-0.8,1.7-1.7,2-2.2
								c0,0-2.9-9.2-3.6-12.3c-0.7-3.1,4.7-5.2,6.3-6.9c1.1-1.2,3.3-2.2,4.8-2.6c0,0,3,0.1,3.3,0.7C81.9,34.7,81.6,36.2,81.1,37z"/>
							<path class="st6" d="M73.3,56.1c0,0.5-0.6,1.1-1.2,1.4c-0.6,0.2-0.4,0.5-1.3,1.1c-0.9,0.6-2.9,1-3.3,0.7
								c-0.6-0.3-0.1-1,1.3-2.1c0.1-0.1,0.5-0.4,0.6-0.5c0,0,0,0.8,0.8,0.6c0.8-0.2,2.5-1.5,2.6-1.9c0.1-0.3,0-0.5,0-0.6
								C73,55.6,73.3,55.7,73.3,56.1z"/>
							<path class="st5" d="M83.8,40.7c-2.4,1.8-9.8,3.1-9.8,3.1s0.4,1.6,0.7,3.2c0.2,1.6-1,8.5-1.1,8.7c-0.1,0.2,0.3,1.4,0.1,1.8
								c-0.2,0.5-0.6,1.6-1.4,2.4c-0.9,0.8-1.2,0.9-1.9,1c-0.7,0.1-2.4,0.3-1.6-1.1c0.6-0.9,2.4-2.2,2.7-3.7
								c0.4-1.6-1.6-11.3-1.8-12.8c-0.2-1.4,8.6-7,8.6-7c0.9-0.6,1.5-2.8,1.5-2.8l4.1-1.7C83.8,32,87.8,37.6,83.8,40.7z"/>
							<path class="st6" d="M73.6,57.5c-0.2,0.5-0.6,1.6-1.4,2.4c-0.9,0.8-1.2,0.9-1.9,1c-0.7,0.1-2.4,0.3-1.6-1.1
								c0.3-0.5,0.9-1,1.5-1.6c0,0-0.4,1.1,0.7,0.5c2.9-1.7,2.7-2.6,2.7-2.7C73.6,56.5,73.7,57.2,73.6,57.5z"/>
						</g>
						<path class="st7" d="M76.9,20.6c0,0-1.1-0.5-2,0.5c-0.8,0.8-0.4,2.4-1.2,3.4c-0.8,1-0.8,1.7-1.1,2.8c-0.2,1.1,0.9,1.8,1.9,1
							c1-0.8,0.5-3.4,1.8-4.4C77.4,22.7,76.9,20.6,76.9,20.6z"/>
						<path class="st6" d="M76.2,32.4c0,0-14.5,8.1-9.1,10.3c1.1,0.4,8,0.7,13.4-0.3c4.7-0.9,5.1-3.4,5.1-5.2c0-1.8-3-5.4-5.7-5.6
							C77.2,31.5,76.2,32.4,76.2,32.4z"/>
						<path class="st8" d="M84,33c0,0,0,1-2,2c-2,1-5.1-0.6-5.8-1.6c-0.7-1,0-1.7-0.5-3c-0.5-1.2-1.2-1.9-1.6-2.7
							c-0.4-0.7,0.4-3.4,0.9-4.9c0.5-1.5,2.3-2.3,2.4-2.4c2.7-0.4,4.9,1,6.5,3.2c0.8,1.2-0.8,3.9-1.1,5.4C82.6,30.5,84,33,84,33z"/>
						<path class="st9" d="M75.3,15.4c-0.2,0.7,0.2,1.5,0.2,1.5s-0.1-0.5,0.1-0.7c0.2-0.2,0.6-0.4,0.6-0.4s1.2,3.1,2.3,3.1
							c1,0.1,2.1-0.7,2.1-0.7s-0.5,0.7-0.4,1.2c0,0.5-0.1,0.7,0.4,0.9c1.1,0.4,2.2-0.3,2.2-0.3s2.3-1.4,0.7-3.7
							c-0.5-0.7-1.6-2.7-2.3-3.1s-1.5-0.1-1.5-0.1S79,12.6,77.2,13c-1.8,0.4-1.7,1.8-1.7,1.8S75.5,14.7,75.3,15.4z"/>
						<path class="st10" d="M84,33c0,0,0,1-2,2c-2,1-5.1-0.6-5.8-1.6c-0.7-1,0-1.7-0.5-3c-0.5-1.2-1.4-2-1.8-2.7
							c-0.4-0.7,0.7-3.6,1.2-5.1c1-3.2,2.2-2.1,2.3-2.1c0,0-1.6,1.1-1.8,3.1c-0.2,2,0.2,2.5,0.2,2.5s0.3-0.7,1.9-1.4
							c1.5-0.7,3.5-1.8,3.5-2.5c0-0.6-0.3-1.1-0.3-1.1c1.5,0.7,2.5,2,3,2.7c0.8,1.2-0.8,3.9-1.1,5.4C82.6,30.5,84,33,84,33z"/>
						<path class="st11" d="M76.6,19.2c0,0,1.5,1.3,0.8,2.6c-0.7,1.3,1,1.2,2.2,0.6c1.2-0.6,1.2-1.4,1.2-1.4s-0.4-0.6-0.5-1
							c-0.1-0.4,0.1-1.6,0.1-1.6L76.6,19.2z"/>
						<g>
							<path class="st12" d="M77.1,19.7c-0.2,0.1-0.4,0.1-0.5-0.1c-0.1-0.1-0.1-0.3,0-0.5c0.1-0.1,0.4-0.1,0.5,0
								C77.3,19.4,77.2,19.6,77.1,19.7z"/>
							<path class="st12" d="M77.3,20.4c-0.2,0-0.4-0.1-0.4-0.2c-0.1-0.1,0-0.3,0.2-0.4c0.2-0.1,0.4,0,0.5,0.2
								C77.6,20.1,77.5,20.3,77.3,20.4z"/>
							<path class="st12" d="M77.3,21.1c-0.2,0-0.3-0.2-0.3-0.3c0-0.1,0.1-0.3,0.3-0.3c0.2,0,0.4,0.1,0.4,0.3
								C77.7,21,77.5,21.1,77.3,21.1z"/>
							<path class="st12" d="M77.1,21.7c-0.2,0-0.2-0.3-0.2-0.5c0.1-0.1,0.2-0.2,0.4-0.2c0.2,0,0.3,0.3,0.2,0.5
								C77.4,21.8,77.3,21.8,77.1,21.7z"/>
							<path class="st12" d="M77.1,22.4c-0.1,0.1-0.2,0.1-0.3,0c0,0-0.1-0.1-0.1-0.1c0-0.1,0-0.1-0.1-0.2c0-0.3,0.2-0.4,0.4-0.4
								c0.2,0.1,0.3,0.2,0.3,0.3c0,0,0,0,0,0.1c0,0,0,0.1,0,0.1C77.2,22.3,77.2,22.3,77.1,22.4z"/>
							<path class="st12" d="M77.7,22.8c-0.1,0.2-0.3,0.3-0.5,0.1c-0.2-0.1-0.2-0.4-0.1-0.5c0.2-0.1,0.3-0.1,0.4,0
								C77.7,22.4,77.7,22.6,77.7,22.8z"/>
							<path class="st12" d="M78.4,22.9c0,0.2-0.2,0.3-0.4,0.3c-0.2,0-0.3-0.2-0.3-0.4c0.1-0.2,0.2-0.3,0.4-0.2
								C78.2,22.6,78.4,22.7,78.4,22.9z"/>
							<path class="st12" d="M79.1,22.9c0,0.2-0.1,0.4-0.3,0.4c-0.2,0-0.4-0.2-0.4-0.3c0-0.2,0.2-0.3,0.3-0.3
								C78.9,22.6,79,22.7,79.1,22.9z"/>
							<path class="st12" d="M79.7,22.7c0.1,0.2,0,0.4-0.2,0.5c-0.2,0.1-0.4-0.1-0.4-0.2c0-0.2,0.1-0.4,0.2-0.4
								C79.5,22.4,79.7,22.5,79.7,22.7z"/>
							<path class="st12" d="M80.3,22.3c0.1,0.1,0.1,0.4-0.1,0.5c-0.2,0.1-0.4,0.1-0.5-0.1c-0.1-0.2,0-0.4,0.1-0.5
								C80,22.1,80.2,22.1,80.3,22.3z"/>
							<path class="st12" d="M80.8,21.7c0.2,0.1,0.2,0.3,0.1,0.5c-0.2,0.2-0.4,0.2-0.5,0c-0.1-0.1-0.1-0.3,0-0.5
								C80.4,21.7,80.6,21.7,80.8,21.7z"/>
							<path class="st12" d="M81,21.1c0.2,0,0.3,0.2,0.3,0.4c-0.1,0.2-0.3,0.3-0.5,0.2c-0.2-0.1-0.3-0.3-0.2-0.4
								C80.6,21.2,80.8,21.1,81,21.1z"/>
							<path class="st12" d="M80.9,20.4c0.2-0.1,0.4,0.1,0.4,0.3c0,0.2-0.1,0.4-0.3,0.4c-0.2,0-0.3-0.2-0.4-0.3
								C80.6,20.6,80.7,20.4,80.9,20.4z"/>
							<path class="st12" d="M80.6,19.7c0.2-0.1,0.4,0,0.5,0.2c0.1,0.2,0,0.4-0.2,0.5c-0.2,0-0.4,0-0.4-0.2
								C80.4,20,80.4,19.8,80.6,19.7z"/>
						</g>
						<path class="st8" d="M75.9,15.7c0,0-0.3,1-0.2,1.2c0.1,0.2,0.2,0.4,0.1,0.6c-0.1,0.2-0.2,0.7-0.1,1.2c0.1,0.5,0.6,2,0.8,2.1
							c0.3,0.1,1.1,0.1,1.6-0.2c0.5-0.3,1.4-0.7,1.5-1s0.4-0.7,0.4-0.7s0.2,0.2,0.5,0c0.3-0.2,0.9-1,0.8-1.3
							c-0.1-0.3-0.4-0.4-0.4-0.4l-0.6,0.3c0,0-0.4,0.2-0.1,0.5c0.3,0.3,0.3,0.2,0.3,0.2s-0.6,0.1-0.9-0.2c-0.4-0.3-1.2-2.2-1.2-2.2
							s0,1,0.4,1.5c0.3,0.5,0.4,0.6,0.4,0.6s-0.9-0.1-1.3-0.5c-0.4-0.4-0.9-2.3-0.9-2.3S76,15.4,75.9,15.7z"/>
						<polygon class="st13" points="71.1,35 74.4,36.5 76.6,37 76.9,36.8 74.5,36.3 71.2,34.7 						"/>
						<polygon class="st14" points="74.4,36.5 76.8,37.1 76.9,36.8 74.5,36.3 						"/>
						<path class="st12" d="M71.2,34.7l4.1,1.1l2.4,1.1c0,0-3.1-0.7-3.2-0.7C74.4,36.2,71.2,34.7,71.2,34.7z"/>
						<path class="st8" d="M82,24.9c0,0-0.6,1.4,0,3.4c0.6,2,1.6,4.4,1.6,4.4s-2,1.1-2.7,2c-0.3,0.4-1.7,1.1-1.7,1.1
							s-1.1-0.5-1.6-0.5c-0.5,0.1-0.7,0.2-0.9,0.4c-0.4,0.5-1.2,0.5-1.2,0.6c0,0.1,0.7,0.4,1,0.2c0.3-0.3,0.8-0.2,0.9-0.1
							c0.1,0-0.7,0.5-0.7,0.5s-0.6,0.6-1,0.5c-0.4-0.1-1.1-0.1-1.1,0c0,0.1,1.3,0.6,1.5,0.6c0.2,0,3.1-0.4,4.4-0.9
							c1.4-0.5,4.4-2,4.9-3s-0.2-3.8-0.2-3.8s-0.1-6-1.5-6.2C82.6,23.7,82,24.9,82,24.9z"/>
						<path class="st11" d="M72.1,28.9c-0.1,0.4,0,1.4,0,1.6c-0.1,1.1-0.4,1.6-0.4,1.7c0,0.1,1.5,0,1.5,0s0.2-1.3,0.8-2.5
							c0.1-0.3,0.5-1.3,0.5-1.3s-0.7-0.9-1.3-0.9C72.5,27.3,72.3,27.7,72.1,28.9z"/>
						<path class="st11" d="M72,31.8l1.5,0.3c0,0,1,1,1,1.1c0,0.2,0,1.1,0,1.3c0,0.2-0.1,0.2-0.2,0c-0.1-0.2-0.2-0.9-0.2-0.9
							l-0.7-0.4l-0.2,1c0,0,0.7,0.4,0.7,0.5c0.1,0.1,0.1,0.2,0.1,0.2l-0.7-0.2c0,0-0.1,0-0.2,0c-0.1,0-0.2-0.1-0.2-0.1
							c-0.3,0-0.5-0.1-0.6-0.2c0,0-0.2,0-0.3-0.1c-0.1-0.1-0.4-2.3-0.4-2.3L72,31.8z"/>
						<g>
							<path class="st15" d="M72.5,32.8c-0.2-0.2-0.2-0.2-0.2-0.3c0-0.1,0.1-0.1,0.2-0.1l0.2,0.2C72.7,32.6,72.5,32.7,72.5,32.8z"/>
							<path class="st16" d="M74,34.8c-0.4-0.5-1.4-1.8-1.4-1.9c0-0.2,0.1-0.3,0.3-0.3c0.1,0,0.1,0.1,0.2,0.3c0.3,0.4,1,1.2,1.3,1.6
								c0,0,0.1,0.2,0,0.2c-0.1,0-0.1,0.1-0.2,0.1C74.1,34.9,73.9,34.7,74,34.8z"/>
							<path class="st16" d="M74.4,35.3L74,34.9c-0.1-0.1,0.2-0.4,0.3-0.3l0.3,0.4C74.6,34.9,74.3,35.2,74.4,35.3z"/>
							<path class="st16" d="M75,35.9c-0.2-0.2-0.5-0.4-0.7-0.6c-0.1-0.1,0.1-0.3,0.2-0.3c0.1,0,0.1,0,0.2,0.1
								c0.2,0.2,0.3,0.4,0.4,0.7C75.1,35.8,75,35.8,75,35.9C75,35.9,75,35.9,75,35.9z"/>
							<path class="st0" d="M75.1,36L75,35.9c0,0,0.1-0.1,0.1-0.1C75.1,35.8,75.1,35.8,75.1,36C75.2,35.9,75.1,36,75.1,36z"/>
							<path class="st0" d="M75.1,36C75.1,36,75.2,35.9,75.1,36C75.2,36,75.2,36,75.1,36C75.2,36,75.2,36,75.1,36
								C75.2,36.1,75.2,36,75.1,36z"/>
						</g>
						<path class="st16" d="M75.1,35.9c-0.1,0,0-0.1,0-0.1C75.2,35.8,75.1,35.9,75.1,35.9z"/>
						<path class="st14" d="M74.3,34.5l0.1,0.1c0.1,0.1-0.2,0.4-0.3,0.3l-0.1-0.1C74,34.9,74.4,34.6,74.3,34.5z"/>
						<path id="Axo_base_00000157275386623739679240000000611542976396269696_" class="st3" d="M72.6,32.5c0,0,0,0.1-0.1,0.2
							c0,0-0.1,0-0.1-0.1C72.4,32.5,72.5,32.4,72.6,32.5z"/>
						<path id="Axo_base_00000090292928304122885850000017174267370646869926_" class="st15" d="M72.7,32.6c0,0,0,0.1-0.1,0.2
							c0,0-0.1,0-0.1-0.1C72.5,32.6,72.7,32.6,72.7,32.6z"/>
						<g id="Axo_Extrusion_00000008836645071617259650000016865165938662744501_">
							<g id="Axo_Surface_x2A__00000137114445269327969650000017855022131723526299_">
								<path id="Axo_panel_00000060003627182034573760000018317417681125915539_" class="st17" d="M73.8,34.1c0,0-0.1-0.1-0.1-0.1
									l0.1-0.1c0,0,0.1,0.1,0.1,0.1L73.8,34.1z"/>
								<path id="Axo_panel_00000155109657433325676310000002677740166541769361_" class="st13" d="M73.7,34c0,0-0.7-1-0.8-1.1
									c-0.1-0.1-0.2-0.1-0.2-0.1l0.1-0.1c0,0,0.1,0,0.2,0.1c0.1,0.1,0.8,1.1,0.8,1.1L73.7,34z"/>
							</g>
							<path id="Axo_base_00000146489015137470094630000008280831014860055936_" class="st14" d="M73.7,34c0-0.1-0.6-0.9-0.7-0.9
								C72.9,33,72.9,33,72.9,33l-0.1-0.2c0,0,0.1,0,0.2,0.1C73,33,73.7,34,73.7,34C73.9,34.2,73.7,34.1,73.7,34z"/>
						</g>
						<path class="st6" d="M70.6,39.5c0,0-5,0.8-4.7,1.8c0.3,0.9,1.3,5.3,1.3,5.3s0.8,3.2,4.4,2.9c3.7-0.3,4.5-2,4.1-1.8
							s0-3.3,0-3.3l5.4-2.4C81.2,41.9,75.3,37.7,70.6,39.5z"/>
					</g>
				</g>
				<g>
					<g>
						<g>
							<g>
								<path class="st6" d="M43.4,44.3l1.7-11.8c0.1-1,1-1.4,2-0.8l4.8,2.8c1,0.6,1.8,1.9,2,3.1l1.6,13.3c0,0.3-0.3,0.6-0.6,0.4
									c-0.2-0.1-0.3-0.2-0.3-0.4L53,37.4c-0.1-0.9-0.7-1.8-1.4-2.2l-4.3-2.5c-0.7-0.4-1.3-0.2-1.4,0.6l-1.6,11.3
									c0,0.3-0.4,0.5-0.6,0.3C43.6,44.8,43.3,44.6,43.4,44.3z"/>
								<path class="st3" d="M41.4,18.9c-0.1,0.4,0,0.5,0.5,1.3c0.5,0.8,0.8,2.7,1,3.9c0.2,1.7,0.6,4.6,0.8,5.7
									c0,0.2,0.2,0.5,0.4,0.5l0.4,0c0.1,0,0.2-0.1,0.2-0.3c-0.2-1.5-1.2-8.5-1.6-9.3C42.6,19.7,41.4,18.6,41.4,18.9z"/>
								<path class="st2" d="M34.4,37c-0.6-0.3,9.3-5.4,9.7-5.7c0.2-0.1,0.6-0.3,0.9-0.2c0.7,0.4,9,5,10,5.8c1,0.8,2.2,3.8,1.7,3.9
									c-0.5,0.2-9.7,7.5-10.6,5.8C44.8,44,36.5,38.3,34.4,37z"/>
							</g>
							<path class="st2" d="M33.7,35.8l0.5,0.2c0,0,0.6-2.3,3.7-3.9c3-1.7,5.7-1.7,6.1-1.7c0.4,0,0.5-0.3,0.5-0.3l-2.1-9.9l-1-1.2
								c0,0-3.3,0.5-6.2,1.9c-2.9,1.5-4.1,4-4.1,4s2,3.9,1.9,4.7C32.9,30.2,33.7,35.8,33.7,35.8z"/>
							<path class="st3" d="M31.1,24.9c-0.1,0.4,0,0.5,0.5,1.3c0.5,0.8,0.8,2.7,1,3.9c0.2,1.7,0.6,4.6,0.8,5.7
								c0,0.2,0.2,0.5,0.4,0.5l0.4,0c0.1,0,0.2-0.1,0.2-0.3c-0.2-1.5-1.2-8.5-1.6-9.3C32.3,25.7,31.2,24.5,31.1,24.9z"/>
						</g>
						<g>
							<path class="st3" d="M35.3,39c-0.6-0.3-1-1.2-0.9-1.8c0-0.2,0.2-0.3,0.4-0.2c0.7,0.4,9,5,10,5.8c1,0.8,2.2,3.8,1.7,3.9
								c-0.5,0.2-0.5-1.2-2.1-2.3C43,43.5,37.4,40.3,35.3,39z"/>
							<path class="st4" d="M33.2,50.7c-0.1-0.1-0.1-0.2-0.1-0.3l1.7-11.9c0.1-1,1-1.4,2-0.8l4.8,2.8c1,0.6,1.8,1.9,2,3.1L45.2,57
								c0,0.3-0.3,0.5-0.5,0.3l-0.3-0.1c-0.1,0-0.1-0.1-0.1-0.2l-1.6-13.7c-0.1-0.9-0.7-1.8-1.4-2.2L37,38.6
								c-0.7-0.4-1.3-0.2-1.4,0.6L34,50.6c0,0.2-0.3,0.4-0.5,0.2L33.2,50.7z"/>
						</g>
					</g>
					<g>
						<path class="st18" d="M47,47.2l-0.4-0.9c0,0-1.8-0.4-1.5,1.2c0.3,1.6,0.7,1.7,1,2.3c0.3,0.7-0.3,2,0.3,2.6
							c0.6,0.6,1.1,0.9,1.7,1.3c0.6,0.4,1.3-1.5,0.6-2c-0.7-0.6-0.4-0.3-0.5-0.7c-0.1-0.3-0.1-1.5-0.1-1.5L47,47.2z"/>
						<path class="st18" d="M52.5,51.2c0,0,1.5,2.2,2.4,2.5c0.9,0.3,2,1.9,0.9,2.2c-1,0.3-2.9,0.3-3.7-0.5c-0.8-0.7-0.8-1.4-1.4-1.4
							c-0.6,0-1.3-1-1.1-1.5c0.1-0.5,0.6-1.4,0.6-1.4H52.5z"/>
						<path class="st19" d="M48.3,30.9c0,0,2.3,1.4,4.1,3.9c1.8,2.5,3.4,5,3.4,6.1c-0.1,1.1-0.6,1.5-1.4,2c-0.8,0.5-5.3,4.2-5.7,4.5
							c-0.3,0.3-0.6,0.5-0.6,0.9c0,0.4,0.3,2.5,0,2.6c-0.3,0.1-0.5,0.4-0.9-0.7c-0.4-1.1-0.5-1.9-0.7-2.3c-0.7-1.4,0.2-1.8,0.2-1.8
							s0.2,0.1,0.7-0.2c0.6-0.4,1.4-2.3,2.5-3.5s1.8-1.5,1.8-1.5s-7.3-3.5-8.3-5.9C42.2,32.7,45.7,28.8,48.3,30.9z"/>
						<path class="st19" d="M44.8,34.2c0,0,0.5-0.1,3.1,1.9c3.1,2.5,5.1,4.4,5.3,5.6c0.2,1.2-0.5,2.9-0.7,3.5
							c-0.2,0.7-0.6,4.8-0.4,5.3C52.3,51,54,53,54,53s0.6,0.4-0.1,0.7c-1,0.4-1.3,0.1-2.5-1c-0.8-0.8-1.5-1-1.4-1.3l0.1-0.3
							c0,0-0.1-2-0.4-2.8c-0.3-0.8-0.9-2.3-0.9-3.2c0-0.9,0.7-1.7,0.7-1.7s-0.9-1-3-1.7C44.5,41,39,38,38.5,36.5c-0.5-1.6,0-4,0-4
							L44.8,34.2z"/>
						<path class="st15" d="M50.2,29.9c0.3,0.2,0.6,0.3,1,0.3c0.2,0,0.4,0,0.5-0.1c0.1,0,0.2,0,0.3-0.1c0.1,0,0.1,0,0.2-0.1
							c0,0,0,0,0.1,0c0.1,0,0.2-0.1,0.2-0.1c0-0.6,0.1-1.1,0.1-1.5c0.1-1,0.5-5.4,0.7-7.1s-0.7-1.7-0.7-1.7S48.1,26.4,50.2,29.9
							L50.2,29.9z"/>
						<path class="st15" d="M46.9,27.7c0,0,0.9,2,1.3,2.7c0.3,0.7-0.1,0.6,0.1,0.6c0.2,0,1.9,0.9,3,2.2c1.1,1.3,4.2,6.6,4.2,6.6
							s-2.2-0.7-4.4,0.4c-3.2,1.7-1.8,3-1.8,3s-9.5-4.2-10.6-6.3c0-0.1-0.1-0.1-0.1-0.2c-0.8-2.1-0.7-3.3-0.3-4.4
							c0.4-1.1,1.5-2.6,1.5-2.6s2.8,1.5,4.3,0.7C45.6,29.6,46.9,27.7,46.9,27.7z"/>
						<path class="st20" d="M52.2,19.1c0,0,0.8,0.3,0.6,1.3c-0.2,1-1.1,3.2-0.9,4s-0.4,1.7-1.2,2.5c-1.2,1.2-2.5,3.4-2.5,3.4
							s-3.3,0.8-5.2,0.6c-1.9-0.2-3.3-1.2-3.3-1.2s2-3.1,2-3.6c0-0.5,1.2-3.8,1.3-5c0.1-1.2,0.1-1.8,1.6-2.1
							C46.2,18.7,51.3,17.9,52.2,19.1z"/>
						<path class="st12" d="M47.9,18.2c0,0-1.6,0.5-2,0.6c-0.4,0.1,0.9,2.2,1.4,3.5c0.4,1.2,0.3,2.5,0.4,2.4c0.1,0,1.8-3.4,1.8-3.4
							s-0.2,3.9-0.2,3.8c0.1,0,2.1-4,2-4.9C51.1,19.2,50.3,17.1,47.9,18.2z"/>
						<path class="st9" d="M45.2,20.8c0,0-0.6,2.7-2,4.5c-1.4,1.8-3.4,4-3.4,4s-0.7,5.1-0.8,6c-0.1,0.9,0.3,2.3,0.3,2.3L37.9,39
							c0,0-0.8-8-1-8.8c-0.5-2.1,3.1-5.5,4-6.9C41.7,21.9,44,17.1,45.2,20.8z"/>
						<path class="st15" d="M45,19.2c0,0-0.9-0.2-1.8,0.3c-0.8,0.5-3.9,5.4-3.9,5.4s0.1,2.8,1.3,3.1c1.2,0.2,1.6,0.2,1.6,0.2
							s3.4-6.1,3.4-6.9C45.7,20.5,45.9,19.6,45,19.2z"/>
						<path class="st21" d="M50.9,19.7c0,0-0.6,0.6-0.7,0.9l-0.3,0.6c0,0-0.1,0.5-1,0.1c-0.8-0.4-1.4-1.7-1.7-2.2
							c-0.3-0.5-0.2-0.5-0.2-0.5s0.7-0.4,1.1-1.4c0.4-1,0.4-1,0.4-1L50.9,19.7z"/>
						<path class="st19" d="M38.9,37.5c0,0,1.3,0.6,1.6,0.7c0.3,0.1,0.8,1.7,0.9,2c0.1,0.3,0.2,0.9,0.1,1.1c0,0.1-0.5,0.5-0.9,0.3
							c-0.3-0.2-1.1-1.3-1.2-1.3c-0.1,0-1.6-1.4-1.6-1.4L38.9,37.5z"/>
						<path class="st19" d="M49,13.1c0,0-0.8,3.1-0.4,4.5c0.4,1.5,0.3,1.8,1.1,2c0.8,0.2,1,0,1.6-0.2c0.6-0.2,1.7-1.3,2.2-2.3
							c0.5-1,1.6-3.9-0.8-4.8C50.4,11.5,49.4,12.1,49,13.1z"/>
						<path class="st22" d="M51.5,12.7c0,0,2.1,2,2.1,3c0,1-0.2,1.7-0.2,1.7s1.5-1.9,1.2-4.4c-0.3-2.4-3.1-2.1-3.1-2.1s-2-1.4-3,1.2
							c-1,2.5,0,4.3,0,4.3s0.9-1.8,1.5-2.5C50.5,13.3,51.5,12.7,51.5,12.7z"/>
						<path class="st22" d="M51.3,12c0,0,0,1.5,0.6,2.3c0.6,0.8,1.1,1.5,1.1,1.5s-0.6-1.9-0.5-2.8C52.5,12,51.3,12,51.3,12z"/>
					</g>
				</g>
				<g>
					<g>
						<g>
							<g>
								<g>
									<path class="st4" d="M20.7,58.7l1.7-11.8c0.1-1,1-1.4,2-0.8l4.8,2.8c1,0.6,1.8,1.9,2,3.1l1.6,13.3c0,0.3-0.3,0.6-0.6,0.4
										c-0.2-0.1-0.3-0.2-0.3-0.4l-1.6-13.5c-0.1-0.9-0.7-1.8-1.4-2.2l-4.3-2.5c-0.7-0.4-1.3-0.2-1.4,0.6l-1.6,11.3
										c0,0.3-0.4,0.5-0.6,0.3C20.9,59.2,20.7,59,20.7,58.7z"/>
									<path class="st1" d="M18.7,33.3c-0.1,0.4,0,0.5,0.5,1.3c0.5,0.8,0.8,2.7,1,3.9c0.2,1.7,0.6,4.6,0.8,5.7
										c0,0.2,0.2,0.5,0.4,0.5l0.4,0c0.1,0,0.2-0.1,0.2-0.3c-0.2-1.5-1.2-8.5-1.6-9.3C19.9,34.1,18.8,32.9,18.7,33.3z"/>
									<path class="st2" d="M11.8,51.4c-0.6-0.3,9.3-5.4,9.7-5.7c0.2-0.1,0.6-0.3,0.9-0.2c0.7,0.4,9,5,10,5.8
										c1,0.8,2.2,3.8,1.7,3.9c-0.5,0.2-9.7,7.5-10.6,5.8C22.1,58.3,13.9,52.6,11.8,51.4z"/>
								</g>
								<path class="st2" d="M11.1,50.2l0.5,0.2c0,0,0.6-2.3,3.7-3.9c3-1.7,5.7-1.7,6.1-1.7c0.4,0,0.5-0.3,0.5-0.3l-2.1-9.9l-1-1.2
									c0,0-3.3,0.5-6.2,1.9c-2.9,1.5-4.1,4-4.1,4s2,3.9,1.9,4.7C10.3,44.6,11.1,50.2,11.1,50.2z"/>
								<path class="st3" d="M8.5,39.2c-0.1,0.4,0,0.5,0.5,1.3c0.5,0.8,0.8,2.7,1,3.9c0.2,1.7,0.6,4.6,0.8,5.7
									c0,0.2,0.2,0.5,0.4,0.5l0.4,0c0.1,0,0.2-0.1,0.2-0.3c-0.2-1.5-1.2-8.5-1.6-9.3C9.6,40,8.5,38.9,8.5,39.2z"/>
							</g>
							<g>
								<path class="st3" d="M12.6,53.4c-0.6-0.3-1-1.2-0.9-1.8c0-0.2,0.2-0.3,0.4-0.2c0.7,0.4,9,5,10,5.8c1,0.8,2.2,3.8,1.7,3.9
									c-0.5,0.2-0.5-1.2-2.1-2.3C20.3,57.9,14.7,54.6,12.6,53.4z"/>
								<path class="st4" d="M10.6,65c-0.1-0.1-0.1-0.2-0.1-0.3l1.7-11.9c0.1-1,1-1.4,2-0.8l4.8,2.8c1,0.6,1.8,1.9,2,3.1l1.7,13.4
									c0,0.3-0.3,0.5-0.5,0.3l-0.3-0.1c-0.1,0-0.1-0.1-0.1-0.2L20,57.7c-0.1-0.9-0.7-1.8-1.4-2.2L14.3,53
									c-0.7-0.4-1.3-0.2-1.4,0.6l-1.6,11.4c0,0.2-0.3,0.4-0.5,0.2L10.6,65z"/>
							</g>
						</g>
						<g>
							<path class="st23" d="M26.9,50.6c0,0-2.1,1.5-1.7,1.8c0.4,0.3,2.3,1.6,2.3,1.6l0.8,0.5c0,0-1.1,0.9-0.8,3
								c0.3,2.1,0.3,2.1,0.4,2.9c0.2,1.5-0.1,2.1-0.1,2.1s-0.7,0.9-0.5,1.4c0.2,0.4,2.3,1.7,3.1,1.8c0.7,0.2,1.5-0.1,1.5-0.4
								c0-0.3-0.7-0.8-0.7-0.8s-1.2-1.6-1.3-2s-0.4-1.3,0.2-3.1c0.6-1.8,1.6-5.2,1.7-5.7c0-0.5-2-3.6-3.2-3.8
								C27.5,49.6,26.9,50.6,26.9,50.6z"/>
							<path class="st24" d="M27.4,64.7c0,0,0,0.1,0.5,0.4c0.5,0.3,1.1,0.4,1.1,0.4s0.1-0.1,0.2-0.1c0.3,0.3,0.4,1,1,1.4
								c0.7,0.5,1.9,0.5,2.5,0.6c1.2,0.1,0.3-0.9,0-1.4c-0.4-0.7-0.6-0.4-2.1-0.5c-1-0.1-1.2-0.9-1.8-1.3c-0.5-0.4-0.9-1-1-1.2
								c-0.1-0.2,0-0.3,0-0.3c-0.3,0.5-0.7,0.8-0.6,1.4L27.4,64.7z"/>
							<path class="st15" d="M27.4,64.1c0.2,0.6,1.3,0.7,1.7,0.9c0.4,0.2,0.5,1.1,1.2,1.5c0.7,0.5,1.9,0.6,2.5,0.7
								c1.2,0.2,0.3-0.9,0-1.4c-0.4-0.7-1.3-1.2-1.5-1.4c0,0.1,0.8,0.9-0.6,0.8c-1-0.1-1.2-0.9-1.8-1.3c-0.5-0.4-0.9-1-1-1.2
								c-0.1-0.3,0.1-0.5-0.1-0.2C27.3,63.3,27.2,63.5,27.4,64.1z"/>
							<path class="st25" d="M28,67.3C28,67.3,27.9,67.2,28,67.3C27.9,67.2,27.9,67.2,28,67.3z"/>
							<path class="st24" d="M23.4,67.3c0.1,0.3,0.8,0.9,0.8,0.9l0.2-0.1c0.2,0.3,0.5,0.7,1.1,1.3c0.8,0.8,3.1,0.7,3.3,0.4
								c0.1-0.3-0.3-0.9-0.7-1.3c-0.4-0.4-1-0.5-1.4-0.3c-0.6,0.2-1.2,0-1.6-0.5c-0.5-0.4-1.2-1.7-1.3-1.9c0-0.2,0-0.2,0-0.3
								c-0.2,0.4-0.4,0.6-0.5,0.9C23.3,66.6,23.3,67.1,23.4,67.3z"/>
							<path class="st24" d="M23.3,66.5c0-0.1,0-0.1,0-0.2C23.3,66.4,23.3,66.5,23.3,66.5z"/>
							<path class="st15" d="M23.4,66.2c0,0.6,0.6,1.1,0.9,1.4c0.3,0.3,0.4,0.9,1.2,1.7c0.8,0.8,3.1,0.7,3.3,0.4
								c0.1-0.3-0.4-1-0.7-1.4c-0.4-0.4-0.8-0.7-1-0.9c0,0-0.1-0.1-0.2-0.2c0.1,0.2,0.2,0.5-0.2,0.7c-0.6,0.2-1.2,0-1.6-0.5
								c-0.5-0.4-1.2-1.7-1.3-1.9c0-0.2,0-0.2,0-0.3C23.6,65.7,23.4,65.8,23.4,66.2z"/>
							<path class="st23" d="M23.3,52.9c0,0-0.7,2.5-0.3,2.9c0.4,0.3,0.9,0.5,0.9,0.5l0.8,0.5c0,0-1.1,0.9-0.8,3
								c0.3,2.1,0.5,3.4,0.3,4.1c-0.2,0.7-0.4,1.4-0.4,1.4s-0.2,0.4,0,0.8c0.2,0.4,1.5,1.9,2.2,2.1c0.7,0.2,1.2,0,1.1-0.3
								c0-0.3-0.3-0.7-0.3-0.7s-0.9-1.1-1-1.5s0-2.2,0.7-4.1c0.6-1.8,1.6-5.2,1.7-5.7c0-0.5-2-3.6-3.2-3.8
								C23.9,51.9,23.3,52.9,23.3,52.9z"/>
							<path class="st26" d="M23.6,45.6c4.1,2.4,4,2.8,6.9,5.8c0,0-0.3-0.6-2.1,0.4c-1.8,0.9-3.8,1.4-4.4,2.2
								c-0.6,0.8-0.5,1.9-0.3,2.1l0.2,0.2c0,0-3.8-1.6-4.5-2.4c-0.7-0.8-2.7-1.3-3.6-3.1c-0.9-1.7,0.1-4.1,0.1-4.1L23.6,45.6z"/>
							<g>
								<path class="st26" d="M18.5,36.4c0,0,2-3.5,2.8-2.9c0.8,0.6,1.2,2.5,1.4,2.9c0.6,1.4,2.4,3.3,2.4,3.3s0.6,0.6,1.2,1.3
									c0.5,0.7-0.1,2.7-2,1.8c-0.6-0.3-4.4-4.7-5-5.6C18.8,36.3,18.5,36.4,18.5,36.4z"/>
								<path class="st27" d="M13.8,39c0.2,1.1,1.8,4.1,2.2,4.7c0.4,0.6-0.1,3.2-0.1,3.2s0.2,1.7,3.7,1.7c3.5,0,4.1-2.8,4.1-2.9
									c-0.1-0.1-0.4-1.7-0.4-1.7s0.3-2.8,0.6-3.5c1-3.2-2.8-6.5-2.8-6.5c-0.5-0.4-1.1,0.1-1.5,0.5l0.9-1.7c0,0-3.7-0.2-3.8,0
									c-0.1,0.2-1,1.6-1.1,1.8c-1.3,0.5-1.7,0.8-1.8,0.8C13.6,35.7,13.3,36.8,13.8,39z"/>
								<path class="st28" d="M20.5,33.9c-0.2,0-0.4,0.2-0.5,0.3L20.5,33.9z"/>
								<path class="st12" d="M17.1,37.2c0.1,1.6,2.3,1.9,3.7,2.9c0.7,0.5,0.6-2.9,0.7-3.3c0.1-0.8-1.5-1.6-1.5-1.6
									c-0.2,0.2-0.3,0.4-0.3,0.4l0.9-1.7c0,0-3.7-0.2-3.8,0C16.7,34,17.1,36.6,17.1,37.2z"/>
								<path class="st23" d="M16,34.4c-0.7,0.4,0.3,2.8,1.7,3.9c0.7,0.5,3.8-1,3.8-1.4c0.1-0.8-1.4-2.7-1.4-2.7
									c-0.2,0.2-0.3,0.4-0.3,0.4l0.9-1.7c0,0-3.8-0.7-4-0.5C16.6,32.6,16.5,34.1,16,34.4z"/>
								<path class="st28" d="M20.3,29.3c0,0,0.2-0.3,0.1-0.6c-0.1-0.3-0.2-0.2-0.2-0.1c0,0.1-0.3,0.4-0.3,0.4s0.1,0.6,0.3,0.7
									c0.2,0.1,0.5,0.3,0.5,0.3C20.4,29.5,20.5,29.7,20.3,29.3z"/>
								<path class="st29" d="M21.5,29c0,0,0.4,1.8,0.1,2.1c-0.3,0.3,0.2,0.7,0.1,1c-0.1,0.3-0.1,0.5-0.2,1
									c-0.2,0.4-0.4,1.6-0.8,1.7c-0.4,0.1-0.6,0.2-1,0.1c-0.4-0.1-2.6-1.2-2.7-1.4c0,0-1.5-2.4-1.6-3.2c0-0.8,0.2-3.3,2.1-3.6
									C19.5,26.3,21.1,27.7,21.5,29z"/>
								<path class="st30" d="M20.7,28.1c0,0,0.4,0.1,0.6,0.7c0.1,0.4,0.4,1.8,0.4,1.8s0.5-1.6-0.4-2.8c-0.9-1.2-2.9-1.3-2.9-1.3
									s-2.2-0.7-3.1,1.2c-1,1.9-1.1,3.6-1.2,4.3c-0.6,3.8,1.1,3.3,1.1,3.3l1.8,2.4l-0.5-7c0,0,1.4,0.4,2.6-0.3
									C20.2,29.8,20.7,28.1,20.7,28.1z"/>
								<path class="st26" d="M13.9,35.4c0.5-0.2,1.6,1.1,1.4,2.5c-0.9,5.7,1.7,9.1,0.1,10.5c-0.9,0.8-1.4,0.8-2.2,0.1
									C13.1,48.4,10.7,36.6,13.9,35.4z"/>
							</g>
						</g>
						<g>
							<polygon class="st12" points="20.2,57.8 18.1,56.5 58.5,33.2 60.6,34.4 							"/>
							<g>
								<polygon class="st15" points="19,79.9 18.3,79.5 18.3,56.4 19,56.8 								"/>
								<polygon class="st24" points="19.6,79.5 19,79.9 19,56.8 19.6,56.4 								"/>
							</g>
							<g>
								<polygon class="st1" points="59.9,56.3 59.2,55.8 59.2,32.8 59.9,33.2 								"/>
								<polygon class="st24" points="60.6,55.9 59.9,56.3 59.9,33.2 60.6,32.8 								"/>
							</g>
							<g>
								<polygon class="st15" points="42.1,93.3 41.4,92.8 41.4,69.7 42.1,70.2 								"/>
								<polygon class="st24" points="42.8,92.9 42.1,93.3 42.1,70.2 42.8,69.8 								"/>
							</g>
							<g>
								<polygon class="st15" points="83.1,69.6 82.4,69.2 82.4,46.1 83.1,46.5 								"/>
								<polygon class="st24" points="83.7,69.2 83.1,69.6 83.1,46.5 83.7,46.1 								"/>
							</g>
							<g>
								<polygon class="st31" points="46.8,73.2 15.5,55.1 15.5,53.7 46.8,71.9 								"/>
								<polygon class="st4" points="88.4,49.2 46.8,73.2 46.8,71.9 88.4,47.9 								"/>
								<polygon class="st32" points="46.8,71.9 15.5,53.7 57.1,29.7 88.3,47.8 								"/>
							</g>
						</g>
					</g>
					<path class="st23" d="M24.1,41.7c-0.1,0.7,0.6,1.4,1.2,1.6c0.5,0.2,2.4-1.4,3.7-2.7c1.3-1.4,2-2.2,2-2.2s2.1,0.8,2.6,0.9
						c0.5,0,1.5,0.1,1.8,0.1c0.3,0,0.7-0.3,0.7-0.3c0,0,0-0.2-0.3-0.2c-0.3,0-0.5,0.1-0.5,0.1l-1-0.3c0,0,0.8-0.1,1.1-0.2
						c0.2-0.1,0.7-0.6,0.7-0.6c0.1-0.1,0-0.2-0.2-0.2l-0.2,0c0,0,0.2-0.2,0.2-0.2c-0.1-0.1-0.3-0.1-0.5,0c-0.2,0.1-0.4,0.2-0.4,0.2
						l-1-0.1l0.9-0.2c0.8-0.5,0.7-0.4,1-0.6c0.1-0.1-0.3-0.2-0.5,0c-0.2,0.2-0.3,0.2-0.3,0.2L33.8,37c0,0-1.5-0.4-1.5-0.4
						c0,0,0.1-0.3,0.1-0.3l0.6-0.4c0,0,0.4-0.2,0.5-0.3c0.1-0.1,0-0.3-0.2-0.2c-0.2,0-0.5,0.2-0.8,0.2c-0.3,0-0.7,0.2-0.9,0.4
						c-0.2,0.2-1,0.6-1.2,1c-0.3,0.4-4.9,3.1-4.9,3.1S24.2,40.8,24.1,41.7z"/>
					<g>
						<polygon id="Axo_base_00000144329988414710759660000011251978373456858267_" class="st12" points="50.7,65.1 42.7,63.6 
							46.3,57.4 54.3,59 						"/>
						<path id="Axo_base_00000029759496781412908840000015636619557343133105_" class="st32" d="M54,59.5c0,0-8-1.6-8-1.6
							C46.1,57.9,54,59.5,54,59.5z"/>
						<path id="Axo_base_00000036948006823210525730000002631875443793472643_" class="st32" d="M53.9,59.7c0,0-8-1.6-8-1.6
							C45.9,58.1,53.9,59.7,53.9,59.7z"/>
						<path id="Axo_base_00000015351505951022476300000008362774744722380216_" class="st32" d="M53.8,59.9c0,0-8-1.6-8-1.6
							C45.8,58.3,53.8,59.9,53.8,59.9z"/>
						<path id="Axo_base_00000137125090135382855380000010953321333556060851_" class="st32" d="M53.7,60.1c0,0-8-1.6-8-1.6
							C45.7,58.5,53.7,60.1,53.7,60.1z"/>
						<path id="Axo_base_00000001628305316193478740000016047459448777446550_" class="st32" d="M53.5,60.3c0,0-8-1.6-8-1.6
							C45.6,58.7,53.5,60.3,53.5,60.3z"/>
						<path id="Axo_base_00000018940436445696253530000013236992278984134040_" class="st32" d="M53.4,60.5c0,0-8-1.6-8-1.6
							C45.5,59,53.4,60.5,53.4,60.5z"/>
						<path id="Axo_base_00000174567253503360087610000015148145233640917395_" class="st32" d="M53.3,60.7c0,0-8-1.6-8-1.6
							C45.3,59.2,53.3,60.7,53.3,60.7z"/>
						<path id="Axo_base_00000084506119970775976220000002554917342117602187_" class="st32" d="M53.2,60.9c0,0-8-1.6-8-1.6
							C45.2,59.4,53.2,60.9,53.2,60.9z"/>
						<path id="Axo_base_00000174562257148792593160000002862858867098976191_" class="st32" d="M53.1,61.2c0,0-8-1.6-8-1.6
							C45.1,59.6,53.1,61.2,53.1,61.2z"/>
						<path id="Axo_base_00000094617096988831319210000003454152947916289202_" class="st32" d="M52.9,61.4c0,0-8-1.6-8-1.6
							C45,59.8,52.9,61.4,52.9,61.4z"/>
						<path id="Axo_base_00000150789677430993711430000000737405549034231451_" class="st32" d="M52.8,61.6c0,0-8-1.6-8-1.6
							C44.8,60,52.8,61.6,52.8,61.6z"/>
						<path id="Axo_base_00000039108205100209206670000004730958080527270275_" class="st32" d="M52.7,61.8c0,0-8-1.6-8-1.6
							C44.7,60.2,52.7,61.8,52.7,61.8z"/>
						<path id="Axo_base_00000146460247002593832380000012479383483432551065_" class="st32" d="M52.6,62c0,0-8-1.6-8-1.6
							C44.6,60.4,52.6,62,52.6,62z"/>
						<path id="Axo_base_00000049902223213069388310000015466367102088796578_" class="st32" d="M52.4,62.2c0,0-8-1.6-8-1.6
							C44.5,60.7,52.4,62.2,52.4,62.2z"/>
						<path id="Axo_base_00000079466603665602544690000017775191180398930865_" class="st32" d="M52.3,62.4c0,0-8-1.6-8-1.6
							C44.3,60.9,52.3,62.4,52.3,62.4z"/>
						<path id="Axo_base_00000003790568102467600110000003240667432456968578_" class="st32" d="M52.2,62.6c0,0-8-1.6-8-1.6
							C44.2,61.1,52.2,62.6,52.2,62.6z"/>
						<path id="Axo_base_00000023982315375742839750000011847316513438449333_" class="st32" d="M52.1,62.8c0,0-8-1.6-8-1.6
							C44.1,61.3,52.1,62.8,52.1,62.8z"/>
						<path id="Axo_base_00000101088775986258708300000002289375636292068782_" class="st8" d="M43.8,63.8l3.6-6.2
							C47.4,57.6,43.8,63.8,43.8,63.8L43.8,63.8z"/>
						<path id="Axo_base_00000165193367522442651300000005345456400182010498_" class="st32" d="M51.9,63.1c0,0-8-1.6-8-1.6
							C44,61.5,51.9,63.1,51.9,63.1z"/>
						<path id="Axo_base_00000175305002194148290520000012100216105922982058_" class="st32" d="M51.8,63.3c0,0-8-1.6-8-1.6
							C43.8,61.7,51.8,63.3,51.8,63.3z"/>
						<path id="Axo_base_00000125600619092360571930000012691303830830167431_" class="st32" d="M51.7,63.5c0,0-8-1.6-8-1.6
							C43.7,61.9,51.7,63.5,51.7,63.5z"/>
						<path id="Axo_base_00000158737043619497464240000006369236156670454718_" class="st32" d="M51.6,63.7c0,0-8-1.6-8-1.6
							C43.6,62.1,51.6,63.7,51.6,63.7z"/>
						<path id="Axo_base_00000102524596812661116270000001187253408157742481_" class="st32" d="M51.4,63.9c0,0-8-1.6-8-1.6
							C43.5,62.3,51.4,63.9,51.4,63.9z"/>
						<path id="Axo_base_00000085233255272258038450000006877847554995834776_" class="st32" d="M51.3,64.1c0,0-8-1.6-8-1.6
							C43.3,62.6,51.3,64.1,51.3,64.1z"/>
						<path id="Axo_base_00000164497487628063288410000008774078659364728459_" class="st32" d="M51.2,64.3c0,0-8-1.6-8-1.6
							C43.2,62.8,51.2,64.3,51.2,64.3z"/>
						<path id="Axo_base_00000067224324835543680980000011676675739035501755_" class="st32" d="M51.1,64.5c0,0-8-1.6-8-1.6
							C43.1,63,51.1,64.5,51.1,64.5z"/>
						<path id="Axo_base_00000062904625426320110080000015207390578344464305_" class="st32" d="M50.9,64.7c0,0-8-1.6-8-1.6
							C43,63.2,50.9,64.7,50.9,64.7z"/>
						<path id="Axo_base_00000162327973438811291000000011935718057519235000_" class="st32" d="M50.8,65c0,0-8-1.6-8-1.6
							C42.8,63.4,50.8,65,50.8,65z"/>
					</g>
				</g>
				<path class="st21" d="M58.4,32.6c-1-0.5-2.1-0.2-2.9-1.2c-0.6-0.8-2.1-3.3-3.2-3.5c-0.4-0.1-1-0.1-1.4,0.2
					c-0.4,0.2-0.7,0.7-0.8,1.2c-0.2,1.4,3.7,2.9,4.3,3.3c0.9,0.5,1.8,0.6,1.8,0.8c0,0.2,0.7,1.4,1.1,1.6c0.4,0.1,0.5,0.3,0.7,0.3
					c0.2,0,0-0.3-0.2-0.4c-0.2-0.1-0.5-0.9-0.4-0.7c0.1,0.2,1.3,1,1.5,1.2c0.2,0.1,0.4,0,0.5-0.1c0.1-0.1-0.2-0.1-0.4-0.3
					c-0.1-0.1-0.5-0.5-0.6-0.6c0.3,0.2,1.3,0.9,1.4,0.8c0.2,0,0-0.2,0-0.2s0.2,0,0.2-0.1c0.1-0.1-0.3-0.3-0.3-0.3s0.2,0,0.3,0
					c0.1,0,0.1-0.2,0.1-0.2s-0.5-0.5-0.7-0.7C59.5,33.5,58.7,32.8,58.4,32.6z"/>
				<g>
					<g id="Axo_Extrusion_00000023254014834451946770000003200994355244494782_">
						<path id="Axo_panel_00000121277317483652511420000003446847234305974682_" class="st9" d="M69.3,48.3c0.1,0,0,0,4.7,2.7
							l6.5-3.7l-4.7-2.7C75.8,44.6,76.2,44.4,69.3,48.3z"/>
						<path id="Axo_base_00000161629227540492607890000017986521041273135259_" class="st16" d="M69.3,48.3c0,0,0,0.1,0,0.2l4.7,2.7
							v-0.2C69.3,48.3,69.4,48.3,69.3,48.3z"/>
					</g>
					<g id="Axo_Extrusion_00000091726748064525671110000003557307702593368723_">
						<g id="Axo_Surface_x2A__00000047053322562053215200000009992154233280299415_">
							<polygon id="Axo_panel_00000156552897809930210450000017250495673206930833_" class="st33" points="69.4,47.3 74,50 
								80.5,46.3 75.9,43.6 							"/>
							<polygon id="Axo_panel_00000094581343986423075400000017093641221020661920_" class="st9" points="74.2,49.9 74.2,51 
								80.6,47.3 80.5,46.3 							"/>
						</g>
						<path id="Axo_base_00000070083211997173419460000007694849167114183101_" class="st34" d="M69.6,47.2c0,0,0.1,0.2,0.1,0.5
							c0,0.4-0.1,0.5-0.1,0.5l4.6,2.7v-1.1L69.6,47.2z"/>
					</g>
					<g id="Axo_Extrusion_00000160152587992503826260000009252830741189682326_">
						<path id="Axo_panel_00000103966179573960246870000012425951328309699247_" class="st9" d="M69.3,47.1c0.1,0,0,0,4.7,2.7
							l6.5-3.7l-4.7-2.7C75.7,43.4,76.2,43.1,69.3,47.1z"/>
						<path id="Axo_base_00000030454416979539078470000008430460803541238973_" class="st16" d="M69.3,47.1c0,0,0,0.1,0,0.2L74,50
							v-0.2C69.3,47.1,69.3,47.1,69.3,47.1z"/>
					</g>
					<g id="Axo_Extrusion_00000039849025077864741370000003798812965475831430_">
						<g id="Axo_Surface_x2A__00000141455165304382366170000006218591006522416770_">
							<polygon id="Axo_panel_00000029766101295731886050000000325073423156398223_" class="st16" points="73.9,49.8 74.1,49.8 
								80.5,46.1 80.4,46 							"/>
							<path id="Axo_panel_00000124854868190654996510000016142365329247402381_" class="st35" d="M74.1,49.8c0.3,0.6,0.3,1.2,0,1.4
								l6.5-3.7c0.3-0.2,0.3-0.8,0-1.4L74.1,49.8z"/>
							<path class="st16" d="M79.2,47.1c0.1,0.3,0.2,0.8,0,1l1.2-0.7c0.1-0.1,0.2-0.2,0.2-0.4c0-0.2-0.1-0.4-0.1-0.6L79.2,47.1z"/>
							<path class="st16" d="M74.7,49.7c0.2,0.3,0.2,0.6,0.2,0.9c3.4-2,3.9-2.2,3.9-2.3c0.1-0.1,0.1-0.2,0.1-0.4
								c0-0.2-0.1-0.4-0.1-0.6L74.7,49.7z"/>
						</g>
						<path id="Axo_base_00000177464212469989447370000007641695775793693067_" class="st16" d="M73.9,49.8c0.3,0.6,0.3,1.2,0,1.4
							l0.1,0.1c0.3-0.2,0.3-0.8,0-1.4L73.9,49.8z"/>
					</g>
					<g>
						<g id="Axo_Extrusion_00000049212689482535563270000002600564139950412425_">
							<path id="Axo_panel_00000045590729136751386940000012337763155917554064_" class="st7" d="M70.5,46.7
								C70.5,46.7,70.5,46.7,70.5,46.7l3.9,2.2l5.3-3.1l-3.9-2.8C75.8,43.1,76.1,42.9,70.5,46.7z"/>
							<path id="Axo_base_00000000909947105354423960000005849717771375818903_" class="st36" d="M70.5,46.8l3.9,2.2v-0.1l-3.9-2.2
								C70.4,46.6,70.4,46.8,70.5,46.8z"/>
						</g>
						<g id="Axo_Extrusion_00000015354526755945511460000015487327733382218135_">
							<g id="Axo_Surface_x2A__00000091706521474799535040000008067346501020447144_">
								<polygon id="Axo_panel_00000083780345548196190870000001726096470158915467_" class="st33" points="70.6,45.3 74.4,47.5 
									79.7,44.4 75.9,42.2 								"/>
								<polygon id="Axo_panel_00000139984705261528182610000008707588058517072304_" class="st9" points="74.5,47.4 74.5,48.8 
									79.8,45.8 79.7,44.4 								"/>
							</g>
							<path id="Axo_base_00000102510749542171966680000001533935682684132483_" class="st34" d="M70.7,45.2c0.2,0.2,0.1,0.7,0,1.4
								l3.8,2.2v-1.4L70.7,45.2z"/>
						</g>
						<g id="Axo_Extrusion_00000165212146251677451740000000326615059579131582_">
							<path id="Axo_panel_00000052791996916540576930000003733023123230596238_" class="st7" d="M70.5,45.1
								C70.5,45.1,70.5,45.1,70.5,45.1l3.9,2.2l5.3-3.1l-3.9-2.2C75.7,42,76,41.9,70.5,45.1z"/>
							<path id="Axo_base_00000129928278922339851630000004981858270478626977_" class="st36" d="M70.5,45.3l3.9,2.2v-0.1l-3.9-2.2
								C70.4,45.1,70.4,45.2,70.5,45.3z"/>
						</g>
						<g id="Axo_Extrusion_00000163035223922022414930000011593944274575445407_">
							<g id="Axo_Surface_x2A__00000068653127370359281640000012813981920069776035_">
								<polygon id="Axo_panel_00000165923895583641345410000010181254077043585163_" class="st36" points="74.3,47.3 74.4,47.4 
									79.7,44.3 79.6,44.2 								"/>
								<path id="Axo_panel_00000085235636976680407490000006890771494682111932_" class="st10" d="M74.4,47.4
									c0.3,0.5,0.3,1.5,0,1.7l5.3-3.1c0.3-0.2,0.3-1.2,0-1.7L74.4,47.4z"/>
								<path class="st7" d="M78.6,45.1c0.1,0.2,0.1,0.9,0.1,1c0,0.1,0,0.2-0.1,0.3l1-0.6c0.1,0,0.2-0.6,0.1-0.9
									c0-0.1,0-0.3-0.1-0.5L78.6,45.1z"/>
								<path class="st7" d="M74.9,47.3c0.1,0.2,0.2,1.1,0.2,1.3l3.2-1.9c0.1-0.1,0.1-0.2,0.1-0.3c0-0.1,0-0.9-0.1-1L74.9,47.3z"/>
							</g>
							<path id="Axo_base_00000130645971051074891970000015818819995032249268_" class="st36" d="M74.3,47.3c0.3,0.5,0.3,1.5,0,1.7
								c0,0,0.1,0,0.1,0.1c0.3-0.2,0.3-1.2,0-1.7L74.3,47.3z"/>
						</g>
					</g>
					<g>
						<g id="Axo_Extrusion_00000091706157884794606790000006752565499066367423_">
							<path id="Axo_panel_00000135667748051608901170000006860977360393953186_" class="st9" d="M71.9,44.8
								C71.9,44.8,71.9,44.8,71.9,44.8l3,1.7l4.1-2.4L76,42c0,0,0,0,0,0L71.9,44.8z"/>
							<path id="Axo_base_00000000181312878867617740000016133601185360327098_" class="st16" d="M71.9,44.9l3,1.7v-0.1l-3-1.7
								C71.9,44.7,71.9,44.8,71.9,44.9z"/>
						</g>
						<g id="Axo_Extrusion_00000067949886435544063450000010865568987388602254_">
							<g id="Axo_Surface_x2A__00000171707027674436640550000014074774573018544302_">
								<polygon id="Axo_panel_00000134935912342067656410000004403568372550555541_" class="st33" points="72,43.7 74.9,45.4 
									79,43 76.1,41.4 								"/>
								<polygon id="Axo_panel_00000043457836164396849330000017812891102197007248_" class="st9" points="75,45.4 75,46.4 
									79.1,44.1 79,43 								"/>
							</g>
							<path id="Axo_base_00000031891076502989454350000005768030950488274050_" class="st34" d="M72.1,43.7c0,0,0.1,0.1,0.1,0.3
								c0,0.2-0.1,0.7-0.1,0.7l2.9,1.7v-1.1L72.1,43.7z"/>
						</g>
						<g id="Axo_Extrusion_00000094614728726559901140000016481645498699739286_">
							<path id="Axo_panel_00000111906339695057642390000006154628436887074694_" class="st9" d="M71.9,43.6
								C71.9,43.6,71.9,43.6,71.9,43.6l3,1.7l4.1-2.4l-3-1.7c0,0,0,0,0,0L71.9,43.6z"/>
							<path id="Axo_base_00000074428237604134845340000003611334322558240150_" class="st16" d="M71.9,43.7l3,1.7v-0.1l-3-1.7
								C71.9,43.6,71.9,43.7,71.9,43.7z"/>
						</g>
						<g id="Axo_Extrusion_00000013893021100849151180000011690480831896020409_">
							<g id="Axo_Surface_x2A__00000127009468510239994210000012198842468232741032_">
								<polygon id="Axo_panel_00000026122532959264472230000013050849413947013549_" class="st16" points="74.8,45.3 74.9,45.3 
									79,43 78.9,42.9 								"/>
								<path id="Axo_panel_00000147904963156325326470000004909007014424099465_" class="st16" d="M74.9,45.3
									c0.2,0.4,0.2,1.2,0,1.3l4.1-2.4c0.2-0.1,0.2-0.9,0-1.3L74.9,45.3z"/>
								<path class="st32" d="M78.2,43.6c0.1,0.1,0.1,0.7,0.1,0.8c0,0.1,0,0.2-0.1,0.2l0.8-0.4c0.1,0,0.1-0.5,0.1-0.7
									c0-0.1,0-0.2-0.1-0.4L78.2,43.6z"/>
								<path class="st32" d="M75.3,45.2c0.1,0.2,0.1,0.8,0.1,1l2.5-1.4c0.1-0.1,0.1-0.1,0.1-0.3c0-0.1,0-0.7-0.1-0.8L75.3,45.2z"/>
							</g>
							<path id="Axo_base_00000145049915899293447630000005854636162096870041_" class="st16" d="M74.8,45.3c0.2,0.4,0.2,1.2,0,1.3
								c0,0,0.1,0,0.1,0C75.1,46.5,75.1,45.7,74.8,45.3L74.8,45.3z"/>
						</g>
					</g>
				</g>
			</g>
			<path class="st7" d="M82.4,23.9c0,0-1.4,0.5-1.1,2.6c0.3,2.1,1.5,6,1.5,6s2.5,0.7,3.2,0c0.7-0.7,0.7-1,0.7-1s-1.4-7-1.9-7.5
				C83.2,22.3,82.4,23.9,82.4,23.9z"/>
			<path class="st29" d="M17.2,31.5c0,0-0.6-1-1.1-1.1c-0.4-0.1-0.4,0.6-0.3,1.2c0,0.6,0.6,0.9,0.8,0.9c0.2,0.1,0.3-0.4,0.3-0.4
				L17.2,31.5z"/>
			<g>
				<path class="st20" d="M21.9,54.1h0.5l8.4-4.9c0.1-0.1,0.3-0.1,0.5,0l5.1,2.9h0.4v0.3c0,0.1,0,0.1-0.1,0.1l-8.8,5.1
					c-0.1,0.1-0.5,0.2-0.6,0.1L22,54.6c-0.1-0.1-0.1-0.1-0.1-0.2C21.9,54.4,21.9,54.1,21.9,54.1z"/>
				<g>
					<path class="st37" d="M27.9,57.4l8.8-5.1c0.1-0.1,0.1-0.2,0-0.3l-5.4-3.1c-0.1-0.1-0.3-0.1-0.5,0L22,54c-0.1,0.1-0.1,0.2,0,0.3
						l5.2,3.2C27.4,57.6,27.8,57.5,27.9,57.4z"/>
					<path class="st20" d="M27.8,57l8.1-4.7c0.1-0.1,0.1-0.2,0-0.2l-3.5-2C32.2,50,32,50,31.9,50l-8.1,4.7c-0.1,0.1-0.1,0.2,0,0.2
						l3.5,2C27.5,57.1,27.7,57.1,27.8,57z"/>
				</g>
				<g>
					<polygon class="st38" points="27.4,52.3 28.8,51.5 27.7,50.9 26.3,51.7 					"/>
					<path class="st38" d="M29,51.4l0.4-0.2c0.1-0.1,0.1-0.2,0-0.3l-0.6-0.4c-0.1-0.1-0.3-0.1-0.4,0l-0.4,0.2L29,51.4z"/>
					<path class="st38" d="M27.2,52.4l-0.4,0.2c-0.1,0.1-0.3,0.1-0.4,0l-0.6-0.4c-0.1-0.1-0.1-0.2,0-0.3l0.4-0.2L27.2,52.4z"/>
				</g>
				<g>
					<g>
						<path class="st37" d="M27.1,56.7l0.3,0.2c0.1,0.1,0.2,0.1,0.3,0l0.4-0.2c0.1,0,0.1-0.1,0-0.2l-0.3-0.2c-0.1-0.1-0.2-0.1-0.3,0
							l-0.4,0.2C27,56.6,27,56.6,27.1,56.7z"/>
						<path class="st37" d="M27.9,56.3l0.3,0.2c0.1,0.1,0.2,0.1,0.3,0l0.4-0.2c0.1,0,0.1-0.1,0-0.2l-0.3-0.2c-0.1-0.1-0.2-0.1-0.3,0
							l-0.4,0.2C27.8,56.1,27.8,56.2,27.9,56.3z"/>
						<path class="st37" d="M28.6,55.8L29,56c0.1,0.1,0.2,0.1,0.3,0l0.4-0.2c0.1,0,0.1-0.1,0-0.2l-0.3-0.2c-0.1-0.1-0.2-0.1-0.3,0
							l-0.4,0.2C28.5,55.7,28.5,55.8,28.6,55.8z"/>
						<path class="st37" d="M29.4,55.4l0.3,0.2c0.1,0.1,0.2,0.1,0.3,0l0.4-0.2c0.1,0,0.1-0.1,0-0.2L30,55c-0.1-0.1-0.2-0.1-0.3,0
							l-0.4,0.2C29.3,55.3,29.3,55.3,29.4,55.4z"/>
						<path class="st37" d="M30.1,55l0.3,0.2c0.1,0.1,0.2,0.1,0.3,0l0.4-0.2c0.1,0,0.1-0.1,0-0.2l-0.3-0.2c-0.1-0.1-0.2-0.1-0.3,0
							l-0.4,0.2C30,54.8,30,54.9,30.1,55z"/>
						<path class="st37" d="M30.9,54.5l0.3,0.2c0.1,0.1,0.2,0.1,0.3,0l0.4-0.2c0.1,0,0.1-0.1,0-0.2l-0.3-0.2c-0.1-0.1-0.2-0.1-0.3,0
							l-0.4,0.2C30.8,54.4,30.8,54.5,30.9,54.5z"/>
						<path class="st37" d="M31.6,54.1l0.3,0.2c0.1,0.1,0.2,0.1,0.3,0l0.4-0.2c0.1,0,0.1-0.1,0-0.2l-0.3-0.2c-0.1-0.1-0.2-0.1-0.3,0
							l-0.4,0.2C31.5,53.9,31.6,54,31.6,54.1z"/>
						<path class="st37" d="M32.4,53.6l0.3,0.2c0.1,0.1,0.2,0.1,0.3,0l0.4-0.2c0.1,0,0.1-0.1,0-0.2l-0.3-0.2c-0.1-0.1-0.2-0.1-0.3,0
							l-0.4,0.2C32.3,53.5,32.3,53.6,32.4,53.6z"/>
						<path class="st37" d="M33.2,53.2l0.3,0.2c0.1,0.1,0.2,0.1,0.3,0l0.4-0.2c0.1,0,0.1-0.1,0-0.2l-0.3-0.2c-0.1-0.1-0.2-0.1-0.3,0
							L33.1,53C33.1,53.1,33.1,53.2,33.2,53.2z"/>
						<path class="st37" d="M33.9,52.8l0.3,0.2c0.1,0.1,0.2,0.1,0.3,0l0.4-0.2c0.1,0,0.1-0.1,0-0.2l-0.3-0.2c-0.1-0.1-0.2-0.1-0.3,0
							l-0.4,0.2C33.8,52.6,33.8,52.7,33.9,52.8z"/>
						<path class="st37" d="M34.7,52.3l0.3,0.2c0.1,0.1,0.2,0.1,0.3,0l0.4-0.2c0.1,0,0.1-0.1,0-0.2l-0.3-0.2c-0.1-0.1-0.2-0.1-0.3,0
							l-0.4,0.2C34.6,52.2,34.6,52.3,34.7,52.3z"/>
						<path class="st37" d="M26.3,56.3l0.3,0.2c0.1,0.1,0.2,0.1,0.3,0l0.6-0.3c0.1,0,0.1-0.1,0-0.2l-0.3-0.2c-0.1-0.1-0.2-0.1-0.3,0
							l-0.6,0.3C26.2,56.1,26.2,56.2,26.3,56.3z"/>
						<path class="st37" d="M27.3,55.7l0.3,0.2c0.1,0.1,0.2,0.1,0.3,0l0.4-0.2c0.1,0,0.1-0.1,0-0.2l-0.3-0.2c-0.1-0.1-0.2-0.1-0.3,0
							l-0.4,0.2C27.2,55.6,27.2,55.7,27.3,55.7z"/>
						<path class="st37" d="M27.9,55.3l0.3,0.2c0.1,0.1,0.2,0.1,0.3,0l0.4-0.2c0.1,0,0.1-0.1,0-0.2L28.6,55c-0.1-0.1-0.2-0.1-0.3,0
							l-0.4,0.2C27.8,55.2,27.8,55.3,27.9,55.3z"/>
						<path class="st37" d="M28.6,55l0.3,0.2c0.1,0.1,0.2,0.1,0.3,0l0.4-0.2c0.1,0,0.1-0.1,0-0.2l-0.3-0.2c-0.1-0.1-0.2-0.1-0.3,0
							l-0.4,0.2C28.5,54.8,28.5,54.9,28.6,55z"/>
						<path class="st37" d="M29.3,54.6l0.3,0.2c0.1,0.1,0.2,0.1,0.3,0l0.4-0.2c0.1,0,0.1-0.1,0-0.2l-0.3-0.2c-0.1-0.1-0.2-0.1-0.3,0
							l-0.4,0.2C29.2,54.4,29.2,54.5,29.3,54.6z"/>
						<path class="st37" d="M29.9,54.2l0.3,0.2c0.1,0.1,0.2,0.1,0.3,0l0.4-0.2c0.1,0,0.1-0.1,0-0.2l-0.3-0.2c-0.1-0.1-0.2-0.1-0.3,0
							L29.9,54C29.8,54,29.8,54.1,29.9,54.2z"/>
						<path class="st37" d="M30.6,53.8l0.3,0.2c0.1,0.1,0.2,0.1,0.3,0l0.4-0.2c0.1,0,0.1-0.1,0-0.2l-0.3-0.2c-0.1-0.1-0.2-0.1-0.3,0
							l-0.4,0.2C30.5,53.7,30.5,53.7,30.6,53.8z"/>
						<path class="st37" d="M31.3,53.4l0.3,0.2c0.1,0.1,0.2,0.1,0.3,0l0.4-0.2c0.1,0,0.1-0.1,0-0.2L31.9,53c-0.1-0.1-0.2-0.1-0.3,0
							l-0.4,0.2C31.2,53.3,31.2,53.4,31.3,53.4z"/>
						<path class="st37" d="M31.9,53l0.3,0.2c0.1,0.1,0.2,0.1,0.3,0L33,53c0.1,0,0.1-0.1,0-0.2l-0.3-0.2c-0.1-0.1-0.2-0.1-0.3,0
							l-0.4,0.2C31.8,52.9,31.8,53,31.9,53z"/>
						<path class="st37" d="M32.6,52.6l0.3,0.2c0.1,0.1,0.2,0.1,0.3,0l0.4-0.2c0.1,0,0.1-0.1,0-0.2l-0.3-0.2c-0.1-0.1-0.2-0.1-0.3,0
							l-0.4,0.2C32.5,52.5,32.5,52.6,32.6,52.6z"/>
						<path class="st37" d="M33.3,52.3l0.3,0.2c0.1,0.1,0.2,0.1,0.3,0l0.4-0.2c0.1,0,0.1-0.1,0-0.2l-0.3-0.2c-0.1-0.1-0.2-0.1-0.3,0
							l-0.4,0.2C33.2,52.1,33.2,52.2,33.3,52.3z"/>
						<path class="st37" d="M26.6,55.2l0.3,0.2c0.1,0.1,0.2,0.1,0.3,0l0.4-0.2c0.1,0,0.1-0.1,0-0.2l-0.3-0.2c-0.1-0.1-0.2-0.1-0.3,0
							L26.6,55C26.5,55.1,26.5,55.1,26.6,55.2z"/>
						<path class="st37" d="M27.3,54.8l0.3,0.2c0.1,0.1,0.2,0.1,0.3,0l0.4-0.2c0.1,0,0.1-0.1,0-0.2L28,54.4c-0.1-0.1-0.2-0.1-0.3,0
							l-0.4,0.2C27.2,54.7,27.2,54.8,27.3,54.8z"/>
						<path class="st37" d="M28,54.4l0.3,0.2c0.1,0.1,0.2,0.1,0.3,0l0.4-0.2c0.1,0,0.1-0.1,0-0.2L28.6,54c-0.1-0.1-0.2-0.1-0.3,0
							l-0.4,0.2C27.9,54.3,27.9,54.4,28,54.4z"/>
						<path class="st37" d="M28.6,54l0.3,0.2c0.1,0.1,0.2,0.1,0.3,0l0.4-0.2c0.1,0,0.1-0.1,0-0.2l-0.3-0.2c-0.1-0.1-0.2-0.1-0.3,0
							l-0.4,0.2C28.5,53.9,28.5,54,28.6,54z"/>
						<path class="st37" d="M29.3,53.7l0.3,0.2c0.1,0.1,0.2,0.1,0.3,0l0.4-0.2c0.1,0,0.1-0.1,0-0.2L30,53.3c-0.1-0.1-0.2-0.1-0.3,0
							l-0.4,0.2C29.2,53.5,29.2,53.6,29.3,53.7z"/>
						<path class="st37" d="M30,53.3l0.3,0.2c0.1,0.1,0.2,0.1,0.3,0l0.4-0.2c0.1,0,0.1-0.1,0-0.2l-0.3-0.2c-0.1-0.1-0.2-0.1-0.3,0
							l-0.4,0.2C29.9,53.1,29.9,53.2,30,53.3z"/>
						<path class="st37" d="M30.6,52.9l0.3,0.2c0.1,0.1,0.2,0.1,0.3,0l0.4-0.2c0.1,0,0.1-0.1,0-0.2l-0.3-0.2c-0.1-0.1-0.2-0.1-0.3,0
							l-0.4,0.2C30.5,52.8,30.5,52.8,30.6,52.9z"/>
						<path class="st37" d="M31.3,52.5l0.3,0.2c0.1,0.1,0.2,0.1,0.3,0l0.4-0.2c0.1,0,0.1-0.1,0-0.2L32,52.1c-0.1-0.1-0.2-0.1-0.3,0
							l-0.4,0.2C31.2,52.4,31.2,52.5,31.3,52.5z"/>
						<path class="st37" d="M26.2,54.6l0.3,0.2c0.1,0.1,0.2,0.1,0.3,0l0.4-0.2c0.1,0,0.1-0.1,0-0.2l-0.3-0.2c-0.1-0.1-0.2-0.1-0.3,0
							l-0.4,0.2C26.1,54.4,26.1,54.5,26.2,54.6z"/>
						<path class="st37" d="M26.9,54.2l0.3,0.2c0.1,0.1,0.2,0.1,0.3,0l0.4-0.2c0.1,0,0.1-0.1,0-0.2l-0.3-0.2c-0.1-0.1-0.2-0.1-0.3,0
							L26.8,54C26.8,54,26.8,54.1,26.9,54.2z"/>
						<path class="st37" d="M27.5,53.8l0.3,0.2c0.1,0.1,0.2,0.1,0.3,0l0.4-0.2c0.1,0,0.1-0.1,0-0.2l-0.3-0.2c-0.1-0.1-0.2-0.1-0.3,0
							l-0.4,0.2C27.4,53.7,27.4,53.7,27.5,53.8z"/>
						<path class="st37" d="M24,54.9l0.3,0.2c0.1,0.1,0.2,0.1,0.3,0l0.4-0.2c0.1,0,0.1-0.1,0-0.2l-0.3-0.2c-0.1-0.1-0.2-0.1-0.3,0
							L24,54.7C23.9,54.8,23.9,54.9,24,54.9z"/>
						<path class="st37" d="M24.7,54.5l0.3,0.2c0.1,0.1,0.2,0.1,0.3,0l0.4-0.2c0.1,0,0.1-0.1,0-0.2l-0.3-0.2c-0.1-0.1-0.2-0.1-0.3,0
							l-0.4,0.2C24.6,54.4,24.6,54.5,24.7,54.5z"/>
						<path class="st37" d="M25.3,54.2l0.3,0.2c0.1,0.1,0.2,0.1,0.3,0l0.4-0.2c0.1,0,0.1-0.1,0-0.2L26,53.8c-0.1-0.1-0.2-0.1-0.3,0
							L25.3,54C25.2,54,25.3,54.1,25.3,54.2z"/>
						<path class="st37" d="M30.3,51.3l0.3,0.2c0.1,0.1,0.2,0.1,0.3,0l0.4-0.2c0.1,0,0.1-0.1,0-0.2l-0.3-0.2c-0.1-0.1-0.2-0.1-0.3,0
							l-0.4,0.2C30.2,51.2,30.2,51.3,30.3,51.3z"/>
						<path class="st37" d="M30.9,50.9l0.3,0.2c0.1,0.1,0.2,0.1,0.3,0l0.4-0.2c0.1,0,0.1-0.1,0-0.2l-0.3-0.2c-0.1-0.1-0.2-0.1-0.3,0
							l-0.4,0.2C30.8,50.8,30.8,50.9,30.9,50.9z"/>
						<path class="st37" d="M31.6,50.6l0.3,0.2c0.1,0.1,0.2,0.1,0.3,0l0.4-0.2c0.1,0,0.1-0.1,0-0.2l-0.3-0.2c-0.1-0.1-0.2-0.1-0.3,0
							l-0.4,0.2C31.5,50.4,31.5,50.5,31.6,50.6z"/>
						<path class="st37" d="M28.2,53.4l0.3,0.2c0.1,0.1,0.2,0.1,0.3,0l0.4-0.2c0.1,0,0.1-0.1,0-0.2L28.9,53c-0.1-0.1-0.2-0.1-0.3,0
							l-0.4,0.2C28.1,53.3,28.1,53.4,28.2,53.4z"/>
						<path class="st37" d="M28.9,53l0.3,0.2c0.1,0.1,0.2,0.1,0.3,0l0.4-0.2c0.1,0,0.1-0.1,0-0.2l-0.3-0.2c-0.1-0.1-0.2-0.1-0.3,0
							l-0.4,0.2C28.7,52.9,28.8,53,28.9,53z"/>
						<path class="st37" d="M29.5,52.6l0.3,0.2c0.1,0.1,0.2,0.1,0.3,0l0.4-0.2c0.1,0,0.1-0.1,0-0.2l-0.3-0.2c-0.1-0.1-0.2-0.1-0.3,0
							l-0.4,0.2C29.4,52.5,29.4,52.6,29.5,52.6z"/>
						<path class="st37" d="M30.2,52.3l0.3,0.2c0.1,0.1,0.2,0.1,0.3,0l0.4-0.2c0.1,0,0.1-0.1,0-0.2l-0.3-0.2c-0.1-0.1-0.2-0.1-0.3,0
							l-0.4,0.2C30.1,52.1,30.1,52.2,30.2,52.3z"/>
						<path class="st37" d="M30.8,51.9l0.3,0.2c0.1,0.1,0.2,0.1,0.3,0l0.4-0.2c0.1,0,0.1-0.1,0-0.2l-0.3-0.2c-0.1-0.1-0.2-0.1-0.3,0
							l-0.4,0.2C30.7,51.7,30.7,51.8,30.8,51.9z"/>
						<path class="st37" d="M31.9,52.1l0.3,0.2c0.1,0.1,0.2,0.1,0.3,0l0.4-0.2c0.1,0,0.1-0.1,0-0.2l-0.3-0.2c-0.1-0.1-0.2-0.1-0.3,0
							l-0.4,0.2C31.8,52,31.9,52.1,31.9,52.1z"/>
						<path class="st37" d="M33.9,51.9l0.3,0.2c0.1,0.1,0.2,0.1,0.3,0l0.4-0.2c0.1,0,0.1-0.1,0-0.2l-0.3-0.2c-0.1-0.1-0.2-0.1-0.3,0
							l-0.4,0.2C33.8,51.8,33.8,51.8,33.9,51.9z"/>
						<path class="st37" d="M25.6,55.8l0.3,0.2c0.1,0.1,0.2,0.1,0.3,0l0.8-0.4c0.1,0,0.1-0.1,0-0.2l-0.3-0.2c-0.1-0.1-0.2-0.1-0.3,0
							l-0.8,0.4C25.5,55.7,25.5,55.8,25.6,55.8z"/>
						<path class="st37" d="M31.5,51.5l0.3,0.2c0.1,0.1,0.2,0.1,0.3,0l1.2-0.7c0.1,0,0.1-0.1,0-0.2L33,50.6c-0.1-0.1-0.2-0.1-0.3,0
							l-1.2,0.7C31.4,51.3,31.5,51.4,31.5,51.5z"/>
						<path class="st37" d="M26.1,53.8l0.3,0.2c0.1,0.1,0.2,0.1,0.3,0l3.9-2.2c0.1,0,0.1-0.1,0-0.2l-0.3-0.2c-0.1-0.1-0.2-0.1-0.3,0
							L26,53.6C26,53.6,26,53.7,26.1,53.8z"/>
						<path class="st37" d="M24.8,55.4l0.3,0.2c0.1,0.1,0.2,0.1,0.3,0l1-0.6c0.1,0,0.1-0.1,0-0.2l-0.3-0.2c-0.1-0.1-0.2-0.1-0.3,0
							l-1,0.6C24.7,55.2,24.7,55.3,24.8,55.4z"/>
						<path class="st37" d="M32.6,51.7l0.3,0.2c0.1,0.1,0.2,0.1,0.3,0l0.9-0.5c0.1,0,0.1-0.1,0-0.2l-0.3-0.2c-0.1-0.1-0.2-0.1-0.3,0
							l-0.9,0.5C32.5,51.6,32.5,51.7,32.6,51.7z"/>
					</g>
					<g>
						<path class="st38" d="M27.5,56.3l-0.4,0.2c-0.1,0-0.1,0.1,0,0.1l0.3,0.2c0.1,0,0.2,0,0.2,0l0.4-0.2c0.1,0,0.1-0.1,0-0.1
							l-0.3-0.2C27.6,56.2,27.5,56.2,27.5,56.3z"/>
						<path class="st38" d="M28.2,55.8l-0.4,0.2c-0.1,0-0.1,0.1,0,0.1l0.3,0.2c0.1,0,0.2,0,0.2,0l0.4-0.2c0.1,0,0.1-0.1,0-0.1
							l-0.3-0.2C28.4,55.8,28.3,55.8,28.2,55.8z"/>
						<path class="st38" d="M29,55.4l-0.4,0.2c-0.1,0-0.1,0.1,0,0.1l0.3,0.2c0.1,0,0.2,0,0.2,0l0.4-0.2c0.1,0,0.1-0.1,0-0.1
							l-0.3-0.2C29.1,55.4,29,55.4,29,55.4z"/>
						<path class="st38" d="M29.7,55l-0.4,0.2c-0.1,0-0.1,0.1,0,0.1l0.3,0.2c0.1,0,0.2,0,0.2,0l0.4-0.2c0.1,0,0.1-0.1,0-0.1L30,55
							C29.9,54.9,29.8,54.9,29.7,55z"/>
						<path class="st38" d="M30.5,54.5l-0.4,0.2c-0.1,0-0.1,0.1,0,0.1l0.3,0.2c0.1,0,0.2,0,0.2,0l0.4-0.2c0.1,0,0.1-0.1,0-0.1
							l-0.3-0.2C30.7,54.5,30.6,54.5,30.5,54.5z"/>
						<path class="st38" d="M31.3,54.1l-0.4,0.2c-0.1,0-0.1,0.1,0,0.1l0.3,0.2c0.1,0,0.2,0,0.2,0l0.4-0.2c0.1,0,0.1-0.1,0-0.1
							l-0.3-0.2C31.4,54.1,31.3,54.1,31.3,54.1z"/>
						<path class="st38" d="M32,53.7l-0.4,0.2c-0.1,0-0.1,0.1,0,0.1l0.3,0.2c0.1,0,0.2,0,0.2,0l0.4-0.2c0.1,0,0.1-0.1,0-0.1
							l-0.3-0.2C32.2,53.6,32.1,53.6,32,53.7z"/>
						<path class="st38" d="M32.8,53.2l-0.4,0.2c-0.1,0-0.1,0.1,0,0.1l0.3,0.2c0.1,0,0.2,0,0.2,0l0.4-0.2c0.1,0,0.1-0.1,0-0.1
							L33,53.2C32.9,53.2,32.8,53.2,32.8,53.2z"/>
						<path class="st38" d="M33.5,52.8L33.1,53c-0.1,0-0.1,0.1,0,0.1l0.3,0.2c0.1,0,0.2,0,0.2,0l0.4-0.2c0.1,0,0.1-0.1,0-0.1
							l-0.3-0.2C33.7,52.8,33.6,52.7,33.5,52.8z"/>
						<path class="st38" d="M34.3,52.3l-0.4,0.2c-0.1,0-0.1,0.1,0,0.1l0.3,0.2c0.1,0,0.2,0,0.2,0l0.4-0.2c0.1,0,0.1-0.1,0-0.1
							l-0.3-0.2C34.4,52.3,34.3,52.3,34.3,52.3z"/>
						<path class="st38" d="M35,51.9l-0.4,0.2c-0.1,0-0.1,0.1,0,0.1l0.3,0.2c0.1,0,0.2,0,0.2,0l0.4-0.2c0.1,0,0.1-0.1,0-0.1
							l-0.3-0.2C35.2,51.9,35.1,51.9,35,51.9z"/>
						<path class="st38" d="M26.9,55.7L26.3,56c-0.1,0-0.1,0.1,0,0.1l0.3,0.2c0.1,0,0.2,0,0.2,0l0.6-0.3c0.1,0,0.1-0.1,0-0.1
							l-0.3-0.2C27.1,55.7,27,55.7,26.9,55.7z"/>
						<path class="st38" d="M27.6,55.3l-0.4,0.2c-0.1,0-0.1,0.1,0,0.1l0.3,0.2c0.1,0,0.2,0,0.2,0l0.4-0.2c0.1,0,0.1-0.1,0-0.1
							l-0.3-0.2C27.8,55.3,27.7,55.3,27.6,55.3z"/>
						<path class="st38" d="M28.3,54.9l-0.4,0.2c-0.1,0-0.1,0.1,0,0.1l0.3,0.2c0.1,0,0.2,0,0.2,0l0.4-0.2c0.1,0,0.1-0.1,0-0.1
							l-0.3-0.2C28.4,54.9,28.3,54.9,28.3,54.9z"/>
						<path class="st38" d="M29,54.5l-0.4,0.2c-0.1,0-0.1,0.1,0,0.1l0.3,0.2c0.1,0,0.2,0,0.2,0l0.4-0.2c0.1,0,0.1-0.1,0-0.1
							l-0.3-0.2C29.1,54.5,29,54.5,29,54.5z"/>
						<path class="st38" d="M29.6,54.1l-0.4,0.2c-0.1,0-0.1,0.1,0,0.1l0.3,0.2c0.1,0,0.2,0,0.2,0l0.4-0.2c0.1,0,0.1-0.1,0-0.1
							l-0.3-0.2C29.8,54.1,29.7,54.1,29.6,54.1z"/>
						<path class="st38" d="M30.3,53.8L29.9,54c-0.1,0-0.1,0.1,0,0.1l0.3,0.2c0.1,0,0.2,0,0.2,0l0.4-0.2c0.1,0,0.1-0.1,0-0.1
							l-0.3-0.2C30.5,53.7,30.4,53.7,30.3,53.8z"/>
						<path class="st38" d="M31,53.4l-0.4,0.2c-0.1,0-0.1,0.1,0,0.1l0.3,0.2c0.1,0,0.2,0,0.2,0l0.4-0.2c0.1,0,0.1-0.1,0-0.1
							l-0.3-0.2C31.1,53.3,31,53.3,31,53.4z"/>
						<path class="st38" d="M31.6,53l-0.4,0.2c-0.1,0-0.1,0.1,0,0.1l0.3,0.2c0.1,0,0.2,0,0.2,0l0.4-0.2c0.1,0,0.1-0.1,0-0.1L31.9,53
							C31.8,53,31.7,53,31.6,53z"/>
						<path class="st38" d="M32.3,52.6l-0.4,0.2c-0.1,0-0.1,0.1,0,0.1l0.3,0.2c0.1,0,0.2,0,0.2,0l0.4-0.2c0.1,0,0.1-0.1,0-0.1
							l-0.3-0.2C32.5,52.6,32.4,52.6,32.3,52.6z"/>
						<path class="st38" d="M33,52.2l-0.4,0.2c-0.1,0-0.1,0.1,0,0.1l0.3,0.2c0.1,0,0.2,0,0.2,0l0.4-0.2c0.1,0,0.1-0.1,0-0.1
							l-0.3-0.2C33.1,52.2,33,52.2,33,52.2z"/>
						<path class="st38" d="M33.6,51.8L33.3,52c-0.1,0-0.1,0.1,0,0.1l0.3,0.2c0.1,0,0.2,0,0.2,0l0.4-0.2c0.1,0,0.1-0.1,0-0.1
							l-0.3-0.2C33.8,51.8,33.7,51.8,33.6,51.8z"/>
						<path class="st38" d="M27,54.8L26.6,55c-0.1,0-0.1,0.1,0,0.1l0.3,0.2c0.1,0,0.2,0,0.2,0l0.4-0.2c0.1,0,0.1-0.1,0-0.1l-0.3-0.2
							C27.2,54.7,27.1,54.7,27,54.8z"/>
						<path class="st38" d="M27.7,54.4l-0.4,0.2c-0.1,0-0.1,0.1,0,0.1l0.3,0.2c0.1,0,0.2,0,0.2,0l0.4-0.2c0.1,0,0.1-0.1,0-0.1
							l-0.3-0.2C27.8,54.4,27.7,54.4,27.7,54.4z"/>
						<path class="st38" d="M28.3,54L28,54.2c-0.1,0-0.1,0.1,0,0.1l0.3,0.2c0.1,0,0.2,0,0.2,0l0.4-0.2c0.1,0,0.1-0.1,0-0.1L28.6,54
							C28.5,54,28.4,54,28.3,54z"/>
						<path class="st38" d="M29,53.6l-0.4,0.2c-0.1,0-0.1,0.1,0,0.1l0.3,0.2c0.1,0,0.2,0,0.2,0l0.4-0.2c0.1,0,0.1-0.1,0-0.1
							l-0.3-0.2C29.2,53.6,29,53.6,29,53.6z"/>
						<path class="st38" d="M29.7,53.2l-0.4,0.2c-0.1,0-0.1,0.1,0,0.1l0.3,0.2c0.1,0,0.2,0,0.2,0l0.4-0.2c0.1,0,0.1-0.1,0-0.1
							l-0.3-0.2C29.8,53.2,29.7,53.2,29.7,53.2z"/>
						<path class="st38" d="M30.3,52.9l-0.4,0.2c-0.1,0-0.1,0.1,0,0.1l0.3,0.2c0.1,0,0.2,0,0.2,0l0.4-0.2c0.1,0,0.1-0.1,0-0.1
							l-0.3-0.2C30.5,52.8,30.4,52.8,30.3,52.9z"/>
						<path class="st38" d="M31,52.5l-0.4,0.2c-0.1,0-0.1,0.1,0,0.1L31,53c0.1,0,0.2,0,0.2,0l0.4-0.2c0.1,0,0.1-0.1,0-0.1l-0.3-0.2
							C31.1,52.4,31,52.4,31,52.5z"/>
						<path class="st38" d="M31.6,52.1l-0.4,0.2c-0.1,0-0.1,0.1,0,0.1l0.3,0.2c0.1,0,0.2,0,0.2,0l0.4-0.2c0.1,0,0.1-0.1,0-0.1
							l-0.3-0.2C31.8,52.1,31.7,52.1,31.6,52.1z"/>
						<path class="st38" d="M26.6,54.1l-0.4,0.2c-0.1,0-0.1,0.1,0,0.1l0.3,0.2c0.1,0,0.2,0,0.2,0l0.4-0.2c0.1,0,0.1-0.1,0-0.1
							l-0.3-0.2C26.7,54.1,26.6,54.1,26.6,54.1z"/>
						<path class="st38" d="M27.2,53.8L26.9,54c-0.1,0-0.1,0.1,0,0.1l0.3,0.2c0.1,0,0.2,0,0.2,0l0.4-0.2c0.1,0,0.1-0.1,0-0.1
							l-0.3-0.2C27.4,53.7,27.3,53.7,27.2,53.8z"/>
						<path class="st38" d="M27.9,53.4l-0.4,0.2c-0.1,0-0.1,0.1,0,0.1l0.3,0.2c0.1,0,0.2,0,0.2,0l0.4-0.2c0.1,0,0.1-0.1,0-0.1
							l-0.3-0.2C28.1,53.3,27.9,53.3,27.9,53.4z"/>
						<path class="st38" d="M24.4,54.5L24,54.7c-0.1,0-0.1,0.1,0,0.1l0.3,0.2c0.1,0,0.2,0,0.2,0l0.4-0.2c0.1,0,0.1-0.1,0-0.1
							l-0.3-0.2C24.5,54.5,24.4,54.5,24.4,54.5z"/>
						<path class="st38" d="M25,54.1l-0.4,0.2c-0.1,0-0.1,0.1,0,0.1l0.3,0.2c0.1,0,0.2,0,0.2,0l0.4-0.2c0.1,0,0.1-0.1,0-0.1
							l-0.3-0.2C25.2,54.1,25.1,54.1,25,54.1z"/>
						<path class="st38" d="M25.7,53.7L25.3,54c-0.1,0-0.1,0.1,0,0.1l0.3,0.2c0.1,0,0.2,0,0.2,0l0.4-0.2c0.1,0,0.1-0.1,0-0.1
							l-0.3-0.2C25.9,53.7,25.8,53.7,25.7,53.7z"/>
						<g>
							<path class="st38" d="M30.6,50.9l-0.4,0.2c-0.1,0-0.1,0.1,0,0.1l0.3,0.2c0.1,0,0.2,0,0.2,0l0.4-0.2c0.1,0,0.1-0.1,0-0.1
								l-0.3-0.2C30.8,50.9,30.7,50.9,30.6,50.9z"/>
							<path class="st38" d="M31.3,50.5l-0.4,0.2c-0.1,0-0.1,0.1,0,0.1l0.3,0.2c0.1,0,0.2,0,0.2,0l0.4-0.2c0.1,0,0.1-0.1,0-0.1
								l-0.3-0.2C31.5,50.5,31.4,50.5,31.3,50.5z"/>
							<path class="st38" d="M32,50.1l-0.4,0.2c-0.1,0-0.1,0.1,0,0.1l0.3,0.2c0.1,0,0.2,0,0.2,0l0.4-0.2c0.1,0,0.1-0.1,0-0.1
								l-0.3-0.2C32.1,50.1,32,50.1,32,50.1z"/>
						</g>
						<path class="st38" d="M28.6,53l-0.4,0.2c-0.1,0-0.1,0.1,0,0.1l0.3,0.2c0.1,0,0.2,0,0.2,0l0.4-0.2c0.1,0,0.1-0.1,0-0.1L28.8,53
							C28.7,53,28.6,53,28.6,53z"/>
						<path class="st38" d="M29.2,52.6l-0.4,0.2c-0.1,0-0.1,0.1,0,0.1l0.3,0.2c0.1,0,0.2,0,0.2,0l0.4-0.2c0.1,0,0.1-0.1,0-0.1
							l-0.3-0.2C29.4,52.6,29.3,52.6,29.2,52.6z"/>
						<path class="st38" d="M29.9,52.2l-0.4,0.2c-0.1,0-0.1,0.1,0,0.1l0.3,0.2c0.1,0,0.2,0,0.2,0l0.4-0.2c0.1,0,0.1-0.1,0-0.1
							l-0.3-0.2C30,52.2,29.9,52.2,29.9,52.2z"/>
						<path class="st38" d="M30.5,51.8l-0.4,0.2c-0.1,0-0.1,0.1,0,0.1l0.3,0.2c0.1,0,0.2,0,0.2,0l0.4-0.2c0.1,0,0.1-0.1,0-0.1
							l-0.3-0.2C30.7,51.8,30.6,51.8,30.5,51.8z"/>
						<path class="st38" d="M31.2,51.5l-0.4,0.2c-0.1,0-0.1,0.1,0,0.1l0.3,0.2c0.1,0,0.2,0,0.2,0l0.4-0.2c0.1,0,0.1-0.1,0-0.1
							l-0.3-0.2C31.4,51.4,31.3,51.4,31.2,51.5z"/>
						<path class="st38" d="M32.3,51.7l-0.4,0.2c-0.1,0-0.1,0.1,0,0.1l0.3,0.2c0.1,0,0.2,0,0.2,0l0.4-0.2c0.1,0,0.1-0.1,0-0.1
							l-0.3-0.2C32.5,51.7,32.4,51.7,32.3,51.7z"/>
						<path class="st38" d="M34.3,51.5l-0.4,0.2c-0.1,0-0.1,0.1,0,0.1l0.3,0.2c0.1,0,0.2,0,0.2,0l0.4-0.2c0.1,0,0.1-0.1,0-0.1
							l-0.3-0.2C34.4,51.4,34.3,51.4,34.3,51.5z"/>
						<path class="st38" d="M26.3,55.2l-0.8,0.4c-0.1,0-0.1,0.1,0,0.1l0.3,0.2c0.1,0,0.2,0,0.2,0l0.8-0.4c0.1,0,0.1-0.1,0-0.1
							l-0.3-0.2C26.5,55.1,26.4,55.1,26.3,55.2z"/>
						<path class="st38" d="M32.7,50.6l-1.2,0.7c-0.1,0-0.1,0.1,0,0.1l0.3,0.2c0.1,0,0.2,0,0.2,0l1.2-0.7c0.1,0,0.1-0.1,0-0.1
							L33,50.6C32.9,50.5,32.8,50.5,32.7,50.6z"/>
						<path class="st38" d="M29.9,51.3L26,53.5c-0.1,0-0.1,0.1,0,0.1l0.3,0.2c0.1,0,0.2,0,0.2,0l3.9-2.2c0.1,0,0.1-0.1,0-0.1
							l-0.3-0.2C30.1,51.3,30,51.3,29.9,51.3z"/>
						<path class="st38" d="M25.8,54.6l-1,0.6c-0.1,0-0.1,0.1,0,0.1l0.3,0.2c0.1,0,0.2,0,0.2,0l1-0.6c0.1,0,0.1-0.1,0-0.1L26,54.6
							C26,54.5,25.9,54.5,25.8,54.6z"/>
						<path class="st38" d="M33.5,51l-0.9,0.5c-0.1,0-0.1,0.1,0,0.1l0.3,0.2c0.1,0,0.2,0,0.2,0l0.9-0.5c0.1,0,0.1-0.1,0-0.1L33.7,51
							C33.7,51,33.6,51,33.5,51z"/>
					</g>
				</g>
				<g>
					<path class="st20" d="M28.2,57.6l8.8-5.3c0.1,0,0.2-0.2,0.2-0.3l0.2-6.7c0-0.1-0.3-0.2-0.3-0.2l-8.9,5.2
						c-0.1,0-0.2,0.2-0.2,0.3v6.8C27.9,57.4,28.1,57.6,28.2,57.6z"/>
					<path class="st39" d="M28.3,57.5l8.9-5.2c0.1,0,0.2-0.2,0.2-0.3v-6.8c0-0.1-0.1-0.1-0.2-0.1l-8.9,5.2c-0.1,0-0.2,0.2-0.2,0.3
						v6.8C28.1,57.5,28.2,57.6,28.3,57.5z"/>
				</g>
			</g>
			<path class="st23" d="M24.7,54.6c0,0-0.3,0.2-0.4-0.1c-0.1-0.2-0.7-0.5-0.7-0.5L23,53.8c0,0-1.7-0.1-2-0.2
				c-0.3-0.1-2.4-1.5-2.5-1.6c-0.1-0.1-3.1-1.5-3.4-1.8c-0.3-0.3-1.2-0.7-1.5-1.3c-0.3-0.6,0-1.4,0-1.4c0.5-0.8,1.6-1,2.2-0.8
				c0.6,0.2,2,2.7,2.3,2.9c0.2,0.2,3,2.2,3,2.2s2.1-0.6,2.2-0.6c0.1,0,1.6,0.2,1.6,0.2c0,0.1,0.6,0.4,0.6,0.4s0.4,0.3,0.3,0.4
				c-0.1,0.1-0.4,0.1-0.5,0C25.3,52.2,25,52,25,52l-0.8-0.2l0.8,0.4l0.6,0.6c0,0,0.3,0.6,0.3,0.7c0,0.1-0.2,0.2-0.3,0
				c-0.1-0.2-0.3-0.3-0.3-0.3l0.3,0.5c0,0,0,0.4-0.4,0.1c-0.5-0.3-0.2-0.2-1.2-0.7l-0.8-0.1l1.2,1L24.7,54.6z"/>
		</g>
		<g>
			<g id="Axo_Extrusion_00000075157767059333958640000011779232128715355780_">
				<g id="Axo_Surface_x2A__00000081645655966288043340000016470124943976540862_">
					<polygon id="Axo_panel_00000008141182311942026780000002134619305674225538_" class="st40" points="48.1,40.8 50.6,34.3 
						57.9,30.1 55.3,36.6 					"/>
					<polygon id="Axo_panel_00000070118351364632088190000002357590864152995727_" class="st41" points="50.6,34.3 50.2,33.8 
						57.4,29.7 57.9,30.1 					"/>
				</g>
				<polygon id="Axo_base_00000179648007868643573260000013707110585905110675_" class="st42" points="48.1,40.8 47.6,40.3 
					50.2,33.8 50.6,34.3 				"/>
			</g>
			<g id="Axo_Compound_Extrusion_00000143608260207960550040000000492006881975638971_">
				<g id="Axo_Extrusion_00000047038269490894834880000018311682491670264721_">
					<g id="Axo_Surface">
						<polygon id="Axo_panel_00000031204197627103297620000017547905400393431443_" class="st19" points="49.3,38.6 48.4,40.8 
							55.6,36.7 56.6,34.4 						"/>
						<polygon id="Axo_panel" class="st43" points="48.4,40.8 50.6,42.1 57.9,37.9 55.6,36.7 						"/>
					</g>
					<polygon id="Axo_panel_00000073692765609419662880000017495195670157463688_" class="st44" points="50.9,42.4 49.3,38.2 
						56.5,34 58.1,38.3 					"/>
				</g>
				<path id="Axo_Compound" class="st19" d="M50.9,42.4l-2.7-1.6l1.1-2.7L50.9,42.4z M48.4,40.8l2.2,1.3l-1.3-3.5L48.4,40.8z"/>
			</g>
		</g>
		<path id="Axo_base_00000093896295894927409650000014605592007632121774_" class="st12" d="M30.2,52.1c-0.1,0-0.1-0.2-0.1-0.3
			c0-0.3,0.2-0.7,0.5-0.8c0.1-0.1,0.2-0.1,0.3,0c0.1,0,0.1,0.2,0.1,0.3c0,0.3-0.2,0.7-0.5,0.8C30.4,52.1,30.3,52.1,30.2,52.1z"/>
		<path class="st22" d="M34.8,50.1c0,0-0.1-0.9-0.7-0.3c-0.3,0.4,0.3,1.6,0.3,1.6s1.4-0.5,1.3-1.1C35.5,49.8,34.8,50.1,34.8,50.1z"
			/>
		<g>
			<path class="st45" d="M29.2,55.1L29.2,55.1C29.2,55.2,29.1,55.2,29.2,55.1c-0.1,0.1-0.2,0.1-0.2,0.1c0,0,0-0.1,0-0.1
				c0,0,0-0.1,0-0.1c0-0.1,0.1-0.2,0.2-0.3c0,0,0.1-0.1,0.1-0.1c0,0,0,0,0.1,0c0.1,0,0.1,0,0.1,0.1c0,0,0,0,0,0.1
				c0,0.1-0.1,0.2-0.1,0.2c0,0,0,0-0.1,0c0,0,0,0,0,0c0,0,0.1-0.1,0.1-0.1c0,0,0-0.1,0-0.1c0,0,0,0,0,0c0,0,0,0,0,0c0,0,0,0-0.1,0
				c0,0,0,0.1-0.1,0.1c0,0.1-0.1,0.1-0.1,0.2c0,0.1,0,0.1,0,0.2c0,0,0,0.1,0,0.1C29.1,55.2,29.1,55.2,29.2,55.1c0,0,0-0.1,0-0.1
				c0-0.1,0-0.1,0.1-0.1c0,0,0,0,0,0C29.3,55,29.3,55.1,29.2,55.1C29.3,55.1,29.3,55.1,29.2,55.1c0.1,0.1,0.1,0.1,0.1,0.2
				c0,0,0,0.1,0,0.1c0,0.1-0.1,0.2-0.2,0.2c-0.1,0-0.1,0-0.1-0.1c0-0.1,0-0.1,0.1-0.2c0,0,0,0,0.1,0c0,0,0,0,0,0.1c0,0-0.1,0-0.1,0
				c0,0-0.1,0.1-0.1,0.1c0,0.1,0.1,0.1,0.1,0c0,0,0,0,0-0.1c0,0,0-0.1,0-0.1c0,0,0,0,0-0.1C29.2,55.2,29.2,55.2,29.2,55.1z"/>
			<path class="st45" d="M29.6,54.7c0,0.1,0,0.2,0,0.2c0,0,0,0.1-0.1,0.1c0,0-0.1,0-0.1,0c0,0,0,0,0,0c0,0,0-0.1,0-0.1c0,0,0,0,0,0
				c0,0,0,0,0,0c0,0.1,0,0.1,0,0.1c0,0,0,0,0,0c0,0,0,0,0,0C29.5,54.8,29.5,54.8,29.6,54.7C29.5,54.7,29.5,54.7,29.6,54.7
				c-0.1,0.1-0.1,0.1-0.1,0C29.5,54.7,29.5,54.7,29.6,54.7C29.5,54.6,29.5,54.6,29.6,54.7C29.6,54.6,29.6,54.7,29.6,54.7z"/>
			<path class="st45" d="M29.8,54.6c0,0.1,0,0.2,0,0.2c0,0,0,0.1-0.1,0.1c0,0-0.1,0-0.1,0c0,0,0,0,0,0c0,0,0-0.1,0-0.1c0,0,0,0,0,0
				c0,0,0,0,0,0c0,0,0,0.1,0,0.1c0,0,0,0,0,0c0,0,0,0,0,0C29.7,54.7,29.7,54.7,29.8,54.6C29.7,54.6,29.7,54.6,29.8,54.6
				c-0.1,0.1-0.1,0.1-0.1,0C29.7,54.6,29.7,54.6,29.8,54.6C29.7,54.5,29.7,54.5,29.8,54.6C29.8,54.5,29.8,54.5,29.8,54.6z"/>
			<path class="st45" d="M30,54.4C30,54.4,30,54.4,30,54.4c0-0.1,0-0.2,0-0.2c0,0,0,0,0-0.1c0,0,0,0,0,0c0,0,0,0,0,0
				C30.1,54.3,30,54.4,30,54.4c0.1,0,0.1,0.1,0.1,0.1c0,0.1,0,0,0.1-0.1c0,0,0,0,0,0c0,0,0,0,0,0c0,0,0,0.1,0,0.1c0,0,0,0.1,0,0.1
				c0,0-0.1,0.1-0.1,0.1c0,0,0,0,0,0c0,0,0,0,0,0c0,0.1-0.1,0.1-0.1,0c0,0,0,0,0,0c0-0.1,0-0.1,0-0.2C29.9,54.5,29.9,54.5,30,54.4
				C29.9,54.4,29.9,54.4,30,54.4C30,54.4,30,54.4,30,54.4z M30,54.5c-0.1,0.1-0.1,0.2-0.1,0.2c0,0,0,0,0,0C30,54.6,30,54.5,30,54.5z
				"/>
			<path class="st45" d="M29.4,55.5c0,0.1,0,0.1,0,0.1c0,0.1,0,0.2-0.1,0.3c0,0.1,0,0.2-0.1,0.3c0,0,0,0.1,0,0.1c0,0,0,0,0,0
				c0-0.1,0-0.2,0-0.3c0-0.1,0-0.1,0-0.2c0,0,0,0,0,0c0,0,0,0,0,0c0,0,0,0,0,0c0,0,0,0,0,0.1c0,0.1,0,0.1,0,0.2c0,0,0,0.1,0,0.1
				c0,0,0-0.1,0-0.1c0-0.1,0-0.1,0-0.2c0,0,0-0.1,0-0.1c0-0.1,0.1-0.1,0.1,0c0,0,0,0,0,0.1c0,0,0,0.1,0,0.1c0,0.1,0,0.1,0,0.2
				c0,0,0,0,0,0c0,0,0-0.1,0-0.1c0-0.1,0-0.2,0.1-0.3C29.4,55.6,29.4,55.6,29.4,55.5C29.4,55.5,29.4,55.5,29.4,55.5
				C29.4,55.5,29.4,55.5,29.4,55.5C29.4,55.5,29.5,55.5,29.4,55.5z"/>
			<path class="st45" d="M29.4,56.1c0-0.1,0-0.2,0-0.3c0,0,0,0,0-0.1c0,0,0,0,0,0C29.5,55.9,29.5,56,29.4,56.1
				C29.5,56,29.5,56,29.4,56.1c0.1-0.1,0.1-0.1,0.1-0.1c0,0,0-0.1,0.1-0.1c0,0,0,0,0,0c0,0,0,0,0,0c0,0,0,0,0,0c0,0,0,0,0,0
				c0,0.1-0.1,0.1-0.1,0.2c0,0,0,0.1,0,0.1C29.5,56.1,29.5,56.1,29.4,56.1C29.4,56.2,29.4,56.2,29.4,56.1
				C29.4,56.1,29.4,56.1,29.4,56.1z M29.5,55.6C29.5,55.6,29.5,55.6,29.5,55.6C29.5,55.7,29.5,55.7,29.5,55.6
				C29.5,55.6,29.5,55.6,29.5,55.6C29.5,55.6,29.5,55.6,29.5,55.6z"/>
			<path class="st45" d="M29.8,55.7L29.8,55.7c0,0,0.1,0,0.1,0c0,0,0,0.1,0,0.1c-0.1,0.1-0.1,0.1-0.2,0.2c0,0,0,0,0,0c0,0,0,0-0.1,0
				c0,0,0,0,0,0c0,0,0,0,0,0C29.7,55.8,29.7,55.8,29.8,55.7c-0.1,0.1-0.1,0.1-0.1,0.2c0,0,0,0.1,0,0.1c0,0,0,0,0,0c0,0,0,0,0,0
				c0,0,0,0,0,0c0-0.2,0-0.3,0-0.5c0,0,0,0,0,0c0,0,0-0.1,0-0.1c0,0,0,0,0,0l0,0.1c0,0,0,0,0,0C29.7,55.6,29.7,55.6,29.8,55.7
				C29.7,55.6,29.8,55.6,29.8,55.7C29.8,55.6,29.8,55.6,29.8,55.7z"/>
			<path class="st45" d="M29.9,55.8c0-0.1,0.1-0.2,0.1-0.3c0,0,0,0,0,0c0,0,0,0,0,0.1c0,0,0,0,0,0c0,0-0.1,0.1-0.1,0.1
				C30,55.7,30,55.7,29.9,55.8c0.1,0,0.1,0,0.1,0c0,0,0,0,0-0.1c0,0,0.1-0.1,0.1-0.1c0,0,0,0,0,0c0,0,0,0,0,0c0,0,0,0,0,0
				c0,0.1-0.1,0.2-0.1,0.2C30,55.8,30,55.8,29.9,55.8C29.9,55.8,29.9,55.8,29.9,55.8L29.9,55.8z M30,55.5C30,55.6,30,55.6,30,55.5
				C30,55.6,30,55.6,30,55.5C30,55.6,30,55.5,30,55.5z"/>
			<path class="st45" d="M30.2,55.3C30.3,55.3,30.3,55.3,30.2,55.3c0.1,0,0.1,0,0.1,0C30.3,55.3,30.3,55.3,30.2,55.3
				C30.3,55.4,30.3,55.4,30.2,55.3C30.3,55.3,30.3,55.3,30.2,55.3c0,0.1,0,0.1,0,0.1c0,0,0,0,0.1,0c0,0,0,0,0,0
				c0-0.1,0.1-0.1,0.1-0.1c0,0,0,0,0,0.1c0,0.1-0.1,0.1-0.1,0.2c0,0,0,0.1-0.1,0.1c-0.1,0.1-0.1-0.1-0.1-0.2c0,0,0,0,0,0
				c0,0.1,0,0.1,0.1,0.1c0,0,0-0.1,0-0.1c0,0,0,0-0.1,0C30.2,55.4,30.2,55.4,30.2,55.3C30.2,55.3,30.2,55.3,30.2,55.3z"/>
		</g>
	</g>
	<path class="st15" d="M17.3,31.1l0.4-0.2c0,0-0.1-0.6-0.2-1s0.1-0.7,0-0.8S17,29.7,17,30C17,30.3,17,30.9,17.3,31.1z"/>
	<g>
		<g>
			<g id="Axo_Extrusion_00000119117949790382439960000015612341051048905645_">
				<path id="Axo_panel_00000108271536429983990300000002741988127645743259_" class="st12" d="M44.5,49.2c0,0.2,0.4,0.3,0.7,0.4
					c0.5,0.3,1.2,0.3,1.7,0c0.2-0.1,0.7-0.3,0.7-0.5l-0.3,3.2c0,0.6-1.3,0.9-2,0.5c-0.2-0.1-0.3-0.3-0.3-0.5L44.5,49.2z"/>
				<g id="Axo_Extrusion_00000036218765180646070980000005594328452003116205_">
					<path id="Axo_panel_00000005950324956097463330000017928344105196087220_" class="st46" d="M44.3,48.9c0,0.9,1.8,1.3,2.8,0.7
						c0.3-0.2,0.5-0.4,0.5-0.7v0.3c0,0.2-0.2,0.5-0.5,0.7c-1,0.6-2.8,0.2-2.8-0.7V48.9z"/>
					<path id="Axo_base_00000012462996302715468470000009040844855369297810_" class="st9" d="M44.3,48.9c0-0.2,0.2-0.5,0.5-0.7
						c0.6-0.4,1.7-0.4,2.3,0c0.6,0.4,0.7,1,0,1.3C46.1,50.1,44.3,49.7,44.3,48.9z"/>
				</g>
				<g id="Axo_Extrusion_00000087388681725000242960000014384090607163154067_">
					<path id="Axo_panel_00000075161228496637335830000011045313414877755530_" class="st46" d="M44.8,48.5c0,0.6,1.2,0.9,1.9,0.5
						c0.2-0.1,0.3-0.3,0.3-0.5v0.2c0,0.6-1.2,0.9-1.9,0.5C44.8,49,44.8,48.7,44.8,48.5z"/>
					<path id="Axo_base_00000016763126002005831200000015764950354740017814_" class="st47" d="M44.8,48.5c0-0.6,1.2-0.9,1.9-0.5
						c0.4,0.2,0.5,0.7,0,0.9C46.1,49.4,44.8,49.1,44.8,48.5z"/>
				</g>
			</g>
			<path class="st9" d="M45.1,51.6c0,0-0.4-0.3-0.2-0.6c0.2-0.4,0.6-0.2,0.6-0.2s-0.1,0-0.2,0.2c-0.1,0.1,0,0.2,0,0.4
				C45.3,51.5,45.1,51.6,45.1,51.6z"/>
			<path class="st9" d="M45.1,51.6c0,0,0.3,0,0.4-0.2c0-0.2-0.2-0.2-0.2-0.4c0-0.1,0.1-0.2,0.1-0.2s0.3,0.2,0.3,0.5
				C45.7,51.6,45.3,51.8,45.1,51.6z"/>
		</g>
		<path class="st46" d="M45.2,48.9l1.5-0.8c0,0,0.1,0.1,0,0.2c-0.1,0.1-1.1,0.7-1.3,0.7C45.3,49,45.2,48.9,45.2,48.9z"/>
		<path class="st46" d="M45.3,48.2c0,0-0.2,0.1-0.1,0.1c0.1,0,0.3-0.1,0.3-0.1C45.5,48.2,45.4,48.2,45.3,48.2z"/>
	</g>
</g>
</svg>
