<?xml version="1.0" encoding="utf-8"?>
<!-- Generator: Adobe Illustrator 23.1.1, SVG Export Plug-In . SVG Version: 6.00 Build 0)  -->
<svg version="1.1" id="Capa_1" xmlns="http://www.w3.org/2000/svg" xmlns:xlink="http://www.w3.org/1999/xlink" x="0px" y="0px"
	 viewBox="0 0 1000 1000" style="enable-background:new 0 0 1000 1000;" xml:space="preserve">
<style type="text/css">
	.st0{fill:#E0E0DF;}
	.st1{fill:#F5F5F5;}
	.st2{fill:#FFFFFF;}
	.st3{fill:#ECEBEB;}
	.st4{fill:#253137;}
	.st5{fill:#445862;}
	.st6{fill:#CD6A5F;}
	.st7{fill:#E4B59C;}
	.st8{fill:#D78F6F;}
	.st9{fill:#A9705F;}
	.st10{fill:#6C4338;}
	.st11{fill:#FCFCFC;}
	.st12{opacity:0.6;}
	.st13{opacity:0.3;}
	.st14{fill:#040006;}
</style>
<g>
	
		<ellipse transform="matrix(0.7071 -0.7071 0.7071 0.7071 -305.6366 823.5669)" class="st0" cx="841.3" cy="780.7" rx="99.6" ry="99.6"/>
	<path class="st0" d="M932.2,753.4l-10.4-14.5c5.9-4.2,9.3-11.9,8.5-19.1c-0.8-7.2-5.8-13.9-12.5-16.7c-6.7-2.8-15-1.7-20.7,2.7
		L886,691.7c10.8-8.4,26-10.4,38.6-5.1c12.6,5.3,21.8,17.6,23.3,31.2C949.5,731.4,943.3,745.4,932.2,753.4z"/>
</g>
<g>
	<rect x="550.6" y="387.6" class="st1" width="43.9" height="93.9"/>
	<rect x="596.3" y="488.1" class="st1" width="53.9" height="90.7"/>
	<polygon class="st1" points="656.7,386 707.9,386 707.9,302.7 709.7,302.7 709.7,386 757.1,386 757.1,300.9 656.7,300.9 	"/>
	<rect x="550.6" y="488.1" class="st1" width="43.9" height="90.7"/>
	<rect x="709.7" y="488.1" class="st1" width="47.4" height="90.7"/>
	<rect x="596.3" y="387.6" class="st1" width="53.9" height="93.9"/>
	<rect x="709.7" y="387.6" class="st1" width="47.4" height="93.9"/>
	<rect x="550.6" y="580.4" class="st1" width="43.9" height="81.7"/>
	<polygon class="st1" points="594.4,386 594.4,302.7 596.3,302.7 596.3,386 650.2,386 650.2,300.9 550.6,300.9 550.6,386 	"/>
	<rect x="596.3" y="580.4" class="st1" width="53.9" height="81.7"/>
	<rect x="709.7" y="580.4" class="st1" width="47.4" height="81.7"/>
	<rect x="656.7" y="387.6" class="st1" width="51.2" height="93.9"/>
	<rect x="656.7" y="580.4" class="st1" width="51.2" height="81.7"/>
	<rect x="656.7" y="488.1" class="st1" width="51.2" height="90.7"/>
</g>
<g>
	<rect x="336.8" y="387.6" class="st1" width="43.9" height="93.9"/>
	<rect x="382.5" y="488.1" class="st1" width="53.9" height="90.7"/>
	<polygon class="st1" points="443,386 494.1,386 494.1,302.7 496,302.7 496,386 543.3,386 543.3,300.9 443,300.9 	"/>
	<rect x="336.8" y="488.1" class="st1" width="43.9" height="90.7"/>
	<rect x="496" y="488.1" class="st1" width="47.4" height="90.7"/>
	<rect x="382.5" y="387.6" class="st1" width="53.9" height="93.9"/>
	<rect x="496" y="387.6" class="st1" width="47.4" height="93.9"/>
	<rect x="336.8" y="580.4" class="st1" width="43.9" height="81.7"/>
	<polygon class="st1" points="380.7,386 380.7,302.7 382.5,302.7 382.5,386 436.4,386 436.4,300.9 336.8,300.9 336.8,386 	"/>
	<rect x="382.5" y="580.4" class="st1" width="53.9" height="81.7"/>
	<rect x="496" y="580.4" class="st1" width="47.4" height="81.7"/>
	<rect x="443" y="387.6" class="st1" width="51.2" height="93.9"/>
	<rect x="443" y="580.4" class="st1" width="51.2" height="81.7"/>
	<rect x="443" y="488.1" class="st1" width="51.2" height="90.7"/>
</g>
<g>
	<g>
		<g>
			<rect x="68.5" y="321.7" class="st2" width="151.9" height="211.5"/>
		</g>
		<g>
			<g>
				<path class="st0" d="M220.5,533.2c0,0,0-0.4,0-1c0-0.7,0-1.7,0-3c0-2.6,0-6.5,0-11.5c0-10.1,0-24.8-0.1-43.4
					c0-37.2-0.1-90.1-0.2-152.6l0.3,0.3c-45.9,0-97.5,0-151.9,0h0l0.4-0.4c0,79.2,0,152.4-0.1,211.5l-0.3-0.3
					c46.1,0.1,84,0.1,110.5,0.2c13.2,0,23.6,0.1,30.6,0.1c3.5,0,6.2,0,8.1,0C219.5,533.2,220.5,533.2,220.5,533.2s-0.9,0-2.7,0
					c-1.8,0-4.5,0-8,0c-7,0-17.4,0-30.6,0.1c-26.5,0-64.5,0.1-110.6,0.2l-0.3,0l0-0.3c0-59.1,0-132.4-0.1-211.5l0-0.4h0.4h0
					c54.4,0,106.1,0,151.9,0h0.3l0,0.3c-0.1,62.6-0.1,115.5-0.2,152.8c0,18.6-0.1,33.3-0.1,43.4c0,5,0,8.9,0,11.5c0,1.3,0,2.3,0,2.9
					C220.5,532.9,220.5,533.2,220.5,533.2z"/>
			</g>
		</g>
	</g>
	<g>
		<rect x="83.8" y="433.5" class="st1" width="118.4" height="7.6"/>
	</g>
	<g>
		<rect x="111.1" y="430.6" class="st1" width="66.7" height="13.8"/>
	</g>
	<g>
		<path class="st0" d="M133.9,372.7c6.8,0,9.9,4.1,9.9,10.9v22c0,6.7-3.1,10.8-9.9,10.8h-10.2v-43.7H133.9z M133.9,411.9
			c3.5,0,5.2-2.2,5.2-6.2v-22.5c0-4-1.7-6.2-5.2-6.2h-5.2v34.8H133.9z"/>
		<path class="st0" d="M148,383.2c0-6.7,3.3-11,10-11c6.7,0,10,4.3,10,11v22.6c0,6.6-3.3,11-10,11c-6.7,0-10-4.4-10-11V383.2z
			 M152.8,406.1c0,4,1.7,6.3,5.2,6.3c3.6,0,5.2-2.3,5.2-6.3V383c0-3.9-1.6-6.3-5.2-6.3c-3.5,0-5.2,2.4-5.2,6.3V406.1z"/>
	</g>
	<g>
		<path class="st0" d="M137,455.9v47.6h-5.3v-47.6H137z"/>
		<path class="st0" d="M149.4,503.5v-42.8h-8.8v-4.8h22.9v4.8h-8.8v42.8H149.4z"/>
	</g>
	<g>
		<g>
			<polygon class="st1" points="87.8,376.3 93.6,397.1 98.6,391.3 107.1,405.7 101.5,381 96.2,386.9 			"/>
		</g>
	</g>
	<g>
		<g>
			<polygon class="st1" points="200.9,374.2 195.1,395 190.1,389.2 181.6,403.6 187.2,378.9 192.5,384.8 			"/>
		</g>
	</g>
	<g>
		<g>
			<polygon class="st0" points="143.7,331.9 136.2,356.8 145,354.2 144.4,374.2 154.6,345.5 145.4,348.2 			"/>
		</g>
	</g>
	<g>
		<polygon class="st0" points="177,411.1 175.6,411.1 175.6,355 115.1,355 115.1,411.1 113.8,411.1 113.8,353.6 177,353.6 		"/>
	</g>
	<g>
		<polygon class="st0" points="177,512.3 113.8,512.3 113.8,454.9 115.1,454.9 115.1,510.9 175.6,510.9 175.6,454.9 177,454.9 		"/>
	</g>
	<g>
		<path class="st0" d="M106.5,463.4H102c-2.5,0-4.6-2-4.6-4.6v-43.3c0-2.5,2-4.6,4.6-4.6h4.5c2.5,0,4.6,2,4.6,4.6v43.3
			C111.1,461.4,109,463.4,106.5,463.4z"/>
	</g>
	<g>
		<path class="st0" d="M186.8,463.4h-4.5c-2.5,0-4.6-2-4.6-4.6v-43.3c0-2.5,2-4.6,4.6-4.6h4.5c2.5,0,4.6,2,4.6,4.6v43.3
			C191.4,461.4,189.3,463.4,186.8,463.4z"/>
	</g>
	<g>
		<g>
			<rect x="91.8" y="429.3" class="st3" width="5.6" height="14.6"/>
		</g>
		<g>
			<rect x="191.3" y="429.3" class="st3" width="5.6" height="14.6"/>
		</g>
	</g>
	<g>
		
			<rect x="56.2" y="324.6" transform="matrix(0.7932 -0.609 0.609 0.7932 -184.0105 115.074)" class="st0" width="42.5" height="7.6"/>
	</g>
	<g>
		
			<rect x="189.3" y="523.7" transform="matrix(0.7932 -0.609 0.609 0.7932 -277.7247 237.3273)" class="st0" width="42.5" height="7.6"/>
	</g>
</g>
<g>
	<g>
		<rect x="603.3" y="707.2" class="st3" width="66.8" height="17.7"/>
	</g>
	<g>
		<rect x="900.1" y="476.1" class="st3" width="66.8" height="17.7"/>
	</g>
	<g>
		<g>
			<path class="st0" d="M641.9,743.5c0,0,0-0.1,0-0.3c0-0.2,0-0.5,0-0.9c0-0.8,0-2-0.1-3.5c0-3.1-0.1-7.4-0.1-13l0.2,0.2
				c-15.3,0-39.5,0.1-66.8,0.1c0.2-0.2-0.3,0.3,0.3-0.3v0v0v0v0v0.1v0.1v0.3l0,0.6v1.1c0,0.8,0,1.5,0,2.3c0,1.5,0,3,0,4.5
				c0,2.9,0,5.8,0,8.7l-0.3-0.3c19,0.1,35.7,0.1,47.6,0.2c5.9,0,10.7,0.1,14,0.1c1.6,0,2.9,0,3.8,0c0.4,0,0.7,0,1,0
				C641.8,743.4,641.9,743.5,641.9,743.5c0,0-0.1,0-0.3,0c-0.2,0-0.6,0-1,0c-0.9,0-2.1,0-3.7,0c-3.3,0-8.1,0.1-14,0.1
				c-12,0-28.7,0.1-47.8,0.2l-0.3,0l0-0.3c0-2.8,0-5.7,0-8.7c0-1.5,0-3,0-4.5c0-0.7,0-1.5,0-2.3l0-1.1v-0.6v-0.3v-0.1v-0.1v0v0v0v0
				c0.7-0.7,0.2-0.2,0.3-0.3c27.3,0.1,51.5,0.1,66.8,0.1l0.2,0l0,0.2c0,5.6-0.1,10-0.1,13.1c0,1.5,0,2.6-0.1,3.4c0,0.4,0,0.6,0,0.9
				C641.9,743.4,641.9,743.5,641.9,743.5z"/>
		</g>
	</g>
</g>
<g>
	<g>
		<rect x="49.4" y="599.1" class="st3" width="66.8" height="17.7"/>
	</g>
	<g>
		<g>
			<path class="st0" d="M87.9,635.4c0,0,0-0.1,0-0.3c0-0.2,0-0.5,0-0.9c0-0.8,0-2-0.1-3.5c0-3.1-0.1-7.4-0.1-13l0.2,0.2
				c-15.3,0-39.5,0.1-66.8,0.1c0.2-0.2-0.3,0.3,0.3-0.3v0v0v0v0v0.1v0.1v0.3v0.6v1.1c0,0.8,0,1.5,0,2.3c0,1.5,0,3,0,4.5
				c0,2.9,0,5.8,0,8.7l-0.3-0.3c19,0.1,35.7,0.1,47.6,0.2c5.9,0,10.7,0.1,14,0.1c1.6,0,2.9,0,3.8,0c0.4,0,0.7,0,1,0
				C87.8,635.4,87.9,635.4,87.9,635.4c0,0-0.1,0-0.3,0c-0.2,0-0.6,0-1,0c-0.9,0-2.1,0-3.7,0c-3.3,0-8.1,0.1-14,0.1
				c-12,0-28.7,0.1-47.8,0.2l-0.3,0l0-0.3c0-2.8,0-5.7,0-8.7c0-1.5,0-3,0-4.5c0-0.7,0-1.5,0-2.3l0-1.1v-0.6V618v-0.1v-0.1v0v0v0v0
				c0.7-0.7,0.2-0.2,0.3-0.3c27.3,0.1,51.5,0.1,66.8,0.1l0.2,0l0,0.2c0,5.6-0.1,10-0.1,13.1c0,1.5,0,2.6-0.1,3.4c0,0.4,0,0.6,0,0.9
				C88,635.3,88,635.4,87.9,635.4z"/>
		</g>
	</g>
</g>
<g>
	<g>
		<g>
			<path class="st0" d="M898.4,615.2c0,0,0-0.1,0-0.3c0-0.2,0-0.5,0-0.9c0-0.8,0-2-0.1-3.5c0-3.1-0.1-7.4-0.1-13l0.2,0.2
				c-15.3,0-39.5,0.1-66.8,0.1c0.2-0.2-0.3,0.3,0.3-0.3v0v0v0v0v0.1v0.1l0,0.3v0.6v1.1c0,0.8,0,1.5,0,2.3c0,1.5,0,3,0,4.5
				c0,2.9,0,5.8,0,8.7l-0.3-0.3c19,0.1,35.7,0.1,47.6,0.2c5.9,0,10.7,0.1,14,0.1c1.6,0,2.9,0,3.8,0c0.4,0,0.7,0,1,0
				C898.2,615.2,898.3,615.2,898.4,615.2c0,0-0.1,0-0.3,0c-0.2,0-0.6,0-1,0c-0.9,0-2.1,0-3.7,0c-3.3,0-8.1,0.1-14,0.1
				c-12,0-28.7,0.1-47.8,0.2l-0.3,0l0-0.3c0-2.8,0-5.7,0-8.7c0-1.5,0-3,0-4.5c0-0.7,0-1.5,0-2.3l0-1.1v-0.6v-0.3v-0.1v-0.1v0v0v0v0
				c0.7-0.7,0.2-0.2,0.3-0.3c27.3,0.1,51.5,0.1,66.8,0.1l0.2,0l0,0.2c0,5.6-0.1,10-0.1,13.1c0,1.5,0,2.6-0.1,3.4c0,0.4,0,0.6,0,0.9
				C898.4,615.2,898.4,615.3,898.4,615.2z"/>
		</g>
	</g>
	<g>
		<g>
			<path class="st0" d="M907.4,597.6c0,0,0-0.1,0-0.3c0-0.3,0-0.6,0-0.9c0-0.9,0-2.1-0.1-3.5c0-3.1-0.1-7.5-0.1-12.9l0.2,0.2
				c-10.4,0-24.5,0.1-40.1,0.1c-0.3,0.3,0.4-0.4,0.3-0.3v0v0v0v0v0.1v0.1l0,0.3v0.6l0,1.2c0,0.8,0,1.5,0,2.3c0,1.5,0,3,0,4.5
				c0,3,0,5.8,0,8.6l-0.3-0.3c11.6,0.1,21.6,0.1,28.7,0.2c3.5,0,6.4,0.1,8.4,0.1c0.9,0,1.7,0,2.3,0
				C907.1,597.5,907.4,597.6,907.4,597.6c0,0-0.2,0-0.7,0c-0.6,0-1.3,0-2.2,0c-2,0-4.8,0.1-8.3,0.1c-7.2,0-17.3,0.1-28.9,0.2l-0.3,0
				l0-0.3c0-2.7,0-5.6,0-8.6c0-1.5,0-3,0-4.5c0-0.8,0-1.5,0-2.3l0-1.2v-0.6v-0.3V580V580v0v0v0v0c-0.1,0.1,0.6-0.6,0.3-0.3
				c15.6,0,29.7,0.1,40.1,0.1l0.2,0l0,0.2c-0.1,5.4-0.1,9.9-0.1,13c0,1.5,0,2.6-0.1,3.5C907.4,597.2,907.4,597.6,907.4,597.6z"/>
		</g>
	</g>
</g>
<g>
	<g>
		<g>
			<path class="st0" d="M841.1,348.3c0,0,0-0.1,0-0.3c0-0.2,0-0.5,0-0.9c0-0.8,0-2-0.1-3.5c0-3.1-0.1-7.4-0.1-13l0.2,0.2
				c-15.3,0-39.5,0.1-66.8,0.1c0.2-0.2-0.3,0.3,0.3-0.3v0v0v0v0v0.1v0.1l0,0.3v0.6v1.1c0,0.8,0,1.5,0,2.3c0,1.5,0,3,0,4.5
				c0,2.9,0,5.8,0,8.7l-0.3-0.3c19,0.1,35.7,0.1,47.6,0.2c5.9,0,10.7,0.1,14,0.1c1.6,0,2.9,0,3.8,0c0.4,0,0.7,0,1,0
				C841,348.3,841.1,348.3,841.1,348.3c0,0-0.1,0-0.3,0c-0.2,0-0.6,0-1,0c-0.9,0-2.1,0-3.7,0c-3.3,0-8.1,0.1-14,0.1
				c-12,0-28.7,0.1-47.8,0.2l-0.3,0l0-0.3c0-2.8,0-5.7,0-8.7c0-1.5,0-3,0-4.5c0-0.7,0-1.5,0-2.3l0-1.1v-0.6v-0.3v-0.1v-0.1v0v0v0v0
				c0.7-0.7,0.2-0.2,0.3-0.3c27.3,0.1,51.5,0.1,66.8,0.1l0.2,0l0,0.2c0,5.6-0.1,10-0.1,13.1c0,1.5,0,2.6-0.1,3.4c0,0.4,0,0.6,0,0.9
				C841.1,348.2,841.1,348.3,841.1,348.3z"/>
		</g>
	</g>
	<g>
		<g>
			<path class="st0" d="M850.2,330.7c0,0,0-0.1,0-0.3c0-0.3,0-0.6,0-0.9c0-0.9,0-2.1-0.1-3.5c0-3.1-0.1-7.5-0.1-12.9l0.2,0.2
				c-10.4,0-24.5,0.1-40.1,0.1c-0.3,0.3,0.4-0.4,0.3-0.3v0v0v0v0v0.1v0.1l0,0.3v0.6l0,1.2c0,0.8,0,1.5,0,2.3c0,1.5,0,3,0,4.5
				c0,3,0,5.8,0,8.6l-0.3-0.3c11.6,0.1,21.6,0.1,28.7,0.2c3.5,0,6.4,0.1,8.4,0.1c0.9,0,1.7,0,2.3,0
				C849.9,330.6,850.1,330.6,850.2,330.7c0,0-0.2,0-0.7,0c-0.6,0-1.3,0-2.2,0c-2,0-4.8,0.1-8.3,0.1c-7.2,0-17.3,0.1-28.9,0.2l-0.3,0
				l0-0.3c0-2.7,0-5.6,0-8.6c0-1.5,0-3,0-4.5c0-0.8,0-1.5,0-2.3l0-1.2v-0.6v-0.3v-0.1v-0.1v0v0v0v0c-0.1,0.1,0.6-0.6,0.3-0.3
				c15.6,0,29.7,0.1,40.1,0.1l0.2,0l0,0.2c-0.1,5.4-0.1,9.9-0.1,13c0,1.5,0,2.6-0.1,3.5C850.2,330.3,850.2,330.7,850.2,330.7z"/>
		</g>
	</g>
</g>
<g>
	<g>
		<g>
			<path class="st0" d="M308.1,405.6c0,0,0-0.1,0-0.3c0-0.2,0-0.5,0-0.9c0-0.8,0-2-0.1-3.5c0-3.1-0.1-7.4-0.1-13l0.2,0.2
				c-15.3,0-39.5,0.1-66.8,0.1c0.2-0.2-0.3,0.3,0.3-0.3v0v0v0v0v0.1v0.1l0,0.3v0.6v1.1c0,0.8,0,1.5,0,2.3c0,1.5,0,3,0,4.5
				c0,2.9,0,5.8,0,8.7l-0.3-0.3c19,0.1,35.7,0.1,47.6,0.2c5.9,0,10.7,0.1,14,0.1c1.6,0,2.9,0,3.8,0c0.4,0,0.7,0,1,0
				C308,405.6,308.1,405.6,308.1,405.6c0,0-0.1,0-0.3,0c-0.2,0-0.6,0-1,0c-0.9,0-2.1,0-3.7,0c-3.3,0-8.1,0.1-14,0.1
				c-12,0-28.7,0.1-47.8,0.2l-0.3,0l0-0.3c0-2.8,0-5.7,0-8.7c0-1.5,0-3,0-4.5c0-0.7,0-1.5,0-2.3l0-1.1v-0.6v-0.3V388V388v0v0v0v0
				c0.7-0.7,0.2-0.2,0.3-0.3c27.3,0.1,51.5,0.1,66.8,0.1l0.2,0l0,0.2c0,5.6-0.1,10-0.1,13.1c0,1.5,0,2.6-0.1,3.4c0,0.4,0,0.6,0,0.9
				C308.1,405.5,308.1,405.6,308.1,405.6z"/>
		</g>
	</g>
	<g>
		<g>
			<path class="st0" d="M317.2,387.9c0,0,0-0.1,0-0.3c0-0.3,0-0.6,0-0.9c0-0.9,0-2.1-0.1-3.5c0-3.1-0.1-7.5-0.1-12.9l0.2,0.2
				c-10.4,0-24.5,0.1-40.1,0.1c-0.3,0.3,0.4-0.4,0.3-0.3v0v0v0v0v0.1v0.1l0,0.3v0.6l0,1.2c0,0.8,0,1.5,0,2.3c0,1.5,0,3,0,4.5
				c0,3,0,5.8,0,8.6l-0.3-0.3c11.6,0.1,21.6,0.1,28.7,0.2c3.5,0,6.4,0.1,8.4,0.1c0.9,0,1.7,0,2.3,0
				C316.9,387.9,317.2,387.9,317.2,387.9c0,0-0.2,0-0.7,0c-0.6,0-1.3,0-2.2,0c-2,0-4.8,0.1-8.3,0.1c-7.2,0-17.3,0.1-28.9,0.2l-0.3,0
				l0-0.3c0-2.7,0-5.6,0-8.6c0-1.5,0-3,0-4.5c0-0.8,0-1.5,0-2.3l0-1.2v-0.6v-0.3v-0.1v-0.1v0v0v0v0c-0.1,0.1,0.6-0.6,0.3-0.3
				c15.6,0,29.7,0.1,40.1,0.1l0.2,0l0,0.2c-0.1,5.4-0.1,9.9-0.1,13c0,1.5,0,2.6-0.1,3.5C317.2,387.5,317.2,387.9,317.2,387.9z"/>
		</g>
	</g>
</g>
<g>
	<g>
		<path class="st4" d="M961.9,879c0,0.2-209.6,0.4-468.1,0.4c-258.6,0-468.1-0.2-468.1-0.4s209.5-0.4,468.1-0.4
			C752.4,878.7,961.9,878.8,961.9,879z"/>
	</g>
</g>
<g>
	<g>
		
			<rect x="823.4" y="345.9" transform="matrix(-1 -1.224647e-16 1.224647e-16 -1 1657.8203 712.6328)" class="st4" width="11.1" height="20.8"/>
	</g>
	<g>
		<g>
			<g>
				
					<rect x="788" y="361.2" transform="matrix(-1 -1.224647e-16 1.224647e-16 -1 1667.5962 881.3811)" class="st5" width="91.6" height="159"/>
			</g>
		</g>
		<g>
			<g>
				
					<rect x="879.6" y="361.2" transform="matrix(-1 -1.224647e-16 1.224647e-16 -1 1787.4148 881.3811)" class="st4" width="28.2" height="159"/>
			</g>
		</g>
		<g>
			<g>
				<g>
					
						<ellipse transform="matrix(0.1611 -0.9869 0.9869 0.1611 293.2408 1161.7333)" class="st4" cx="830" cy="408.4" rx="26.2" ry="26.2"/>
				</g>
			</g>
			<g>
				<g>
					<path class="st5" d="M823.5,408.4c0,3.6,2.9,6.5,6.5,6.5c3.6,0,6.5-2.9,6.5-6.5c0-3.6-2.9-6.5-6.5-6.5
						C826.4,401.9,823.5,404.8,823.5,408.4z"/>
				</g>
			</g>
		</g>
		<g>
			<g>
				<g>
					
						<ellipse transform="matrix(0.9951 -9.890854e-02 9.890854e-02 0.9951 -43.3978 84.4492)" class="st4" cx="830" cy="479.9" rx="26.2" ry="26.2"/>
				</g>
			</g>
			<g>
				<g>
					<path class="st5" d="M823.5,479.9c0,3.6,2.9,6.5,6.5,6.5c3.6,0,6.5-2.9,6.5-6.5c0-3.6-2.9-6.5-6.5-6.5
						C826.4,473.4,823.5,476.3,823.5,479.9z"/>
				</g>
			</g>
		</g>
	</g>
	<g>
		<g>
			<g>
				<path class="st4" d="M804,434c0,0-0.2-0.1-0.4-0.4c-0.2-0.3-0.6-0.7-1.1-1.3c-0.9-1.1-2.1-2.9-3.3-5.2c-2.4-4.5-4.7-11.7-4-19.7
					c0.7-8,4.1-14.7,7.3-18.7c1.6-2.1,3.1-3.6,4.2-4.5c0.5-0.5,1-0.8,1.3-1.1c0.3-0.2,0.5-0.3,0.5-0.3c0,0-0.6,0.6-1.6,1.6
					c-1,1-2.4,2.6-3.9,4.6c-3,4.1-6.3,10.7-7,18.5c-0.7,7.8,1.5,14.9,3.8,19.4c1.1,2.3,2.3,4.1,3.1,5.2
					C803.6,433.3,804.1,433.9,804,434z"/>
			</g>
		</g>
		<g>
			<g>
				<path class="st4" d="M792.7,417.8c0,0-0.2-0.3-0.5-1c-0.3-0.6-0.7-1.6-1.1-2.8c-0.8-2.4-1.3-6-1-9.9c0.4-3.9,1.6-7.3,2.8-9.6
					c0.6-1.1,1.1-2,1.6-2.6c0.4-0.6,0.7-0.9,0.7-0.8c0.1,0.1-0.8,1.4-1.9,3.6c-1.1,2.3-2.2,5.6-2.5,9.4c-0.4,3.8,0.1,7.3,0.7,9.7
					C792.2,416.3,792.8,417.7,792.7,417.8z"/>
			</g>
		</g>
		<g>
			<g>
				<path class="st4" d="M857.6,427c-0.1-0.1,0.9-2.2,1.9-5.8c0.5-1.8,0.9-4,1.3-6.5c0.3-2.5,0.4-5.2,0.2-8
					c-0.2-2.8-0.7-5.5-1.3-7.9c-0.6-2.4-1.4-4.5-2.1-6.2c-1.5-3.4-2.8-5.4-2.7-5.5c0,0,0.4,0.4,1,1.3c0.3,0.4,0.6,1,1,1.7
					c0.4,0.7,0.8,1.4,1.2,2.3c0.8,1.7,1.6,3.8,2.3,6.3c0.6,2.4,1.1,5.2,1.4,8.1c0.2,2.9,0.1,5.7-0.3,8.2c-0.3,2.5-0.8,4.7-1.4,6.5
					c-0.2,0.9-0.6,1.7-0.8,2.4c-0.3,0.7-0.5,1.3-0.8,1.8C857.9,426.5,857.6,427,857.6,427z"/>
			</g>
		</g>
		<g>
			<g>
				<path class="st4" d="M868.4,419.7c-0.1,0,0.4-1.9,0.9-5c0.5-3.1,0.7-7.4,0-12.2c-0.7-4.7-2.1-8.8-3.4-11.7
					c-1.3-2.9-2.3-4.5-2.2-4.6c0,0,0.3,0.4,0.8,1.1c0.5,0.7,1.1,1.8,1.9,3.3c1.4,2.8,3,7,3.6,11.8c0.7,4.8,0.4,9.2-0.2,12.3
					c-0.3,1.6-0.6,2.8-0.9,3.6C868.6,419.3,868.4,419.8,868.4,419.7z"/>
			</g>
		</g>
		<g>
			<g>
				<path class="st4" d="M798.9,492.3c0,0-0.3-0.3-0.7-1c-0.2-0.3-0.5-0.8-0.7-1.3c-0.2-0.5-0.6-1.1-0.8-1.8c-0.5-1.3-1-3-1.3-4.8
					c-0.3-1.9-0.4-4-0.2-6.1c0.2-2.2,0.7-4.2,1.3-6c0.6-1.8,1.4-3.3,2.1-4.5c0.3-0.6,0.7-1.1,1.1-1.6c0.3-0.5,0.6-0.8,0.9-1.1
					c0.5-0.6,0.8-0.9,0.9-0.9c0.1,0.1-1.1,1.4-2.4,3.8c-0.7,1.2-1.4,2.7-1.9,4.5c-0.5,1.8-1,3.7-1.2,5.9c-0.2,2.1-0.1,4.1,0.2,6
					c0.3,1.8,0.7,3.4,1.1,4.8C798,490.8,799,492.3,798.9,492.3z"/>
			</g>
		</g>
		<g>
			<g>
				<path class="st4" d="M861.7,488.9c-0.1-0.1,0.6-1.5,1.4-4c0.4-1.2,0.7-2.8,0.9-4.5c0.2-1.7,0.2-3.6,0.1-5.6
					c-0.2-2-0.5-3.8-1-5.5c-0.5-1.6-1-3.1-1.6-4.3c-1.1-2.4-2.1-3.7-2-3.7c0,0,0.3,0.3,0.8,0.9c0.5,0.6,1,1.5,1.7,2.7
					c0.6,1.2,1.3,2.6,1.8,4.3c0.5,1.7,0.9,3.6,1.1,5.6c0.2,2,0.1,4-0.2,5.7c-0.3,1.7-0.6,3.3-1.1,4.5c-0.4,1.3-0.9,2.2-1.2,2.9
					C861.9,488.6,861.7,489,861.7,488.9z"/>
			</g>
		</g>
		<g>
			
				<rect x="887.8" y="345.9" transform="matrix(-1 -1.224647e-16 1.224647e-16 -1 1786.6082 712.6328)" class="st4" width="11.1" height="20.8"/>
		</g>
	</g>
</g>
<g>
	<g>
		<g>
			<g>
				<g>
					<path class="st4" d="M663.2,515.4c0.8,2.4-0.5,5-2.9,5.8c-2.4,0.8-5-0.5-5.8-2.9c-0.8-2.4,0.5-5,2.9-5.8
						C659.8,511.7,662.4,513,663.2,515.4z"/>
				</g>
			</g>
		</g>
		<g>
			<g>
				<g>
					<g>
						<path class="st4" d="M662.1,514.1c-0.2,0.2-4.2-2.4-8.4-6.5c-4.2-4.1-7.6-7.4-7.4-7.6c0.2-0.2,3.9,2.8,8.1,6.8
							C658.6,510.9,662.3,513.9,662.1,514.1z"/>
					</g>
				</g>
			</g>
		</g>
		<g>
			<g>
				<g>
					<g>
						<path class="st4" d="M652.7,492.6c0.3,0,0.1,2.6-1.8,4.9c-1.9,2.4-4.4,3.1-4.4,2.8c-0.1-0.3,1.9-1.3,3.6-3.5
							C651.8,494.8,652.4,492.6,652.7,492.6z"/>
					</g>
				</g>
			</g>
		</g>
		<g>
			<g>
				<g>
					<g>
						<path class="st4" d="M655.9,496.1c0.3,0,0.2,2.5-1.8,4.7c-2,2.2-4.6,2.4-4.6,2.2c-0.1-0.3,2.1-0.9,3.8-2.9
							C655.2,498.2,655.6,496.1,655.9,496.1z"/>
					</g>
				</g>
			</g>
		</g>
	</g>
	<g>
		<g>
			<g>
				<g>
					<path class="st4" d="M755,620.5c-2.4,0.9-5-0.3-5.9-2.6c-0.9-2.4,0.3-5,2.6-5.9c2.4-0.9,5,0.3,5.9,2.6
						C758.6,617,757.4,619.6,755,620.5z"/>
				</g>
			</g>
		</g>
		<g>
			<g>
				<g>
					<g>
						<path class="st4" d="M756.2,619.4c-0.2-0.1,2.2-4.3,6.1-8.7c3.9-4.4,7-7.9,7.2-7.7c0.2,0.2-2.6,4-6.5,8.4
							C759.2,615.7,756.4,619.5,756.2,619.4z"/>
					</g>
				</g>
			</g>
		</g>
		<g>
			<g>
				<g>
					<g>
						<path class="st4" d="M777.2,609c0,0.3-2.6,0.2-5-1.6c-2.5-1.8-3.3-4.2-3-4.3c0.3-0.1,1.4,1.9,3.6,3.5
							C775,608.2,777.3,608.7,777.2,609z"/>
					</g>
				</g>
			</g>
		</g>
		<g>
			<g>
				<g>
					<g>
						<path class="st4" d="M773.9,612.4c0,0.3-2.5,0.3-4.8-1.6c-2.3-1.9-2.6-4.4-2.4-4.5c0.3-0.1,1,2,3,3.7
							C771.8,611.7,774,612.1,773.9,612.4z"/>
					</g>
				</g>
			</g>
		</g>
	</g>
	<g>
		<g>
			<g>
				<g>
					<g>
						<g>
							<path class="st4" d="M714.9,447.1c-2.7,1.9-6.5,1.2-8.4-1.5c-1.9-2.7-1.2-6.5,1.5-8.4s6.5-1.2,8.4,1.5
								S717.6,445.2,714.9,447.1z"/>
						</g>
					</g>
				</g>
				<g>
					<g>
						<g>
							<g>
								<path class="st4" d="M716,445.2c-0.6-0.2,1.2-6.3,4.8-13.2c3.6-6.9,6.7-12.2,7.2-12c0.6,0.2-1.7,6.2-5.3,13
									C719.1,439.7,716.6,445.4,716,445.2z"/>
							</g>
						</g>
					</g>
				</g>
				<g>
					<g>
						<g>
							<g>
								<path class="st4" d="M743.2,432.1c0,0.5-5,0.4-10.1-2.9c-2.5-1.6-4.3-3.8-5.1-5.7c-0.9-1.8-0.6-3.2-0.4-3.2
									c0.3,0,0.6,1.1,1.7,2.5c1,1.4,2.7,3.2,5,4.7C738.8,430.4,743.3,431.4,743.2,432.1z"/>
							</g>
						</g>
					</g>
				</g>
			</g>
			<g>
				<g>
					<g>
						<path class="st4" d="M730.1,459.2c-2.7,1.9-6.5,1.2-8.4-1.5c-1.9-2.7-1.2-6.5,1.5-8.4c2.7-1.9,6.5-1.2,8.4,1.5
							C733.5,453.5,732.9,457.3,730.1,459.2z"/>
					</g>
				</g>
			</g>
			<g>
				<g>
					<g>
						<g>
							<path class="st4" d="M731.3,457.3c-0.6-0.2,1.2-6.3,4.8-13.2c3.6-6.9,6.7-12.2,7.2-12c0.6,0.2-1.7,6.2-5.3,13
								C734.4,451.8,731.8,457.5,731.3,457.3z"/>
						</g>
					</g>
				</g>
			</g>
			<g>
				<g>
					<g>
						<g>
							<path class="st4" d="M741.5,435.8c0,0.5-4.8,0.8-9.6-2.2c-4.9-2.9-6.9-7.3-6.4-7.5c0.5-0.3,3.1,3.1,7.5,5.7
								C737.3,434.5,741.5,435.2,741.5,435.8z"/>
						</g>
					</g>
				</g>
			</g>
		</g>
	</g>
	<g>
		<g>
			<g>
				<g>
					<g>
						<g>
							<path class="st4" d="M754.1,523c-1.4,0.9-3.3,0.4-4.2-1s-0.4-3.3,1-4.2c1.4-0.9,3.3-0.4,4.2,1
								C756,520.2,755.6,522.1,754.1,523z"/>
						</g>
					</g>
				</g>
				<g>
					<g>
						<g>
							<g>
								<path class="st4" d="M754.8,522.1c-0.3-0.1,0.8-3.2,2.8-6.6c2-3.4,3.7-6.1,4-5.9c0.3,0.1-1,3.1-3,6.5
									C756.5,519.4,755,522.2,754.8,522.1z"/>
							</g>
						</g>
					</g>
				</g>
				<g>
					<g>
						<g>
							<g>
								<path class="st4" d="M769,516.1c0,0.2-2.6,0.1-5.1-1.7c-1.2-0.9-2.1-2.1-2.5-3c-0.4-1-0.2-1.6-0.1-1.6
									c0.2,0,0.3,0.6,0.8,1.3c0.5,0.8,1.3,1.7,2.4,2.5C766.7,515.2,769,515.8,769,516.1z"/>
							</g>
						</g>
					</g>
				</g>
			</g>
			<g>
				<g>
					<g>
						<path class="st4" d="M761.6,529.6c-1.4,0.9-3.3,0.4-4.2-1c-0.9-1.4-0.4-3.3,1-4.2c1.4-0.9,3.3-0.4,4.2,1
							C763.5,526.8,763,528.7,761.6,529.6z"/>
					</g>
				</g>
			</g>
			<g>
				<g>
					<g>
						<g>
							<path class="st4" d="M762.2,528.6c-0.3-0.1,0.8-3.2,2.8-6.6c2-3.4,3.7-6.1,4-5.9c0.3,0.1-1,3.1-3,6.5
								C763.9,525.9,762.5,528.8,762.2,528.6z"/>
						</g>
					</g>
				</g>
			</g>
			<g>
				<g>
					<g>
						<g>
							<path class="st4" d="M768,518c0,0.3-2.4,0.3-4.8-1.4c-2.4-1.6-3.3-3.9-3.1-4c0.3-0.2,1.5,1.7,3.7,3.1
								C765.9,517.2,768,517.7,768,518z"/>
						</g>
					</g>
				</g>
			</g>
		</g>
	</g>
	<g>
		<g>
			<g>
				<g>
					<g>
						<g>
							<path class="st4" d="M663.2,621.9c-1.4,0.9-3.3,0.4-4.2-1c-0.9-1.4-0.4-3.3,1-4.2c1.4-0.9,3.3-0.4,4.2,1
								C665,619.1,664.6,621,663.2,621.9z"/>
						</g>
					</g>
				</g>
				<g>
					<g>
						<g>
							<g>
								<path class="st4" d="M663.8,621c-0.3-0.1,0.8-3.2,2.8-6.6c2-3.4,3.7-6.1,4-5.9c0.3,0.1-1,3.1-3,6.5
									C665.5,618.3,664.1,621.1,663.8,621z"/>
							</g>
						</g>
					</g>
				</g>
				<g>
					<g>
						<g>
							<g>
								<path class="st4" d="M678,615c0,0.2-2.6,0.1-5.1-1.7c-1.2-0.9-2.1-2.1-2.5-3c-0.4-1-0.2-1.6-0.1-1.6c0.2,0,0.3,0.6,0.8,1.3
									c0.5,0.8,1.3,1.7,2.4,2.5C675.8,614.1,678.1,614.7,678,615z"/>
							</g>
						</g>
					</g>
				</g>
			</g>
			<g>
				<g>
					<g>
						<path class="st4" d="M670.6,628.5c-1.4,0.9-3.3,0.4-4.2-1c-0.9-1.4-0.4-3.3,1-4.2c1.4-0.9,3.3-0.4,4.2,1
							C672.5,625.7,672,627.6,670.6,628.5z"/>
					</g>
				</g>
			</g>
			<g>
				<g>
					<g>
						<g>
							<path class="st4" d="M671.2,627.6c-0.3-0.1,0.8-3.2,2.8-6.6c2-3.4,3.7-6.1,4-5.9c0.3,0.1-1,3.1-3,6.5
								C673,624.9,671.5,627.7,671.2,627.6z"/>
						</g>
					</g>
				</g>
			</g>
			<g>
				<g>
					<g>
						<g>
							<path class="st4" d="M677,616.9c0,0.3-2.4,0.3-4.8-1.4c-2.4-1.6-3.3-3.9-3.1-4c0.3-0.2,1.5,1.7,3.7,3.1
								C674.9,616.1,677,616.6,677,616.9z"/>
						</g>
					</g>
				</g>
			</g>
		</g>
	</g>
	<g>
		<g>
			<g>
				<g>
					<g>
						<g>
							<path class="st4" d="M708.2,573.5c-0.8,2.5-3.6,3.9-6.1,3.1c-2.5-0.8-3.9-3.6-3.1-6.1c0.8-2.5,3.6-3.9,6.1-3.1
								C707.6,568.2,709,571,708.2,573.5z"/>
						</g>
					</g>
				</g>
				<g>
					<g>
						<g>
							<g>
								<path class="st4" d="M708,571.8c-0.4,0.2-2.3-4.6-3.4-10.8c-1.1-6.1-1.7-11.1-1.3-11.2c0.5-0.1,1.9,4.8,3,10.9
									C707.3,566.8,708.5,571.6,708,571.8z"/>
							</g>
						</g>
					</g>
				</g>
				<g>
					<g>
						<g>
							<g>
								<path class="st4" d="M719,550.1c0.2,0.3-3,2.7-7.9,3.1c-2.4,0.2-4.6-0.3-6.1-1.1c-1.4-0.8-2-1.7-1.8-1.8
									c0.2-0.2,0.9,0.4,2.3,0.8c1.3,0.4,3.3,0.7,5.5,0.5C715.4,551.2,718.8,549.6,719,550.1z"/>
							</g>
						</g>
					</g>
				</g>
			</g>
			<g>
				<g>
					<g>
						<path class="st4" d="M723.9,573.8c-0.8,2.5-3.6,3.9-6.1,3.1c-2.5-0.8-3.9-3.6-3.1-6.1c0.8-2.5,3.6-3.9,6.1-3.1
							C723.3,568.5,724.7,571.2,723.9,573.8z"/>
					</g>
				</g>
			</g>
			<g>
				<g>
					<g>
						<g>
							<path class="st4" d="M723.7,572c-0.4,0.2-2.3-4.6-3.4-10.8c-1.1-6.1-1.7-11.1-1.3-11.2c0.5-0.1,1.9,4.8,3,10.9
								C723,567,724.1,571.9,723.7,572z"/>
						</g>
					</g>
				</g>
			</g>
			<g>
				<g>
					<g>
						<g>
							<path class="st4" d="M719.7,553.3c0.3,0.3-2.7,2.8-7.2,3.3c-4.6,0.5-8-1.3-7.8-1.7c0.2-0.5,3.5,0.5,7.6,0
								C716.4,554.5,719.5,552.9,719.7,553.3z"/>
						</g>
					</g>
				</g>
			</g>
		</g>
	</g>
</g>
<g>
	<g>
		<g>
			<g>
				<g>
					<path class="st2" d="M257.8,551.4l13.8,1.7c4.5,6.2,10.8,11.2,18.4,14.3c22,8.9,46.9-1.7,55.8-23.7c8.9-22-1.7-46.9-23.7-55.8
						c-22-8.9-46.9,1.7-55.8,23.7c-3.7,9.2-4,18.9-1.5,27.7l0,0L257.8,551.4z"/>
				</g>
				<g>
					<g>
						<path class="st4" d="M257.8,551.4c0,0,0.1-0.3,0.4-0.8c0.3-0.5,0.7-1.3,1.3-2.3c1.2-2.1,2.9-5.2,5.2-9.2l0.1-0.2l0.1,0.2l0,0
							l-0.3,0.1c-1.5-5.3-2.5-12.8-0.6-21.2c0.9-4.2,2.6-8.6,5.2-12.8c2.5-4.2,6-8.3,10.3-11.7c4.3-3.4,9.6-6.1,15.4-7.7
							c5.8-1.6,12.2-2,18.5-0.9c6.4,1.1,12.6,3.7,18.1,7.7c5.5,4,10.2,9.4,13.2,15.8c0.4,0.8,0.8,1.6,1.1,2.4l0.9,2.5l0.5,1.2
							l0.3,1.3l0.7,2.5c0.6,3.4,1.1,6.9,0.9,10.3c-0.2,6.8-2,13.4-5,19.1c-3,5.7-7.3,10.5-12.1,14.1c-4.8,3.6-10.2,6.1-15.5,7.5
							c-5.4,1.4-10.7,1.6-15.6,1c-0.6-0.1-1.2-0.2-1.8-0.2c-0.6-0.1-1.2-0.2-1.8-0.3c-1.2-0.3-2.3-0.6-3.4-0.8
							c-2.2-0.8-4.3-1.4-6.3-2.4c-7.8-3.7-13.1-9-16.3-13.5l0.1,0.1c-4.5-0.6-8-1-10.3-1.3c-1.1-0.2-2-0.3-2.6-0.4
							C258.1,551.4,257.8,551.4,257.8,551.4s0.3,0,0.9,0.1c0.6,0.1,1.5,0.2,2.7,0.3c2.4,0.3,5.8,0.6,10.3,1.1l0.1,0l0,0.1
							c3.3,4.4,8.5,9.6,16.3,13.2c1.9,0.9,4,1.6,6.2,2.3c1.1,0.3,2.2,0.5,3.4,0.8c0.6,0.2,1.2,0.3,1.8,0.3c0.6,0.1,1.2,0.2,1.8,0.2
							c4.8,0.6,10.1,0.3,15.4-1.1c5.3-1.3,10.6-3.8,15.3-7.4c4.7-3.6,8.9-8.3,11.9-13.9c2.9-5.6,4.7-12.1,4.9-18.8
							c0.2-3.4-0.3-6.7-0.9-10.1l-0.7-2.5l-0.3-1.2l-0.4-1.2l-0.9-2.4c-0.3-0.8-0.7-1.6-1.1-2.4c-3-6.3-7.6-11.6-13-15.5
							c-5.4-3.9-11.6-6.6-17.8-7.6c-6.3-1.1-12.5-0.7-18.2,0.8c-5.7,1.5-10.9,4.2-15.2,7.5c-4.3,3.3-7.7,7.3-10.2,11.5
							c-2.5,4.2-4.3,8.5-5.2,12.6c-1.9,8.3-1,15.7,0.5,21l0.3,1.1l-0.6-1l0,0l0.3,0c-2.3,3.9-4.1,6.9-5.3,9c-0.6,1-1.1,1.8-1.4,2.3
							C258,551.1,257.8,551.4,257.8,551.4z"/>
					</g>
				</g>
			</g>
		</g>
	</g>
	<g>
		<g>
			<g>
				<g>
					<g>
						<g>
							<path class="st6" d="M314.8,523.2l-2.9-0.1l-6-9.1l0.2-5.8c0,0-4.5-0.5-4.3,7.1c0.2,7.6-0.3,5.7-0.3,5.7s-9.5-0.4-10.4,0.4
								c-0.6,0.6-1.3,10-1.6,15.2c-0.2,2.6,1.3,5.1,3.7,5.8c0.3,0.1,0.7,0.2,1,0.2c2.4,0.1,14.6-1.3,14.6-1.3l5,0.2L314.8,523.2z"/>
						</g>
					</g>
				</g>
			</g>
			<g>
				<g>
					<g>
						<g>
							<polygon class="st6" points="323.1,521.9 320.5,541.7 315.5,541.5 316.4,522 							"/>
						</g>
					</g>
				</g>
			</g>
		</g>
	</g>
</g>
<g>
	<g>
		<g>
			<g>
				<g>
					<g>
						<g>
							<g>
								<path class="st4" d="M371.8,783.1c0.7-8.6,5.7-15,12.1-20.8c6.4-5.8,14.7-9.2,23.3-10.3c9-1.1,18.4,0.5,26.3,5.1
									c7.8,4.6,13.9,12.3,15.9,21.1c2.7,12.1-2.7,25.3-12.3,33s-23,10.2-35.2,7.6c-8.3-1.8-16.3-5.9-22-12.3
									C374.1,800.2,370.9,791.6,371.8,783.1"/>
							</g>
						</g>
					</g>
					<g>
						<g>
							<g>
								<g>
									<g>
										<path class="st4" d="M405.7,766.8c-3.5,0.4-6.9-1-10.3-1.3c-7.6-0.8-15,3.6-19.6,9.7c-4.3,5.7-5.7,13.6-5.1,21.9
											c0.4,5.7,2.1,11.4,5.5,16c4.5,6.1,12.1,9.8,19.7,9.5l4.1-39c3.8-2.8,7.7-5.6,10.4-9.5c0.8-1.1,1.5-2.4,1.6-3.8
											c0.1-1.4-0.4-2.9-1.7-3.5C408.8,766.1,407.2,766.6,405.7,766.8z"/>
									</g>
								</g>
							</g>
						</g>
						<g>
							<g>
								<g>
									<g>
										<path class="st7" d="M380.8,800.5l15.3-31.1c1-3.1,4.3-4.9,7.5-4.2l70.9,18.4c4.8,1.3,9.1,4.1,12.2,8l3.2,4.2
											c7.4,9.5,2.8,23.7-8.9,26.5c-0.8,0.2-1.5,0.3-2.1,0.3c-0.7-0.1-1.1,0-1.7-0.1c-5.7-0.5-10.9-2.2-10.9-2.2
											c-6.4-1.3-9-1.8-9-1.8c0,0-5.1,13-23.3,12.1c-9-0.5-23.3-4-34.9-7.2C388.9,820.6,377.5,810.8,380.8,800.5z"/>
									</g>
								</g>
							</g>
						</g>
						<g>
							<g>
								<g>
									<g>
										<g>
											<g>
												<g>
													<g>
														<g>
															<g>
																<g>
																	<g>
																		<g>
																			<g>
																				<g>
																					<g>
																						<g>
																							<g>
																								<g>
																									<g>
																										<path class="st4" d="M415.4,819.9c1.2,0.3,2.4-0.5,2.7-1.7c0.3-1.2-0.4-2.5-1.5-2.8
																											c-1.2-0.3-2.4,0.5-2.7,1.7C413.5,818.3,414.2,819.6,415.4,819.9z"/>
																									</g>
																								</g>
																							</g>
																						</g>
																					</g>
																				</g>
																			</g>
																		</g>
																	</g>
																</g>
															</g>
														</g>
													</g>
												</g>
											</g>
										</g>
									</g>
									<g>
										<g>
											<g>
												<g>
													<g>
														<g>
															<g>
																<g>
																	<g>
																		<g>
																			<g>
																				<g>
																					<g>
																						<g>
																							<g>
																								<g>
																									<g>
																										<g>
																											<path class="st4" d="M407.4,822c0.4-0.2-0.5-2.2,0-4.6c0.5-2.4,2.1-3.9,1.9-4.3c-0.1-0.2-0.7,0-1.4,0.7
																												c-0.7,0.6-1.5,1.8-1.9,3.3c-0.3,1.5,0,2.9,0.4,3.8C406.8,821.7,407.3,822.1,407.4,822z"/>
																										</g>
																									</g>
																								</g>
																							</g>
																						</g>
																					</g>
																				</g>
																			</g>
																		</g>
																	</g>
																</g>
															</g>
														</g>
													</g>
												</g>
											</g>
										</g>
									</g>
								</g>
								<g>
									<g>
										<g>
											<g>
												<g>
													<g>
														<g>
															<g>
																<g>
																	<g>
																		<g>
																			<g>
																				<g>
																					<g>
																						<g>
																							<g>
																								<g>
																									<g>
																										<path class="st4" d="M420.1,798.2c1.2,0.3,2.4-0.5,2.7-1.7c0.3-1.2-0.4-2.5-1.5-2.8
																											c-1.2-0.3-2.4,0.5-2.7,1.7C418.2,796.7,418.9,797.9,420.1,798.2z"/>
																									</g>
																								</g>
																							</g>
																						</g>
																					</g>
																				</g>
																			</g>
																		</g>
																	</g>
																</g>
															</g>
														</g>
													</g>
												</g>
											</g>
										</g>
									</g>
									<g>
										<g>
											<g>
												<g>
													<g>
														<g>
															<g>
																<g>
																	<g>
																		<g>
																			<g>
																				<g>
																					<g>
																						<g>
																							<g>
																								<g>
																									<g>
																										<g>
																											<path class="st4" d="M412.7,799c0.4-0.2-0.5-2.2,0-4.6c0.5-2.4,2.1-3.9,1.9-4.3c-0.1-0.2-0.7,0-1.4,0.7
																												c-0.7,0.6-1.5,1.8-1.9,3.3c-0.3,1.5,0,2.9,0.4,3.8C412,798.7,412.5,799.1,412.7,799z"/>
																										</g>
																									</g>
																								</g>
																							</g>
																						</g>
																					</g>
																				</g>
																			</g>
																		</g>
																	</g>
																</g>
															</g>
														</g>
													</g>
												</g>
											</g>
										</g>
									</g>
								</g>
								<g>
									<g>
										<g>
											<g>
												<g>
													<g>
														<g>
															<g>
																<g>
																	<g>
																		<g>
																			<g>
																				<g>
																					<g>
																						<g>
																							<g>
																								<g>
																									<g>
																										<path class="st4" d="M429.1,810.8c-0.1,0-0.7,1.4-1.6,3.8c-0.2,0.6-0.4,1.2-0.9,1.2
																											c-0.5,0.1-1.1-0.4-1.7-0.8c-1.4-0.9-2.8-1.8-4.3-2.8c-6.2-4-11.3-7-11.5-6.7c-0.2,0.2,4.7,3.7,10.9,7.7
																											c1.5,1,3,1.9,4.4,2.8c0.7,0.4,1.4,1,2.4,0.8c0.5-0.1,0.9-0.5,1.1-0.8c0.2-0.4,0.3-0.7,0.4-1
																											C428.9,812.4,429.2,810.9,429.1,810.8z"/>
																									</g>
																								</g>
																							</g>
																						</g>
																					</g>
																				</g>
																			</g>
																		</g>
																	</g>
																</g>
															</g>
														</g>
													</g>
												</g>
											</g>
										</g>
									</g>
								</g>
								<g>
									<g>
										<g>
											<g>
												<g>
													<g>
														<g>
															<g>
																<g>
																	<g>
																		<g>
																			<g>
																				<g>
																					<g>
																						<g>
																							<g>
																								<g>
																									<path class="st8" d="M457.5,818.6c0,0,3.3-11.7-1.3-24.9c0,0,10.9,8.5,5.5,25.8L457.5,818.6z"/>
																								</g>
																							</g>
																						</g>
																					</g>
																				</g>
																			</g>
																		</g>
																	</g>
																</g>
															</g>
														</g>
													</g>
												</g>
											</g>
										</g>
									</g>
								</g>
								<g>
									<g>
										<g>
											<g>
												<g>
													<g>
														<g>
															<g>
																<g>
																	<g>
																		<g>
																			<g>
																				<g>
																					<g>
																						<g>
																							<g>
																								<g>
																									<path class="st8" d="M435.2,811.1c-1-1.1-1.3-2.8-0.8-4.3c0.3-1,1.1-2,2.1-2.4c1-0.5,2.2-0.3,2.9,0.4
																										c0.8,0.9,0.7,2.3,0.1,3.4c-0.6,1.1-1.6,1.9-2.5,2.7c-0.3,0.2-0.5,0.4-0.9,0.5c-0.3,0.1-0.7,0.1-0.9-0.2"/>
																								</g>
																							</g>
																						</g>
																					</g>
																				</g>
																			</g>
																		</g>
																	</g>
																</g>
															</g>
														</g>
													</g>
												</g>
											</g>
										</g>
									</g>
								</g>
							</g>
						</g>
						<g>
							<g>
								<g>
									<g>
										<g>
											<g>
												<g>
													<g>
														<g>
															<g>
																<g>
																	<g>
																		<g>
																			<g>
																				<g>
																					<g>
																						<path class="st4" d="M407.8,798.2c0.6-0.3-0.1-2.6-0.3-5.3c-0.2-2.7,0.2-5.1-0.4-5.3
																							c-0.3-0.1-0.9,0.4-1.3,1.4c-0.5,1-0.8,2.5-0.7,4.1c0.1,1.6,0.7,3.1,1.3,4C406.9,798,407.5,798.4,407.8,798.2z
																							"/>
																					</g>
																				</g>
																			</g>
																		</g>
																	</g>
																</g>
															</g>
														</g>
													</g>
												</g>
											</g>
										</g>
									</g>
								</g>
							</g>
						</g>
						<g>
							<g>
								<g>
									<g>
										<g>
											<g>
												<g>
													<g>
														<g>
															<g>
																<g>
																	<g>
																		<g>
																			<g>
																				<g>
																					<g>
																						<path class="st4" d="M397,819c0.6-0.3,0.4-2.1,0.8-4.1c0.3-2,1.2-3.6,0.7-4.1c-0.2-0.2-0.9-0.1-1.5,0.6
																							c-0.7,0.6-1.4,1.8-1.6,3.1c-0.3,1.4,0,2.7,0.4,3.5C396.2,818.8,396.7,819.1,397,819z"/>
																					</g>
																				</g>
																			</g>
																		</g>
																	</g>
																</g>
															</g>
														</g>
													</g>
												</g>
											</g>
										</g>
									</g>
								</g>
							</g>
						</g>
						<g>
							<g>
								<g>
									<g>
										<path class="st4" d="M402.2,759.5c-10.9,0.9-28.3,12.3-30,23l6.2,19.3c6,0.3,12-3,15.1-8.2c1.6-2.8,2.7-6.3,5.7-7.5
											c3-1.2,6.6,0.7,9.7-0.3c4.3-1.5,5.6-7.9,10.1-8.7c2-0.4,4,0.5,5.9,0.2c2.6-0.5,6.9-5.8,6.7-8.4c-0.2-2.6-4.4-3.6-6.4-4.9
											c-3.4-2.2-5.5-2.1-7.7-2.2C412.3,761.6,407.3,759.1,402.2,759.5z"/>
									</g>
								</g>
							</g>
						</g>
						<g>
							<g>
								<g>
									<g>
										<g>
											<g>
												<g>
													<path class="st7" d="M432,776.5c-1.3-0.3-4.1-2.5-4-3.8c0.2-3.6,1.8-9.7,10.6-7.9c12,2.5,7,14,6.7,14
														C445,778.8,436.5,777.5,432,776.5z"/>
												</g>
											</g>
										</g>
									</g>
								</g>
							</g>
						</g>
						<g>
							<g>
								<g>
									<g>
										<g>
											<g>
												<g>
													<g>
														<path class="st8" d="M441.4,774.2c0-0.1,0.2-0.2,0.4-0.5c0.2-0.3,0.5-0.9,0.4-1.6c-0.2-1.4-2-2.8-4.2-3.4
															c-1.1-0.3-2.2-0.2-3.1,0c-1,0.2-1.7,0.6-1.9,1.2c-0.3,0.6,0,1.1,0.3,1.4c0.3,0.2,0.6,0.2,0.6,0.3c0,0-0.3,0.2-0.7,0
															c-0.2-0.1-0.5-0.3-0.7-0.6c-0.2-0.3-0.2-0.8-0.1-1.2c0.3-0.9,1.3-1.6,2.3-1.8c1-0.3,2.3-0.3,3.5,0
															c2.4,0.6,4.4,2.3,4.6,4.1c0,0.9-0.4,1.5-0.7,1.8C441.7,774.2,441.5,774.2,441.4,774.2z"/>
													</g>
												</g>
											</g>
										</g>
									</g>
								</g>
							</g>
						</g>
					</g>
					<g>
						<g>
							<g>
								<path class="st4" d="M375.7,797.4c4.6,2.3,8.9,11.2,11.8,15.4c5.6,8,7.7,9.8,23.8,13.8c-6.3,1.5-12.3,2.3-18.5,0.5
									c-6.2-1.8-11.9-5.7-15.3-11.2C374.1,810.5,373.2,803.4,375.7,797.4"/>
							</g>
						</g>
					</g>
				</g>
				<g>
					<path class="st4" d="M384.1,764c1.3-3.4,0.2-7.3-2.1-10.1c-2.3-2.7-5.8-4.4-9.2-5.3c-9.4-2.6-20-0.3-27.6,5.8
						c-2.3,1.9-4.4,4.2-5.6,7c-1.1,2.8-1.2,6.2,0.4,8.7c1.6,2.6,5,4.1,7.8,3.1c-1.9,3.1-1,7.4,1.6,9.9s6.5,3.4,10.1,3
						c3.6-0.4,6.9-2,10-4c7.5-4.7,13.9-11.8,15.7-20.5L384.1,764z"/>
				</g>
				<g>
					<g>
						<path class="st6" d="M384.9,761.6c0.3,0.4-0.7,1.5-2.1,3.1c-1.4,1.6-3.4,3.8-4.8,6.4c-2.9,5.9-5.2,10.8-6.1,10.6
							c-1-0.3-0.2-5.9,2.9-12.2c0.9-1.7,2-3.1,3.1-4.2c1.1-1.1,2.2-1.9,3.2-2.6C383.1,761.5,384.6,761.2,384.9,761.6z"/>
					</g>
				</g>
			</g>
			<g>
				<g>
					<path class="st4" d="M438.1,812.2c-0.2,0-0.6-2.1-1.1-4.8c-0.5-2.7-0.9-4.8-0.7-4.9c0.2-0.1,0.9,2,1.4,4.7
						C438.2,809.9,438.3,812.2,438.1,812.2z"/>
				</g>
			</g>
		</g>
		<g>
			<g>
				<path class="st4" d="M398.6,877.9c0,0-0.3-0.2-0.8-0.7c-0.4-0.5-1-1.4-1.1-2.7c-0.2-1.3,0-2.9,0.5-4.6c0.5-1.8,1.6-3.6,2.4-5.7
					c0.4-1,0.8-2.2,0.8-3.4c0.1-1.2-0.1-2.5-0.7-3.6c-1.2-2.3-3.6-4-5.8-6.1c-1.1-1-2.2-2.3-2.8-3.8c-0.7-1.5-0.7-3.3-0.5-4.9
					c0.5-3.3,2-6.5,1.8-9.9c-0.1-1.7-0.7-3.3-1.6-4.6c-0.9-1.4-2.1-2.5-3.3-3.6c-2.5-2.1-5.1-3.8-7.4-5.9c-4.5-4.2-6.9-9.4-7.8-13.9
					c-1-4.5-0.6-8.3-0.1-10.8c0.3-1.2,0.5-2.2,0.8-2.8c0.2-0.6,0.4-1,0.4-1c0.1,0-0.4,1.3-0.9,3.8c-0.4,2.5-0.7,6.2,0.4,10.6
					c1,4.4,3.4,9.5,7.8,13.5c2.2,2,4.9,3.7,7.4,5.9c1.3,1.1,2.5,2.3,3.5,3.7c1,1.4,1.6,3.2,1.8,5c0.2,3.7-1.4,6.8-1.8,10
					c-0.2,1.6-0.2,3.2,0.4,4.6c0.6,1.4,1.6,2.6,2.6,3.6c2.1,2.1,4.6,3.8,5.9,6.3c0.6,1.2,0.9,2.6,0.8,3.9c-0.1,1.3-0.5,2.5-0.9,3.5
					c-0.9,2.1-1.9,3.9-2.5,5.6c-0.6,1.7-0.8,3.2-0.6,4.5c0.1,1.3,0.6,2.1,1,2.7C398.3,877.6,398.6,877.8,398.6,877.9z"/>
			</g>
		</g>
		<g>
			<g>
				<path class="st4" d="M427.3,768.1c0,0,0.2,0.6,0.3,1.7c0.1,1.1,0.3,2.7,0.2,4.8c-0.1,2-0.4,4.5-1.7,6.9
					c-1.3,2.4-3.9,4.4-6.9,5.3c-3,0.9-6,1-8.7,0.7c-2.7-0.2-5-0.6-7-0.9c-2-0.2-3.6-0.4-4.7-0.4c-1.1,0-1.7,0-1.7,0
					c0,0,0.6-0.2,1.7-0.2c1.1-0.1,2.8,0,4.8,0.1c2,0.2,4.4,0.5,7,0.7c2.6,0.2,5.5,0.1,8.4-0.8c2.9-0.8,5.3-2.7,6.5-4.9
					c1.3-2.2,1.6-4.7,1.8-6.6C427.4,770.6,427.1,768.1,427.3,768.1z"/>
			</g>
		</g>
		<g>
			<g>
				<path class="st4" d="M353.6,763.8c0,0-0.1-0.2-0.3-0.6c-0.2-0.4-0.5-1-0.8-1.9c-0.6-1.6-1.6-4-2.2-7.1c-0.5-3.1-0.4-7.2,2-10.8
					c1.2-1.8,3.1-3.2,5.3-3.9c2.2-0.7,4.6-0.8,7-0.7c4.8,0.1,9.5,1.1,13.1,3.3c3.6,2.2,6,5.6,6.5,8.8c0.6,3.2-0.3,5.8-1.3,7.3
					c-0.5,0.8-1,1.2-1.3,1.6c-0.4,0.3-0.6,0.4-0.6,0.4c-0.1-0.1,0.8-0.6,1.6-2.1c0.8-1.5,1.6-4,1-7c-0.6-3-2.9-6.2-6.4-8.3
					c-3.5-2.1-8-3-12.8-3.1c-2.4-0.1-4.7,0-6.8,0.7c-2.1,0.6-3.8,2-5,3.6c-1.1,1.7-1.8,3.5-2,5.3c-0.3,1.8-0.2,3.5,0,5
					c0.5,3.1,1.4,5.5,1.9,7.1c0.3,0.8,0.5,1.4,0.7,1.9C353.6,763.5,353.7,763.8,353.6,763.8z"/>
			</g>
		</g>
		<g>
			<g>
				<path class="st4" d="M367.1,772c0,0,0.1,0.5,0,1.5c-0.1,1-0.3,2.4-0.7,4.1c-0.4,1.7-1,3.7-1.9,5.9c-0.9,2.1-2.1,4.5-4.5,6.1
					c-1.2,0.8-2.6,1.1-4,0.8c-1.3-0.3-2.4-1.1-3.2-2c-0.8-0.9-1.3-2-1.5-3c-0.2-1-0.2-2-0.1-2.9c0.2-1.8,0.8-3.1,1.2-4
					c0.4-0.9,0.7-1.3,0.8-1.3c0,0-0.2,0.5-0.5,1.4c-0.3,0.9-0.8,2.2-1,3.9c-0.1,1.7,0.2,3.8,1.7,5.5c0.7,0.8,1.7,1.5,2.9,1.7
					c1.1,0.2,2.4-0.1,3.4-0.7c2.1-1.4,3.4-3.7,4.3-5.8c0.9-2.1,1.6-4,2-5.7C366.9,774.1,367,772,367.1,772z"/>
			</g>
		</g>
	</g>
	<g>
		<g>
			<path class="st7" d="M556.8,844.9c0,0.3-2,20.2-2,20.2s-3.9,2.4-3.9,2.5c0,0.1-14.2,1.1-14.2,1.1l-6.7,2.6l-7.2,0.7l-17.2,6.5
				c0,0,0.2,1.6,2.3,1.6c0,0,15.9-0.3,15.9-0.3c0,0,15.5-4.8,15.5-4.8l-0.3,5c0,0,4.6-0.3,5,0c0.4,0.3,12.5-0.9,14.5-1.1
				c2-0.3,9.2-1.6,12.6-5.2c3.3-3.6,4.5-27.9,4.5-27.9L556.8,844.9z"/>
		</g>
		<g>
			<path class="st4" d="M466.9,781.3c0,0,36.7-16.5,57-13c20.4,3.5,40.4,10.9,57.6,9.5c17.3-1.4,43.4,0.1,43.4,0.1l-8,64l-64.6,7.5
				c0,0-21.7,6.2-31.9,2.2c-10.2-4-49.4-31-49.4-31L466.9,781.3z"/>
		</g>
		<g>
			<path class="st7" d="M548,870.7c3.8,0.4,15,0,15,0l7-3.2l16.5,6.3l-2.5,7.1c-1.1,2.3-3.4,3.8-6,3.8h-36c0,0,0-2,2.4-2.5
				c2.4-0.6,6.2-1.8,6.2-1.8l-20.5,4.4H524c0,0-9.6,0.6-4.5-2.7C525.3,878.2,546,870.5,548,870.7z"/>
		</g>
		<g>
			<path class="st7" d="M472.2,801.3c0,0,1.3,23.5,31.4,23.9c30.1,0.4,71.3-14.6,71.3-14.6l-5.3,60.2l16.4,4.5
				c0,0,7.1-24.4,9.9-34.6c5.2-18.9,6.5-47,4.3-52.8c-2.2-5.8-23.6-8.8-39.5-9.7c-15.9-0.9-61.1,0-61.1,0
				C480.7,779.3,472.5,787.7,472.2,801.3z"/>
		</g>
		<g>
			<g>
				<path class="st8" d="M571.7,847.3c0,0,0,0.6-0.1,1.6c-0.2,1.1-0.4,2.6-0.6,4.3c-0.6,3.8-1.4,9-2.3,15.2l0,0.2l-0.2,0.1
					c-2,0.8-4.1,1.7-6.2,2.6l-0.1,0l-0.1,0c-2.2,0-4.5,0-6.9,0c-2.4,0-4.8,0-7,0c-0.6,0-1.1,0-1.6,0.1c-0.5,0.1-1,0.2-1.6,0.4
					c-1,0.3-2,0.7-3,1c-3.9,1.4-7.4,2.8-10.3,4c-2.9,1.2-5.2,2.1-6.9,2.8c-0.8,0.3-1.4,0.5-1.9,0.7c-0.4,0.2-0.7,0.2-0.7,0.2
					c0,0,0.2-0.1,0.6-0.4c0.5-0.2,1.1-0.5,1.8-0.9c1.6-0.7,3.9-1.8,6.8-3c2.9-1.2,6.4-2.7,10.3-4.2c1-0.4,2-0.7,3-1.1
					c0.5-0.2,1.1-0.3,1.6-0.4c0.6-0.1,1.2-0.1,1.7-0.1c2.3,0,4.6,0,7,0c2.4,0,4.7,0,6.9,0l-0.1,0c2.2-0.9,4.3-1.7,6.2-2.5l-0.2,0.3
					c1-6.1,1.9-11.3,2.6-15.1c0.3-1.8,0.6-3.2,0.8-4.3C571.6,847.8,571.7,847.3,571.7,847.3z"/>
			</g>
		</g>
		<g>
			<g>
				<path class="st8" d="M575.4,872.9c-0.1,0.2-1.8-0.7-3.8-1.9c-2-1.2-3.5-2.3-3.4-2.5c0.1-0.2,1.8,0.7,3.8,1.9
					C574,871.6,575.5,872.7,575.4,872.9z"/>
			</g>
		</g>
		<g>
			<g>
				<path class="st8" d="M584.1,795.8c0.1,0.1-1,0.6-2.5,1.7c-1.5,1.1-3.3,2.9-4.6,5.3c-1.3,2.4-1.9,4.9-2,6.7c-0.1,1.8,0,3-0.1,3
					c-0.1,0-0.4-1.1-0.4-3c0-1.9,0.5-4.5,1.9-7.1c1.4-2.5,3.4-4.4,5-5.4C582.9,796,584.1,795.7,584.1,795.8z"/>
			</g>
		</g>
	</g>
	<g>
		<g>
			<g>
				<g>
					<g>
						<path class="st7" d="M921.8,820c-0.8-0.4-23.8-1.5-23.8-1.5l1,25.8l24.8,0.3L921.8,820z"/>
					</g>
				</g>
				<g>
					<g>
						<g>
							<g>
								<g>
									<g>
										<g>
											<g>
												<g>
													<g>
														<g>
															<g>
																<g>
																	<g>
																		<g>
																			<path class="st4" d="M920.2,847.9l1.9-0.2c0,0,16.4,30.2,22.5,29.9l-7.2-62.8l-21.1,3.3
																				C921.7,826.9,923.4,836.6,920.2,847.9z"/>
																		</g>
																	</g>
																</g>
															</g>
														</g>
													</g>
												</g>
											</g>
										</g>
									</g>
								</g>
							</g>
							<g>
								<g>
									<g>
										<g>
											<g>
												<g>
													<g>
														<g>
															<g>
																<g>
																	<g>
																		<g>
																			<g>
																				<path class="st2" d="M922.3,847.9c0.3,0,0.3-1.6,1.1-3.2c0.8-1.6,2-2.6,1.9-2.8c-0.1-0.3-1.9,0.4-2.9,2.4
																					C921.4,846.2,922,848,922.3,847.9z"/>
																			</g>
																		</g>
																	</g>
																</g>
															</g>
														</g>
													</g>
												</g>
											</g>
										</g>
									</g>
								</g>
							</g>
							<g>
								<g>
									<g>
										<g>
											<g>
												<g>
													<g>
														<g>
															<g>
																<g>
																	<g>
																		<g>
																			<g>
																				<path class="st2" d="M925.8,854.2c0.3,0,0.7-1.4,1.9-2.5c1.2-1.2,2.6-1.7,2.5-2c0-0.3-1.8-0.3-3.3,1.2
																					C925.5,852.4,925.5,854.2,925.8,854.2z"/>
																			</g>
																		</g>
																	</g>
																</g>
															</g>
														</g>
													</g>
												</g>
											</g>
										</g>
									</g>
								</g>
							</g>
							<g>
								<g>
									<g>
										<g>
											<g>
												<g>
													<g>
														<g>
															<g>
																<g>
																	<g>
																		<g>
																			<g>
																				<path class="st2" d="M934.3,857c0-0.3-1.6-0.5-3.2,0.5c-1.6,1-2.1,2.5-1.9,2.6c0.3,0.1,1.1-0.9,2.4-1.7
																					C933,857.5,934.3,857.3,934.3,857z"/>
																			</g>
																		</g>
																	</g>
																</g>
															</g>
														</g>
													</g>
												</g>
											</g>
										</g>
									</g>
								</g>
							</g>
						</g>
					</g>
				</g>
				<g>
					<path class="st0" d="M932.7,815.4c0,0,1.3-0.1,3-0.6c1.5-0.5,3.1-0.1,4.3,0.9l0,0l4.1,35.6l2.9,26.4c0,0-2.4,1.4-5.5-1.6
						L932.7,815.4z"/>
				</g>
			</g>
		</g>
		<g>
			<path class="st6" d="M710.5,793.3c0,0-16.5-22.1-42.5-25.6c-15.7-2.1-49.6,10.2-49.6,10.2L617,842c0,0,39.4,2.2,56.7,4.4
				c17.3,2.2,87.7,1.3,101,0s35-5.3,35-5.3l100.1,3.5v-25.6c0,0-48.7-14.2-70.8-17.8C816.7,797.7,710.5,793.3,710.5,793.3z"/>
		</g>
		<g>
			<g>
				<path class="st2" d="M909.5,827.1c0,0-0.3,0-0.8,0c-0.5,0-1.3-0.1-2.2-0.2c-2-0.2-4.8-0.4-8.5-0.7c-7.4-0.6-18.1-1.4-31.3-2.4
					c-26.4-2-62.9-4.2-103.3-6.3c-40.4-2-76.9-3.9-103.4-5.2c-13.2-0.7-23.9-1.3-31.3-1.7c-3.7-0.2-6.5-0.4-8.5-0.5
					c-1-0.1-1.7-0.1-2.2-0.2c-0.5,0-0.8-0.1-0.8-0.1s0.3,0,0.8,0c0.5,0,1.3,0,2.2,0.1c2,0.1,4.8,0.2,8.5,0.4
					c7.4,0.4,18.1,0.9,31.3,1.5c26.5,1.3,63,2.9,103.4,5c40.4,2.1,76.9,4.4,103.3,6.5c13.2,1,23.9,1.9,31.3,2.6
					c3.7,0.4,6.5,0.6,8.5,0.8c0.9,0.1,1.7,0.2,2.2,0.2C909.2,827.1,909.5,827.1,909.5,827.1z"/>
			</g>
		</g>
		<g>
			<g>
				<path class="st2" d="M909.7,823.4c0,0-0.3,0-0.8,0c-0.5,0-1.3-0.1-2.2-0.2c-2-0.2-4.8-0.4-8.5-0.7c-7.4-0.6-18.1-1.4-31.3-2.4
					c-26.4-2-62.9-4.2-103.3-6.3c-40.4-2-76.9-3.9-103.4-5.2c-13.2-0.7-23.9-1.3-31.3-1.7c-3.7-0.2-6.5-0.4-8.5-0.5
					c-1-0.1-1.7-0.1-2.2-0.2c-0.5,0-0.8-0.1-0.8-0.1s0.3,0,0.8,0c0.5,0,1.3,0,2.2,0.1c2,0.1,4.8,0.2,8.5,0.4
					c7.4,0.4,18.1,0.9,31.3,1.5c26.5,1.3,63,2.9,103.4,5c40.4,2.1,76.9,4.4,103.3,6.5c13.2,1,23.9,1.9,31.3,2.6
					c3.7,0.4,6.5,0.6,8.5,0.8c0.9,0.1,1.7,0.2,2.2,0.2C909.5,823.4,909.7,823.4,909.7,823.4z"/>
			</g>
		</g>
	</g>
</g>
<g>
	<g>
		<g>
			<path class="st6" d="M135,879.2c-0.6-3.5-2.2-6.7-3.5-9.9c-1.2-2.9-2.3-6.1-2.1-9.2c0-0.3-0.1-0.6-0.1-0.9
				c-0.7-9-2-19.1-2.6-27.9L97.7,832c-2.5,2.7-2.9,6.7-2.3,10.3c0.5,3.6,1.9,7.1,2.3,10.7c0.6,5.3-0.6,10.7-0.1,16
				c0.6,6.2,3.6,12,8.2,16.2c4.6,4.2,10.7,6.6,16.9,6.9c3.5,0.2,7.4-0.4,9.9-2.9C135,886.6,135.6,882.7,135,879.2z"/>
		</g>
		<g>
			<path class="st2" d="M129.3,861.2"/>
		</g>
		<g>
			<path class="st2" d="M129.2,859.2"/>
		</g>
		<g>
			<path class="st9" d="M139.2,762.1l-45.8,7.6l-10.4,17.9l0,4.4c0,0,0,8,0,12.4c0,4.4,16.1,30,16.1,30l26.1,1.1
				c0,0,0.9-4.7,6.2-12.1c4.1-5.8,10.5-8.6,12.9-16.6c2.5-8,3.1-16.9,3.1-16.9L139.2,762.1z"/>
		</g>
		<g>
			<g>
				<path class="st10" d="M93.9,827.3c0,0-0.4-0.7-1.1-2c-0.6-1.3-1.5-3.2-2.5-5.7c-1-2.4-2-5.4-2.7-8.8c-0.6-3.4-0.8-7.4,0.2-11.3
					c1-4,3.2-7.3,5.8-9.7c2.5-2.4,5.3-4,7.7-5.2c2.4-1.2,4.4-1.9,5.8-2.3c0.7-0.2,1.2-0.4,1.6-0.5c0.4-0.1,0.6-0.1,0.6-0.1
					c0,0.1-0.7,0.3-2.1,0.8c-1.4,0.5-3.3,1.3-5.6,2.5c-2.3,1.2-5,2.8-7.4,5.2c-2.5,2.3-4.6,5.6-5.5,9.4c-1,3.8-0.8,7.6-0.3,11
					c0.6,3.4,1.6,6.3,2.5,8.8c0.9,2.4,1.8,4.4,2.3,5.7C93.6,826.5,93.9,827.3,93.9,827.3z"/>
			</g>
		</g>
		<g>
			<path class="st11" d="M96.5,830.2c0.1,0.1,3.4,5.8,5.8,10c1.9,3.2,5,5.6,8.6,6.5c3.8,0.9,8.3,1.1,10.7-2.2l0.7-0.9
				c1.4-2,2.5-4.3,3.2-6.7c0.6-2.2,1.4-4.8,2.1-6c1.3-2.3,1.2-3.5,1.2-3.5c-9.8,3.6-20.8,3.9-32.5,2.4"/>
		</g>
		<g>
			<path class="st0" d="M97.7,832h2.8c0,0-3.9,6.6-2.8,9.2c1,2.6,2.3,9,2.6,12.8c0.3,3.7-1,15,1.8,20s7.2,12,14.9,13.9
				c7.7,1.9,13.6-1,15.2-4.6c1.5-3.6-2.5-20-2.5-20l1.9,6.1c1.3,3.2,2.9,6.4,3.5,9.9c0.6,3.5,0,7.4-2.4,9.9
				c-2.5,2.5-6.3,3.1-9.9,2.9c-6.2-0.3-12.3-2.8-16.9-6.9c-4.6-4.2-7.7-10-8.2-16.2c-0.5-5.3,0.8-10.7,0.1-16
				c-0.4-3.6-1.8-7.1-2.3-10.7C94.8,838.7,95.2,834.6,97.7,832"/>
		</g>
		<g>
			<g>
				<path class="st4" d="M120.9,853.5c0.1,0.1-0.4,0.6-1.4,1.2c-0.9,0.6-2.4,1.2-4.1,1.4c-1.7,0.2-3.3-0.1-4.3-0.5
					c-1.1-0.4-1.6-0.8-1.6-0.9c0.1-0.2,2.6,1.1,5.8,0.7C118.6,855.1,120.7,853.3,120.9,853.5z"/>
			</g>
		</g>
		<g>
			<g>
				<path class="st4" d="M122.3,859.4c0.1,0.1-0.4,0.6-1.4,1.2c-0.9,0.6-2.4,1.2-4.1,1.4c-1.7,0.2-3.3-0.1-4.3-0.5
					c-1.1-0.4-1.6-0.8-1.6-0.9c0.1-0.2,2.6,1.1,5.8,0.7C120,861,122.2,859.2,122.3,859.4z"/>
			</g>
		</g>
		<g>
			<g>
				<path class="st4" d="M123.8,864.7c0.1,0.1-0.4,0.6-1.3,1.3c-0.9,0.7-2.3,1.4-4,1.7c-1.7,0.3-3.3,0.1-4.4-0.2
					c-1.1-0.3-1.7-0.7-1.6-0.8c0.1-0.2,2.6,0.9,5.9,0.3C121.6,866.4,123.7,864.5,123.8,864.7z"/>
			</g>
		</g>
		<g>
			<g>
				<path class="st4" d="M116.2,853.3c0,0,0-0.2-0.1-0.6c0-0.4,0-0.9,0.1-1.6c0.2-1.4,0.7-3.5,2.3-5.6c0.8-1,1.7-2.1,3-3
					c0.4-0.2,0.8-0.4,1.3-0.3c0.5,0.1,1,0.6,1,1.1c0.1,0.5-0.1,0.9-0.2,1.3c-0.1,0.4-0.3,0.8-0.5,1.2c-0.7,1.6-1.6,3.1-2.9,4.5
					c-0.6,0.7-1.3,1.4-2.1,2c-0.8,0.6-1.9,0.9-3,0.7c-1-0.2-1.9-0.7-2.7-1.1c-0.9-0.4-1.7-0.8-2.5-1.2c-1.6-0.8-3.2-1.7-4.6-2.7
					c-0.3-0.3-0.7-0.5-1-0.9c-0.3-0.4-0.4-0.9-0.3-1.4c0.1-0.5,0.5-1,1-1c0.5-0.1,0.9,0,1.3,0.1c1.4,0.5,2.7,1.1,3.8,1.8
					c2.2,1.4,3.6,2.9,4.5,4c0.4,0.6,0.8,1,0.9,1.3c0.2,0.3,0.3,0.5,0.3,0.5c-0.1,0-0.5-0.6-1.4-1.7c-0.9-1-2.4-2.5-4.6-3.8
					c-1.1-0.6-2.3-1.2-3.7-1.7c-0.7-0.2-1.4-0.2-1.5,0.5c-0.1,0.6,0.4,1.2,1.1,1.7c1.3,1,2.9,1.8,4.5,2.6c0.8,0.4,1.7,0.8,2.5,1.2
					c0.9,0.4,1.7,0.8,2.6,1c0.9,0.2,1.7-0.1,2.4-0.6c0.7-0.5,1.4-1.2,2-1.8c1.2-1.3,2.1-2.8,2.8-4.3c0.3-0.7,0.7-1.5,0.7-2.2
					c0-0.6-0.8-0.7-1.4-0.3c-1.2,0.7-2.2,1.8-2.9,2.7c-1.5,2-2.1,4-2.4,5.4C116.3,852.5,116.3,853.3,116.2,853.3z"/>
			</g>
		</g>
	</g>
	<g>
		<g>
			<path class="st9" d="M225.7,715.6c0,0,18-8.3,33.4-12.4c8.3-2.2,15.8-3.2,19.5-1.1c10.5,6,16.8,13.1,18.3,24.1
				c1.4,11,2,126.2,2,126.2l-26.8,4.6l-10.5-48.7c0,0-7.1-14.7-7.8-29.3c-0.7-14.6-0.6-16.9-0.6-16.9l-24.6,16.9l-9.2-39.1
				L225.7,715.6z"/>
		</g>
		<g>
			<g>
				<g>
					<g>
						<path class="st11" d="M271.4,855.6c-0.6-0.9-5.4-27.1-5.4-27.1l33.1-4.5l0.9,30L271.4,855.6z"/>
					</g>
				</g>
				<g>
					<g>
						<g>
							<g>
								<g>
									<g>
										<g>
											<g>
												<g>
													<g>
														<g>
															<g>
																<g>
																	<g>
																		<g>
																			<path class="st6" d="M303.2,849.3l0.1,2.2c0,0,37.2,14.1,37.8,21.2l-73.2,1.5l0.5-24.8
																				C279.4,854.4,290.8,854.7,303.2,849.3z"/>
																		</g>
																	</g>
																</g>
															</g>
														</g>
													</g>
												</g>
											</g>
										</g>
									</g>
								</g>
							</g>
							<g class="st12">
								<g>
									<g>
										<g>
											<g>
												<g>
													<g>
														<g>
															<g>
																<g>
																	<g>
																		<g>
																			<g>
																				<path class="st2" d="M276,857.2c-1.4,0.4-2.4,2.1-2,3.5c0.4,1.4,2,2.4,3.4,2c1.4-0.4,2.6-2.3,2.1-3.7
																					c-0.5-1.4-2.5-2.5-3.8-1.7"/>
																			</g>
																		</g>
																	</g>
																</g>
															</g>
														</g>
													</g>
												</g>
											</g>
										</g>
									</g>
								</g>
							</g>
							<g>
								<g>
									<g>
										<g>
											<g>
												<g>
													<g>
														<g>
															<g>
																<g>
																	<g>
																		<g>
																			<g>
																				<path class="st4" d="M303.6,851.8c0,0.4-1.8,0.6-3.5,1.8c-1.8,1.2-2.6,2.7-3,2.6c-0.3-0.1,0.2-2.2,2.3-3.7
																					C301.5,851,303.6,851.4,303.6,851.8z"/>
																			</g>
																		</g>
																	</g>
																</g>
															</g>
														</g>
													</g>
												</g>
											</g>
										</g>
									</g>
								</g>
							</g>
							<g>
								<g>
									<g>
										<g>
											<g>
												<g>
													<g>
														<g>
															<g>
																<g>
																	<g>
																		<g>
																			<g>
																				<path class="st4" d="M311.3,854.8c0.1,0.4-1.4,1-2.6,2.6c-1.2,1.5-1.5,3.2-1.9,3.2c-0.3,0.1-0.6-2.1,0.9-4
																					C309.2,854.7,311.3,854.5,311.3,854.8z"/>
																			</g>
																		</g>
																	</g>
																</g>
															</g>
														</g>
													</g>
												</g>
											</g>
										</g>
									</g>
								</g>
							</g>
							<g>
								<g>
									<g>
										<g>
											<g>
												<g>
													<g>
														<g>
															<g>
																<g>
																	<g>
																		<g>
																			<g>
																				<path class="st4" d="M315.8,864.1c-0.3,0.1-0.9-1.7,0-3.7c0.9-2,2.5-2.8,2.7-2.5c0.2,0.3-0.9,1.4-1.6,3
																					C316.3,862.5,316.2,864,315.8,864.1z"/>
																			</g>
																		</g>
																	</g>
																</g>
															</g>
														</g>
													</g>
												</g>
											</g>
										</g>
									</g>
								</g>
							</g>
						</g>
					</g>
				</g>
				<g>
					<path class="st0" d="M267.9,868.8c0,0,0.1,1.5-0.3,3.5c-0.3,1.8,0.3,3.6,1.7,4.8l0,0l41.5-0.9l30.7-0.8c0,0,1.3-3-2.7-6.1
						L267.9,868.8z"/>
				</g>
			</g>
			<g>
				<g>
					<path class="st4" d="M303.7,851.2c0,0-0.2-0.1-0.5-0.2c-0.3-0.2-0.7-0.5-1.2-0.9c-0.9-0.9-2.1-2.6-2.4-4.9
						c-0.2-1.2-0.1-2.5,0.4-3.9c0.3-0.6,0.7-1.4,1.6-1.6c0.9-0.1,1.7,0.5,2.2,1.2c1.4,2.9,1.8,6.5,0.9,10l-0.7-0.1
						c0-0.2,0-0.4,0-0.6c0.3-3.7,2.1-7,4.6-9.1c0.4-0.2,0.8-0.4,1.3-0.4c0.5,0,1,0.3,1.2,0.6c0.5,0.8,0.3,1.7,0.1,2.4
						c-0.5,1.3-1.1,2.5-1.8,3.5c-1.4,2-2.9,3.3-3.9,4c-0.5,0.4-1,0.6-1.3,0.8c-0.3,0.2-0.5,0.2-0.5,0.2c0-0.1,0.6-0.4,1.6-1.2
						c1-0.8,2.4-2.1,3.7-4.1c0.6-1,1.2-2.1,1.7-3.4c0.2-0.6,0.3-1.3,0-1.8c-0.3-0.5-1-0.4-1.6,0c-2.3,1.9-4,5.1-4.3,8.6
						c0,0.2,0,0.4,0,0.6l-0.7-0.1c0.8-3.3,0.5-6.9-0.8-9.5c-0.3-0.6-0.9-1-1.5-0.9c-0.6,0.1-1,0.7-1.2,1.2c-0.5,1.2-0.6,2.5-0.5,3.6
						c0.2,2.2,1.3,3.9,2.1,4.8C303.1,850.8,303.7,851.1,303.7,851.2z"/>
				</g>
			</g>
		</g>
		<g>
			<g>
				<path class="st10" d="M266.2,731.6c0.1,0.1-1.2,1.7-3.1,4.5c-1.9,2.8-4.2,6.9-6,11.6c-1.9,4.8-2.9,9.3-3.5,12.6
					c-0.5,3.3-0.7,5.4-0.8,5.4c0,0-0.1-0.5,0-1.5c0-0.9,0.1-2.3,0.3-4c0.4-3.4,1.4-8,3.3-12.8c1.9-4.8,4.3-8.9,6.3-11.7
					c1-1.4,1.8-2.5,2.5-3.2C265.8,732,266.2,731.6,266.2,731.6z"/>
			</g>
		</g>
	</g>
	<g>
		<g>
			<path class="st5" d="M236.8,786.4l-38.6,6.4c0,0-40.5,13.9-52.9,10c0,0,7.3-37.2-21.7-33.7c-37.5,4.5-40.7,32.5-40.7,32.5
				s-7.2-8.6-8.4-22.5c-1.2-13.9,2.7-29.1,2.7-29.1l3.9-10L188,722l53-16.6l18.2-2.1c0,0-18.9,26.9-21,41
				C236.1,758.4,236.8,786.4,236.8,786.4z"/>
		</g>
		<g>
			<g>
				<path class="st4" d="M154.2,759.8c0,0,0.3,0.6,0.6,1.6c0.2,0.5,0.4,1.2,0.6,1.9c0.2,0.8,0.5,1.6,0.6,2.6
					c0.4,1.9,0.7,4.3,0.8,6.9c0.1,2.6,0,5.5-0.5,8.6c-0.5,3-1.2,5.8-2.1,8.3c-0.9,2.5-1.9,4.7-2.8,6.4c-0.4,0.9-1,1.6-1.4,2.3
					c-0.4,0.7-0.8,1.2-1.1,1.7c-0.7,0.9-1,1.4-1.1,1.3c-0.1-0.1,1.3-2.1,3.1-5.6c0.9-1.8,1.8-3.9,2.7-6.4c0.8-2.5,1.5-5.2,2-8.2
					c0.4-3,0.6-5.8,0.5-8.4c-0.1-2.6-0.3-4.9-0.7-6.9C154.9,762.2,154.1,759.9,154.2,759.8z"/>
			</g>
		</g>
		<g>
			<g>
				<path class="st4" d="M185.2,762.1c0.1,0.1-0.7,1.5-1.8,3.8c-1.2,2.3-2.7,5.6-4.2,9.2c-1.5,3.7-2.7,7-3.5,9.5
					c-0.8,2.5-1.3,4-1.4,4c-0.1,0,0.2-1.6,0.9-4.1c0.7-2.5,1.8-5.9,3.3-9.6c1.5-3.7,3.1-6.9,4.4-9.2
					C184.2,763.4,185.2,762.1,185.2,762.1z"/>
			</g>
		</g>
		<g>
			<g>
				<path class="st4" d="M225.8,755.3c0,0-0.1,0.5-0.3,1.2c-0.2,0.8-0.6,1.9-1.1,3.3c-1,2.8-2.5,6.5-4.4,10.6c-2,4-4,7.5-5.6,10
					c-0.8,1.2-1.5,2.2-1.9,2.9c-0.5,0.7-0.8,1-0.8,1c-0.1-0.1,0.9-1.6,2.3-4.1c1.5-2.5,3.4-6,5.4-10c1.9-4,3.5-7.7,4.6-10.4
					C225.1,756.9,225.7,755.3,225.8,755.3z"/>
			</g>
		</g>
	</g>
	<g>
		<g>
			<path class="st6" d="M111.4,610.7c0,0-16.8,7.1-22.8,24.3s-19.1,83.7-12,102.8c7.1,19.1,83.4,21.3,83.4,21.3l15.7-1.5v-23.5
				l-12.7-1.9c0,0-7.5-3.7-8.6-3.7c-1.1,0-40-13.5-40-13.5l1.9-6.7c0,0,10.8-16.1,11.2-23.4c0.4-7.3-2.3-37.9-2.3-37.9L111.4,610.7z
				"/>
		</g>
		<g>
			<path class="st6" d="M199.1,597.4l-87.7,13.3L109.1,712l31.4,24.3l67.3-8.2l20.4-76.2c0,0,10.6-20.5,2.9-37.9
				c-2.5-5.6-10.1-15.2-16.2-16.4C209.7,596.6,204.4,596.5,199.1,597.4z"/>
		</g>
		<g>
			<path class="st6" d="M175.4,637.7c-8.1-5.4-17.8-8-24.4-15.2c-6.6-7.2-5.4-10.6-8-19.2l-14,6.9c1.7,14.2,8.8,22.3,20.5,30.6
				c4,2.8,8.5,5.1,13.3,5.8c4.8,0.7,10-0.2,13.9-3.2c0.5-0.4,1-0.8,1.2-1.4C178.6,640.3,176.9,638.7,175.4,637.7z"/>
		</g>
		<g>
			<g>
				<path class="st4" d="M231.3,632.2c0,0,0,0.5-0.1,1.3c-0.1,0.8-0.3,2.1-0.5,3.6c-0.5,3-1.3,7.2-2.2,11.7
					c-0.9,4.6-1.9,8.7-2.6,11.6c-0.4,1.5-0.7,2.7-0.9,3.5c-0.2,0.8-0.4,1.3-0.4,1.3c-0.1,0,0.3-1.9,0.9-4.9
					c0.7-3.2,1.5-7.2,2.4-11.7c0.9-4.5,1.8-8.5,2.4-11.7C230.8,634,231.2,632.2,231.3,632.2z"/>
			</g>
		</g>
		<g>
			<g>
				<path class="st4" d="M140.2,619.8c-0.1,0.1-1.4-1.5-4.3-2.9c-1.4-0.7-3.3-1.2-5.4-1.5c-2.1-0.3-4.4-0.3-6.9-0.2
					c-2.5,0.1-4.8,0.3-7,0.3c-2.2,0-4.1-0.1-5.7-0.3c-1.6-0.3-2.9-0.7-3.7-1c-0.8-0.3-1.3-0.6-1.3-0.6c0-0.1,1.9,0.8,5.1,1.1
					c1.6,0.2,3.5,0.3,5.6,0.2c2.1-0.1,4.5-0.3,6.9-0.4c2.5-0.1,4.9-0.1,7,0.2c2.1,0.3,4,1,5.5,1.7c1.5,0.7,2.5,1.6,3.2,2.2
					C140,619.4,140.3,619.8,140.2,619.8z"/>
			</g>
		</g>
		<g>
			<g>
				<path class="st4" d="M159.4,642.4c0,0-0.4-0.1-1.1-0.3c-0.7-0.2-1.7-0.7-2.9-1.2c-2.4-1.2-5.6-3.2-8.6-6c-3-2.9-5.2-6-6.5-8.3
					c-0.7-1.2-1.1-2.2-1.4-2.9c-0.3-0.7-0.4-1.1-0.4-1.1c0.1-0.1,0.8,1.5,2.2,3.7c1.4,2.3,3.6,5.3,6.5,8.1c2.9,2.8,6,4.8,8.4,6.1
					C157.9,641.7,159.4,642.3,159.4,642.4z"/>
			</g>
		</g>
		<g>
			<g>
				<path class="st4" d="M193,610.2c0,0,0.1,0.4,0.3,1.1c0.1,0.7,0.2,1.8,0.3,3.1c0.1,2.6-0.1,6.3-1.2,10.2c-1,3.9-2.6,7.2-4,9.5
					c-0.7,1.1-1.3,2-1.8,2.6c-0.5,0.6-0.7,0.9-0.8,0.8c-0.1-0.1,0.8-1.4,2.1-3.7c1.3-2.3,2.7-5.6,3.7-9.4c1-3.8,1.3-7.4,1.3-10
					C193,611.8,192.8,610.2,193,610.2z"/>
			</g>
		</g>
		<g>
			<g>
				<path class="st4" d="M128.9,691.7c0,0,0-0.3,0.1-0.7c0.1-0.5,0.3-1.2,0.4-2c0.2-0.9,0.4-1.9,0.6-3.1c0.2-1.2,0.5-2.6,0.6-4.2
					c0.1-0.8,0.2-1.6,0.3-2.5c0.1-0.9,0.1-1.7,0.1-2.7c0.1-1.8,0.1-3.8,0-5.9c-0.2-4.1-0.7-8.7-1.7-13.4c-1.1-4.7-2.6-9-4.2-12.8
					c-0.9-1.9-1.6-3.7-2.6-5.3c-0.4-0.8-0.8-1.6-1.3-2.4c-0.4-0.7-0.9-1.4-1.3-2.1c-0.8-1.4-1.6-2.5-2.3-3.5c-0.7-1-1.3-1.9-1.9-2.6
					c-0.5-0.6-0.9-1.2-1.2-1.6c-0.3-0.4-0.4-0.6-0.4-0.6c0,0,0.2,0.2,0.5,0.5c0.4,0.4,0.8,0.9,1.3,1.5c0.6,0.7,1.3,1.5,2,2.5
					c0.7,1,1.6,2.1,2.5,3.5c0.4,0.7,0.9,1.4,1.3,2.1c0.5,0.7,0.9,1.5,1.3,2.4c0.9,1.6,1.7,3.4,2.6,5.3c1.6,3.9,3.2,8.2,4.2,12.9
					c1,4.7,1.5,9.3,1.7,13.5c0,2.1,0.1,4.1-0.1,5.9c-0.1,0.9-0.1,1.8-0.2,2.7c-0.1,0.9-0.2,1.7-0.3,2.5c-0.2,1.6-0.5,3-0.7,4.2
					c-0.2,1.2-0.5,2.3-0.7,3.1c-0.2,0.8-0.4,1.4-0.6,2C129,691.4,128.9,691.7,128.9,691.7z"/>
			</g>
		</g>
		<g>
			<g>
				<path class="st4" d="M119.7,706.9c-0.2-0.1,1-3.4,2.6-7.3c1.6-4,3.1-7.1,3.3-7c0.2,0.1-1,3.4-2.6,7.3
					C121.4,703.9,119.9,707,119.7,706.9z"/>
			</g>
		</g>
		<g>
			<g>
				<path class="st4" d="M178.1,734.4c0,0-0.3,0-0.8,0c-0.6-0.1-1.3-0.2-2.2-0.3c-2-0.3-4.7-0.7-8-1.1c-6.8-1-16.1-2.5-26.4-4
					c-0.6-0.1-1.2-0.2-1.7-0.3l-0.1,0l-0.1-0.1c-6.5-7.6-13.8-13-19.3-16.4c-2.8-1.7-5.1-2.9-6.7-3.7c-0.7-0.4-1.4-0.7-1.9-0.9
					c-0.4-0.2-0.6-0.3-0.6-0.4c0,0,0.2,0.1,0.7,0.2c0.4,0.2,1.1,0.4,1.9,0.8c1.7,0.7,4,1.9,6.8,3.5c5.6,3.3,13,8.7,19.6,16.3
					l-0.2-0.1c0.5,0.1,1.1,0.2,1.7,0.3c10.2,1.6,19.5,3.1,26.4,4.2c3.3,0.6,6,1,8,1.4c0.9,0.2,1.6,0.3,2.2,0.4
					C177.8,734.3,178.1,734.4,178.1,734.4z"/>
			</g>
		</g>
		<g>
			<g>
				<path class="st4" d="M204.7,676.7c0,0-0.1,0.2-0.3,0.6c-0.3,0.5-0.6,1-1,1.7c-0.4,0.7-1,1.6-1.7,2.6c-0.7,1-1.4,2.2-2.4,3.4
					c-0.9,1.2-2,2.5-3.2,3.9c-1.2,1.4-2.5,2.7-4,4.2c-2.9,2.8-6.4,5.7-10.3,8.3c-3.9,2.6-7.9,4.7-11.6,6.4c-1.9,0.8-3.6,1.6-5.4,2.1
					c-1.7,0.6-3.3,1.1-4.8,1.5c-1.5,0.5-2.8,0.7-4,1c-1.2,0.3-2.2,0.4-3.1,0.6c-0.8,0.1-1.4,0.2-2,0.3c-0.4,0.1-0.7,0.1-0.7,0
					c0,0,0.2-0.1,0.7-0.2c0.5-0.1,1.2-0.2,1.9-0.4c0.8-0.2,1.9-0.4,3-0.7c1.2-0.3,2.5-0.6,4-1.1c1.5-0.4,3.1-0.9,4.7-1.6
					c1.7-0.6,3.4-1.4,5.3-2.2c3.7-1.7,7.6-3.8,11.4-6.4c3.8-2.6,7.3-5.4,10.2-8.2c1.4-1.4,2.8-2.7,4-4.1c1.2-1.3,2.3-2.6,3.2-3.8
					c1-1.2,1.8-2.3,2.5-3.3c0.7-1,1.3-1.8,1.8-2.6c0.4-0.7,0.8-1.2,1.1-1.6C204.5,676.9,204.6,676.7,204.7,676.7z"/>
			</g>
		</g>
		<g>
			<g>
				<path class="st2" d="M175.7,753.4c0,0-0.2,0.1-0.5,0.2c-0.3,0.1-0.9,0.2-1.5,0.4c-1.4,0.3-3.4,0.6-6,1c-2.6,0.3-5.8,0.6-9.6,0.7
					c-1.9,0-3.9,0.1-6,0c-2.1-0.1-4.4-0.3-6.7-0.5c-9.4-1-20.5-2.7-32.7-5c-6.1-1.2-12.5-2.6-19-4.5c-1.6-0.5-3.3-1-4.9-1.7
					c-1.6-0.6-3.3-1.4-4.6-2.7c-2.6-2.5-4-6.1-4.6-9.6c-0.3-2-0.5-4-0.3-5.9l0,0c-0.4-13.7,1-26.8,3-38.4c2.1-11.6,4.7-21.9,7-30.4
					c2.3-8.6,4.3-15.4,5.6-20.2c0.7-2.3,1.2-4.2,1.5-5.5c0.2-0.6,0.3-1.1,0.4-1.4c0.1-0.3,0.2-0.5,0.2-0.5c0,0,0,0.2-0.1,0.5
					c-0.1,0.4-0.2,0.8-0.4,1.4c-0.3,1.3-0.8,3.1-1.4,5.5c-1.3,4.8-3.1,11.7-5.4,20.2c-2.2,8.6-4.8,18.8-6.8,30.4
					c-2,11.6-3.4,24.5-3,38.2l0,0l0,0c-0.1,1.8,0,3.8,0.3,5.7c0.6,3.5,2,6.8,4.4,9.2c1.1,1.3,2.7,1.9,4.3,2.6
					c1.6,0.6,3.2,1.2,4.8,1.6c6.5,1.9,12.9,3.3,19,4.5c12.2,2.4,23.3,4.1,32.6,5.2c9.3,1.2,17,0.7,22.2,0.2c2.6-0.3,4.6-0.6,6-0.8
					c0.7-0.1,1.2-0.2,1.5-0.3C175.5,753.4,175.7,753.4,175.7,753.4z"/>
			</g>
		</g>
		<g>
			<g>
				<path class="st2" d="M175.7,750.6c0,0-0.2,0.1-0.5,0.2c-0.3,0.1-0.8,0.2-1.5,0.4c-1.3,0.3-3.3,0.6-5.9,0.7
					c-5.2,0.3-12.6,0.2-21.8-0.7c-9.2-0.9-20.1-2.3-32.1-4.6c-6-1.2-12.3-2.5-18.6-4.6c-1.6-0.6-3.2-1.1-4.6-2.1
					c-1.4-1.1-2.5-2.4-3.5-3.9c-1.9-2.9-3.1-6.3-3.8-9.8c-0.2-0.9-0.3-1.7-0.4-2.6c-0.1-0.9,0-1.8-0.1-2.6c0-1.7-0.1-3.5,0-5.2
					c0-1.7,0.1-3.4,0.1-5.1c0.1-1.7,0.2-3.4,0.3-5c0.5-6.6,1.4-13,2.4-19c2.1-12,4.8-22.7,7.2-31.6c2.4-8.9,4.5-16.1,5.9-21
					c0.7-2.4,1.2-4.4,1.6-5.7c0.2-0.6,0.3-1.1,0.4-1.5c0.1-0.3,0.2-0.5,0.2-0.5c0,0,0,0.2-0.1,0.5c-0.1,0.4-0.2,0.9-0.4,1.5
					c-0.4,1.4-0.9,3.3-1.5,5.7c-1.3,5-3.3,12.2-5.6,21.1c-2.3,8.9-5,19.6-7,31.6c-1,6-1.8,12.3-2.3,18.9c-0.1,1.7-0.2,3.3-0.3,5
					c0,1.7-0.1,3.4-0.1,5.1c-0.1,1.7,0,3.4,0,5.2c0,0.9,0,1.8,0.1,2.6c0.1,0.9,0.2,1.7,0.4,2.6c0.7,3.4,1.8,6.7,3.6,9.5
					c0.9,1.4,2,2.7,3.3,3.7c1.3,0.9,2.9,1.5,4.4,2c6.3,2.1,12.5,3.4,18.5,4.6c11.9,2.4,22.8,3.8,32,4.8c9.2,0.9,16.6,1.1,21.8,0.9
					c2.6-0.1,4.6-0.4,5.9-0.6c0.7-0.1,1.2-0.2,1.5-0.3C175.5,750.6,175.7,750.6,175.7,750.6z"/>
			</g>
		</g>
	</g>
	<g>
		<g>
			<path class="st6" d="M286.7,656.5c3.3,3.2,9.5,12.6,10.7,17c1.8,6.9,3.1,16.9-2.4,21.7c-9,7.8-57.2,16.4-57.2,16.4l-9.3-22.8
				l23.1-16.9l-27-12.2l-7.3-61.3c0,0,19.8,11,36.3,27.5C266.7,639.1,279,649.2,286.7,656.5z"/>
		</g>
		<g>
			<g>
				<path class="st4" d="M277.1,664.1c0,0.1-1.6,0.2-4.2,0.6c-2.6,0.4-6.1,1.1-9.9,2.4c-3.8,1.3-7.1,2.8-9.4,4.1
					c-2.3,1.2-3.7,2.1-3.7,2c0,0,0.3-0.3,0.9-0.7c0.6-0.4,1.5-1,2.6-1.7c2.3-1.4,5.6-3,9.4-4.3c3.8-1.3,7.5-1.9,10.1-2.2
					c1.3-0.1,2.4-0.2,3.1-0.2C276.7,664,277.1,664,277.1,664.1z"/>
			</g>
		</g>
		<g>
			<g>
				<path class="st2" d="M299,682.5c0,0-0.1,0.2-0.2,0.6c-0.2,0.4-0.5,1-1,1.7c-1,1.4-2.8,3.2-5.6,4.6c-2.7,1.5-6.2,2.6-10,3.7
					c-3.8,1.1-8.1,2.4-12.5,3.6c-8.9,2.5-17.1,4.6-23,6c-2.9,0.7-5.3,1.3-7,1.6c-0.8,0.2-1.4,0.3-1.9,0.4c-0.4,0.1-0.7,0.1-0.7,0.1
					c0,0,0.2-0.1,0.6-0.2c0.5-0.1,1.1-0.3,1.9-0.5c1.7-0.5,4.1-1.1,6.9-1.9c5.9-1.6,14-3.7,22.9-6.2c4.4-1.3,8.7-2.5,12.6-3.6
					c3.9-1.1,7.3-2.1,10-3.5c2.7-1.3,4.6-3,5.6-4.3C298.6,683.4,298.9,682.5,299,682.5z"/>
			</g>
		</g>
		<g>
			<g>
				<path class="st2" d="M298.4,678.6c0,0-0.1,0.2-0.4,0.6c-0.3,0.4-0.7,0.9-1.3,1.5c-1.2,1.3-3,3-5.7,4.5c-2.7,1.6-6.2,2.8-10,4
					c-3.8,1.2-8,2.7-12.5,4.1c-8.9,2.8-17.1,4.8-23.1,6.1c-3,0.7-5.4,1.1-7.1,1.4c-0.8,0.1-1.4,0.2-1.9,0.3
					c-0.4,0.1-0.7,0.1-0.7,0.1c0,0,0.2-0.1,0.7-0.2c0.5-0.1,1.2-0.3,1.9-0.5c1.8-0.4,4.2-1,7-1.7c5.9-1.4,14.1-3.6,23-6.3
					c4.5-1.4,8.6-2.8,12.5-4c3.9-1.2,7.3-2.4,10-3.9c2.7-1.4,4.5-3.1,5.7-4.3C297.8,679.3,298.4,678.6,298.4,678.6z"/>
			</g>
		</g>
		<g>
			<g>
				<path class="st2" d="M283.1,655.8c0,0-0.2-0.2-0.6-0.5c-0.4-0.4-1-0.9-1.7-1.5c-1.5-1.4-3.6-3.3-6.1-5.7
					c-5.2-4.8-12.5-11.2-20.9-17.9c-8.4-6.7-16.3-12.5-22.1-16.5c-2.8-2-5.2-3.6-6.9-4.8c-0.8-0.5-1.4-1-1.9-1.3
					c-0.4-0.3-0.6-0.5-0.6-0.5c0,0,0.3,0.1,0.7,0.4c0.5,0.3,1.2,0.7,1.9,1.2c1.7,1,4.1,2.6,7,4.6c5.9,3.9,13.8,9.6,22.2,16.4
					c8.4,6.7,15.7,13.3,20.8,18.1c2.6,2.4,4.6,4.4,6,5.8c0.6,0.7,1.2,1.2,1.6,1.6C283,655.6,283.1,655.8,283.1,655.8z"/>
			</g>
		</g>
		<g>
			<path class="st9" d="M182.4,731.2c-0.3-1-1.1-6.3-1.1-6.3l6.8-11.2l14.9-11.8l25.7-12.3l8.2,20.1l-11.9,5.9l-6.3,13.8l-4.9,6.4
				l-1,14.9c0,0-2,1.1-3.2-0.7c-1.1-1.8-1.4-12.7-1.2-12.1c0.2,0.6-1.3,13.6-2.8,13.6c-1.5,0-5-2.2-5-2.2l1.1-13.1
				c0,0-2.1,15.7-3.3,15.3c-1.2-0.4-3.8-1.5-3.8-4.5c-0.1-3-0.8-20.5-0.8-20.5l-5.9,3.9c0,0,4.8,10.3,3.4,11.3
				C190.1,742.8,185.1,739.6,182.4,731.2z"/>
		</g>
	</g>
	<g>
		<g>
			<path class="st6" d="M164.7,593.3c-5.8-4.1-29.8-7.9-36.7-9.5c-3.5-0.8-7.8-1-10.1,1.8c-1.7,2.1-1.6,5.1-3,7.3
				c-2.8,4.5-10,4.4-12.8,8.8c-2.5,3.8-0.3,9.1,3.3,11.8c3.6,2.7,8.3,3.5,12.7,4.4c8.4,1.8,16.6,4.6,24.3,8.2
				c1.8,0.8,3.9,1.7,5.6,0.6c1.1-0.7,1.5-2.1,1.8-3.4c2.7-11.5,5.1-21.8-2.5-30.9L164.7,593.3z"/>
		</g>
		<g class="st13">
			<g>
				<path class="st14" d="M154.6,592.6c-3.6-0.8-18.3-3.3-22.2-5.5c-1.3-0.7-2.8-1-4.2-0.7c-4.7,1-4.5,7.5-8,10.5
					c-1.9,1.7-4.7,1.9-7.1,2.7c-2.6,0.9-5.3,3.1-4.4,5.9c0.3,0.9,0.9,1.6,1.6,2.1c1.7,1.1,3.6,1.3,5.6,1.4c5.1,0.3,10.3,0.6,15.4,0
					c3.7-0.4,9.2-3.2,11.8-5.8l0-5.4C176.6,600.4,159.8,593.7,154.6,592.6z"/>
			</g>
		</g>
	</g>
	<g>
		<g>
			<g>
				<g>
					<g>
						<path class="st4" d="M201.2,544c3.7,0.5,7.6-2.2,8.5-5.9c0.9-3.7-1.4-7.8-5-9.1c2.4-2.3,3-6.3,1.6-9.3c-1.5-3-5-4.9-8.3-4.4
							c-0.1-3.3-2-6.5-4.8-8.1c-2.9-1.6-6.6-1.6-9.5,0c-3.6-3.2-9.5-3.4-13.3-0.5c-3.2-0.7-6.7,1-8.3,3.8c-1.6,2.9-1,6.7,1.3,9"/>
					</g>
				</g>
			</g>
			<g>
				<g>
					<g>
						<g>
							<g>
								<g>
									<path class="st9" d="M202.3,545.1c-1-17-14.9-30.4-32-30.7l-1.7,0c-18.3,0.7-27.9,16.6-26.7,34.9l1.4,60.9l2.3,3.6
										c7,8.9,21.2,18.8,27.2,24.9l0,0c9.5-4.9,12.4-7.3,12.6-19l0.2-12.7c0,0,17.6-2.4,18.2-19.9
										C204.1,578.4,203.2,560.9,202.3,545.1z"/>
								</g>
							</g>
						</g>
					</g>
					<g>
						<g>
							<g>
								<g>
									<g>
										<g>
											<path class="st10" d="M185.8,606.8c0,0-11.2,0.4-22.9-7.2c0,0,5.1,12.7,22.7,11.5L185.8,606.8z"/>
										</g>
									</g>
								</g>
							</g>
						</g>
					</g>
					<g>
						<g>
							<g>
								<g>
									<g>
										<g>
											<g>
												<g>
													<g>
														<path class="st4" d="M195.9,562.5c0,1.3-1.1,2.4-2.5,2.5c-1.4,0-2.5-1-2.5-2.3c0-1.3,1.1-2.4,2.5-2.5
															C194.8,560.1,195.9,561.2,195.9,562.5z"/>
													</g>
												</g>
											</g>
										</g>
									</g>
								</g>
							</g>
						</g>
					</g>
					<g>
						<g>
							<g>
								<g>
									<g>
										<g>
											<g>
												<g>
													<g>
														<g>
															<path class="st4" d="M198.3,553.6c-0.3,0.3-2.2-1.1-4.9-1.2c-2.7-0.1-4.7,1.3-5,0.9c-0.1-0.1,0.2-0.7,1.1-1.3
																c0.9-0.6,2.3-1.2,4-1.1c1.7,0,3.1,0.7,3.9,1.3C198.2,552.9,198.5,553.5,198.3,553.6z"/>
														</g>
													</g>
												</g>
											</g>
										</g>
									</g>
								</g>
							</g>
						</g>
					</g>
					<g>
						<g>
							<g>
								<g>
									<g>
										<g>
											<g>
												<g>
													<g>
														<path class="st4" d="M171.7,562c0,1.3-1.1,2.4-2.5,2.5c-1.4,0-2.5-1-2.5-2.3c0-1.3,1.1-2.4,2.5-2.5
															C170.6,559.7,171.7,560.7,171.7,562z"/>
													</g>
												</g>
											</g>
										</g>
									</g>
								</g>
							</g>
						</g>
					</g>
					<g>
						<g>
							<g>
								<g>
									<g>
										<g>
											<g>
												<g>
													<g>
														<g>
															<path class="st4" d="M171.8,553.6c-0.3,0.3-2.2-1.1-4.9-1.2c-2.7-0.1-4.7,1.3-5,0.9c-0.1-0.1,0.2-0.7,1.1-1.3
																c0.9-0.6,2.3-1.2,4-1.1c1.7,0,3.1,0.7,3.9,1.3C171.7,552.8,172,553.4,171.8,553.6z"/>
														</g>
													</g>
												</g>
											</g>
										</g>
									</g>
								</g>
							</g>
						</g>
					</g>
					<g>
						<g>
							<g>
								<g>
									<g>
										<g>
											<g>
												<g>
													<g>
														<path class="st4" d="M181.2,573.8c0-0.2,1.7-0.4,4.4-0.7c0.7-0.1,1.3-0.2,1.5-0.6c0.2-0.5-0.1-1.2-0.4-2.1
															c-0.6-1.7-1.3-3.4-1.9-5.3c-2.7-7.5-4.6-13.7-4.3-13.8c0.3-0.1,2.7,5.9,5.4,13.4c0.6,1.9,1.3,3.6,1.8,5.3
															c0.2,0.8,0.7,1.7,0.3,2.7c-0.2,0.5-0.7,0.9-1.2,1c-0.4,0.1-0.8,0.1-1.2,0.1C182.9,573.9,181.2,573.9,181.2,573.8z"/>
													</g>
												</g>
											</g>
										</g>
									</g>
								</g>
							</g>
						</g>
					</g>
					<g>
						<g>
							<g>
								<g>
									<g>
										<path class="st4" d="M172.7,543c-0.3,0.7-3,0.3-6.1,0.6c-3.2,0.3-5.7,1.1-6.2,0.5c-0.2-0.3,0.3-1,1.3-1.7
											c1-0.7,2.7-1.3,4.6-1.5c1.9-0.2,3.6,0.2,4.8,0.7C172.3,542.1,172.9,542.7,172.7,543z"/>
									</g>
								</g>
							</g>
						</g>
					</g>
					<g>
						<g>
							<g>
								<g>
									<g>
										<path class="st4" d="M197.5,545.8c-0.5,0.6-2.3-0.1-4.6-0.1c-2.2-0.2-4.1,0.3-4.6-0.3c-0.2-0.3,0.1-0.9,1-1.5
											c0.8-0.6,2.2-1,3.7-0.9c1.5,0.1,2.9,0.7,3.6,1.3C197.5,544.8,197.7,545.5,197.5,545.8z"/>
									</g>
								</g>
							</g>
						</g>
					</g>
					<g>
						<g>
							<g>
								<g>
									<path class="st4" d="M200.8,537c0,0-4.4-11.1-9.6-13.8c-6.4-3.2-9.3,3.7-15.3,1.9c-6.1-1.8-12.1-4.9-18.5-0.3
										c-6.9,5-3.8,8.7-4.4,16.5c-2.4,31.5-8.3,40.3-9.6,25.4c-0.1-1.6-4.6-3-5.2-9.9c-0.7-8.9-0.8-19.8,1.3-26.1
										c1.8-5.3,4.9-8.9,10.4-12.9c8.7-6.2,20.6-6.1,28.6-5.2C186.5,513.7,201.8,523.3,200.8,537z"/>
								</g>
							</g>
						</g>
					</g>
					<g>
						<g>
							<g>
								<g>
									<path class="st9" d="M144.4,566.3c-0.1-2.7-2.3-4.9-5-4.7c-3.3,0.2-7,2-6.9,8.8c0.1,12,12.2,9.4,12.2,9
										C144.6,579.2,144.5,571.3,144.4,566.3z"/>
								</g>
							</g>
						</g>
					</g>
					<g>
						<g>
							<g>
								<g>
									<path class="st10" d="M142,575c-0.1,0-0.2,0.1-0.6,0.3c-0.3,0.2-0.9,0.3-1.6,0c-1.3-0.5-2.4-2.5-2.4-4.6
										c0-1.1,0.2-2.1,0.6-3c0.4-0.9,0.9-1.5,1.6-1.6c0.6-0.2,1.1,0.2,1.2,0.6c0.2,0.3,0.1,0.6,0.2,0.6c0,0,0.3-0.2,0.2-0.7
										c-0.1-0.2-0.2-0.5-0.5-0.7c-0.3-0.2-0.7-0.3-1.2-0.3c-0.9,0.1-1.7,0.9-2.2,1.9c-0.5,1-0.7,2.1-0.7,3.4
										c0.1,2.4,1.4,4.7,3.1,5.1c0.8,0.2,1.5-0.1,1.9-0.3C142,575.3,142,575,142,575z"/>
								</g>
							</g>
						</g>
					</g>
				</g>
				<g>
					<g>
						<g>
							<path class="st4" d="M145.1,543.1c1.5,1.1,3.2,2.2,5,2.5c1.9,0.2,4-0.8,4.4-2.7c0.2-0.8,0-1.8,0.5-2.4
								c0.7-0.8,1.9-0.5,2.9-0.4c3.5,0.4,7.1-2,8.1-5.3c0.9,1.4,2.9,1.3,4.3,0.5c1.4-0.8,2.3-2.2,3.3-3.4c1.1-1.2,2.6-2.2,4.2-2
								c0.9,0.1,1.7,0.7,2.6,0.6c1.6-0.1,2.4-1.9,2.7-3.5c0.3-1.6,0.5-3.4,1.8-4.2c1.3-0.8,2.8-0.3,4.3,0c1.4,0.2,3.3-0.1,3.7-1.5
								c0.2-0.7-0.1-1.5-0.5-2.2c-1.8-3-5.9-4.4-9.1-3.1c-1.1-4-4.7-7.2-8.8-7.7c-4.1-0.5-8.4,1.6-10.5,5.2
								c-2.5-2.4-6.2-3.4-9.5-2.7c-3.4,0.7-6.3,3.1-7.7,6.2c-2.9-0.8-6.3,0.2-8.2,2.6c-1.9,2.3-2.2,5.8-0.8,8.5
								c-2.2,1.2-4.1,3.3-4.2,5.8c-0.1,2.5,2.3,5,4.7,4.4c-1,1.9-0.3,4.6,1.6,5.7c1.9,1.1,4.5,0.5,5.8-1.2"/>
						</g>
					</g>
				</g>
				<g>
					<g>
						<g>
							<g>
								<path class="st5" d="M184.1,519.5c0,0,0,0.1,0,0.2c0,0.1,0,0.4-0.1,0.6c-0.1,0.6-0.4,1.4-0.9,2.3c-0.6,0.9-1.4,2-2.7,2.8
									c-1.3,0.8-3,1.4-4.9,1.3l0.2-0.3c0.4,1,0.2,2.3-0.3,3.3c-0.5,1.1-1.3,2-2.1,2.9c-0.4,0.4-0.8,1-1.4,1.3
									c-0.6,0.4-1.2,0.6-1.9,0.7c-1.4,0.1-2.9-0.3-3.8-1.5l0.5-0.1c-0.4,2.4-1.8,4.7-3.9,6.1c-1.2,0.8-2.6,1.3-4,1.2
									c-1.4,0-2.7-0.5-3.9-0.9l0.3-0.1c-0.7,1.5-1.7,2.7-2.9,3.6c-1.2,0.9-2.8,1.4-4.2,1.1c-2.8-0.7-4.6-3.1-5-5.3l0.3,0.1
									c-1.4,0.7-2.9,0.8-4.1,0.5c-1.2-0.2-2.2-0.8-2.8-1.3c-0.7-0.5-1.1-1.1-1.3-1.5c-0.2-0.4-0.3-0.6-0.3-0.6
									c0.1,0,0.4,0.9,1.7,2c0.7,0.5,1.6,1,2.8,1.2c1.2,0.2,2.6,0.1,3.9-0.6l0.2-0.1l0,0.3c0.3,2.1,2.1,4.3,4.7,4.9
									c1.3,0.3,2.7-0.1,3.8-1c1.1-0.9,2.1-2.1,2.7-3.5l0.1-0.2l0.2,0.1c1.2,0.4,2.4,0.9,3.7,0.9c1.3,0.1,2.6-0.4,3.7-1.1
									c2.1-1.3,3.4-3.5,3.7-5.8l0.1-0.6l0.4,0.4c0.8,1,2.2,1.4,3.4,1.3c0.6-0.1,1.2-0.2,1.7-0.6c0.5-0.3,0.9-0.8,1.3-1.3
									c0.8-0.9,1.6-1.8,2.1-2.8c0.5-1,0.6-2.1,0.3-3l-0.1-0.3l0.3,0c1.8,0.2,3.5-0.4,4.7-1.2c1.3-0.8,2.1-1.8,2.7-2.6
									C184.1,520.7,184.1,519.5,184.1,519.5z"/>
							</g>
						</g>
					</g>
				</g>
			</g>
		</g>
		<g>
			<path class="st10" d="M184.4,580.5c-1.9-0.7-3.8-1.3-5.8-2c-0.8-0.3-1.6-0.5-2.4-0.3c-1.4,0.4-2,2.2-1.8,3.6
				c0.4,2.6,2.9,4.7,5.6,4.6C182.6,586.3,183.6,583.1,184.4,580.5"/>
		</g>
		<g>
			<g>
				<path class="st4" d="M181.8,586.4c0.1,0-1.2,0.8-3.2,0.3c-1-0.3-2.2-0.9-3-2c-0.9-1.1-1.3-2.7-1-4.3c0.1-0.8,0.4-1.5,0.9-2.2
					c0.1-0.2,0.3-0.3,0.5-0.5c0.2-0.1,0.5-0.1,0.7-0.1c0.4,0.1,0.7,0.2,1,0.3c1.2,0.4,2.3,0.8,3.3,1.1c1.9,0.7,3,1.1,3,1.2
					c0,0.1-1.2-0.2-3.2-0.7c-1-0.3-2.2-0.6-3.4-1c-0.3-0.1-0.7-0.2-0.9-0.3c-0.2,0-0.3,0-0.5,0.3c-0.4,0.5-0.6,1.2-0.7,1.9
					c-0.2,1.4,0.1,2.8,0.8,3.8c0.7,1,1.7,1.6,2.6,1.9C180.5,586.8,181.8,586.3,181.8,586.4z"/>
			</g>
		</g>
	</g>
	<g>
		<g>
			<path class="st4" d="M222.3,740.5c0.3-2.3-1.1-4.7-3.1-6c-2-1.3-4.4-1.7-6.8-1.8c-6.2-0.1-12.3,2.4-16.8,6.7l-1,2.7
				c0,0,6.4,4.8,7.1,4.9c0.7,0.1,12.9-1.8,12.9-1.8L222.3,740.5z"/>
		</g>
		<g>
			<g>
				<path class="st4" d="M203.6,757.7c0,0,0,0.2,0.1,0.6c0,0.4,0.1,1,0.2,1.7c0.1,1.5,0.3,3.7,0.6,6.6c0.5,5.7,1.1,14,2,24.2
					c0.8,10.2,1.8,22.4,2.8,35.9c0.5,6.8,1.1,13.8,1.6,21.2c0.2,3.7,0.4,7.5-0.6,11.3c-0.5,1.9-1.3,3.7-2.5,5.3
					c-1.2,1.5-3,2.9-5.1,3.1c-1.1,0-2.1-0.3-3-1c-0.8-0.7-1.4-1.5-1.8-2.4c-0.4-0.9-0.8-1.8-1-2.8c-0.2-0.9-0.6-1.8-0.7-2.8
					c-0.8-3.7-1.1-7.5-1.1-11.2c0.1-7.4,1.5-14.5,2.8-21.1c1.4-6.6,2.7-12.9,3.5-18.9c0.8-6,1.4-11.5,1.6-16.6
					c0.6-10.2,0.2-18.5-0.1-24.2c-0.2-2.9-0.4-5.1-0.5-6.6c-0.1-0.7-0.1-1.3-0.1-1.7c0-0.4,0-0.6,0-0.6c0,0,0,0.2,0.1,0.6
					c0.1,0.4,0.1,1,0.2,1.7c0.2,1.5,0.4,3.7,0.7,6.6c0.5,5.7,0.9,14,0.4,24.3c-0.3,5.1-0.7,10.7-1.6,16.7c-0.8,6-2.1,12.3-3.4,18.9
					c-1.3,6.6-2.6,13.6-2.7,21c0,3.7,0.3,7.4,1.1,11.1c0.2,0.9,0.5,1.8,0.7,2.7c0.2,0.9,0.6,1.8,1,2.6c0.4,0.8,0.9,1.6,1.6,2.2
					c0.7,0.6,1.6,0.8,2.5,0.8c1.8-0.1,3.4-1.3,4.6-2.8c1.1-1.5,1.9-3.2,2.3-5c0.9-3.6,0.8-7.4,0.5-11.1c-0.6-7.3-1.1-14.4-1.6-21.2
					c-1-13.5-1.9-25.7-2.7-35.9c-0.7-10.2-1.3-18.4-1.7-24.2c-0.2-2.8-0.3-5-0.4-6.6c0-0.7-0.1-1.3-0.1-1.7
					C203.6,757.9,203.6,757.7,203.6,757.7z"/>
			</g>
		</g>
		<g>
			<g>
				<path class="st9" d="M175.7,736.3c0,0,10.1-8.1,12.3-8.5c2.2-0.5,5,1.2,9.2,0.8c4.2-0.5,7.9-0.2,7.9-0.2s1.3,4.1-1.9,5.6
					s-8,2.3-8,2.3l-2.9,2.6l10.4,4.5h9.7l11.2-3.2c0,0,3.1,0.7,1.6,3.2c-1.6,2.5-10,7.5-10,7.5s0.3,1.6-2.7,4.1
					c0,0-12,10.9-15.1,11.4c-3.1,0.5-5,0-5,0l-16.9-9.4V736.3z"/>
			</g>
			<g>
				<g>
					<path class="st10" d="M175.7,736.3c0,0,0,0.1,0,0.4c0,0.3,0,0.6,0,1.1c0,1,0,2.3,0.1,4.1c0,3.6,0.1,8.7,0.1,15.1l-0.1-0.2
						c4.8,2.6,10.5,5.8,16.9,9.3l-0.1,0c1,0.2,2.1,0.2,3.2,0.2c0.5,0,1.1-0.1,1.7-0.2c0.5-0.1,1-0.3,1.5-0.6c2-1.1,3.8-2.6,5.7-4.1
						c1.9-1.5,3.8-3.1,5.7-4.8c0.9-0.8,1.9-1.7,2.8-2.6c0.4-0.4,0.9-0.9,1.2-1.4c0.3-0.5,0.6-1.1,0.6-1.6l0-0.3l0.2-0.1
						c2.2-1.3,4.3-2.7,6.4-4.3c1-0.8,2.1-1.6,3-2.5c0.4-0.5,0.8-1,0.8-1.5c0.1-0.5-0.2-1-0.8-1.3c-0.3-0.2-0.6-0.3-0.9-0.4l0.2,0
						c-3.8,1.1-7.6,2.2-11.2,3.2l0,0l-0.1,0c-3.3,0-6.5,0-9.7,0h-0.1l-0.1,0c-3.6-1.5-7-3-10.4-4.5l-0.5-0.2l0.4-0.3
						c1-0.9,2-1.8,2.9-2.6l0.1-0.1l0.1,0c2.6-0.4,5.1-1,7.3-2c0.6-0.2,1.1-0.5,1.5-0.9c0.4-0.4,0.7-0.9,0.8-1.4c0.3-1,0.3-2.2,0-3.2
						l0.2,0.2c-2.4-0.2-4.8-0.1-7,0c-2.2,0.3-4.4,0.1-6.3-0.3c-4-1.7-6.7,1.4-9,2.8c-2.3,1.6-4,2.9-5.2,3.8c-0.6,0.4-1,0.8-1.4,1
						C175.8,736.2,175.7,736.3,175.7,736.3c0,0,0.1-0.1,0.4-0.4c0.3-0.3,0.8-0.6,1.3-1.1c1.2-0.9,2.9-2.3,5.1-3.9
						c1.1-0.8,2.4-1.7,3.9-2.6c0.4-0.2,0.8-0.4,1.2-0.6c0.4-0.2,0.9-0.2,1.4-0.2c1,0,1.9,0.3,2.9,0.4c1.9,0.4,4,0.6,6.2,0.3
						c2.2-0.2,4.6-0.3,7.1-0.1l0.2,0l0,0.2c0.3,1.1,0.4,2.4,0,3.6c-0.2,0.6-0.5,1.2-1,1.6c-0.5,0.5-1.1,0.8-1.6,1
						c-2.3,1-4.8,1.6-7.5,2l0.2-0.1c-0.9,0.9-1.9,1.7-2.9,2.6l-0.1-0.6c3.3,1.4,6.8,2.9,10.4,4.4l-0.1,0c3.1,0,6.4,0,9.7,0l-0.1,0
						c3.7-1,7.4-2.1,11.2-3.2l0.1,0l0.1,0c0.4,0.1,0.8,0.3,1.2,0.5c0.3,0.2,0.6,0.5,0.8,0.8c0.2,0.3,0.3,0.8,0.2,1.2
						c-0.1,0.8-0.6,1.4-1,1.9c-0.9,1-2,1.8-3.1,2.6c-2.1,1.6-4.3,3-6.5,4.3l0.2-0.4c0.1,0.9-0.3,1.5-0.7,2.1
						c-0.4,0.6-0.8,1.1-1.3,1.6c-1,0.9-1.9,1.7-2.9,2.6c-1.9,1.7-3.8,3.3-5.7,4.8c-1.9,1.5-3.8,3-5.8,4.1c-0.5,0.3-1.1,0.5-1.7,0.7
						c-0.6,0.1-1.1,0.1-1.7,0.2c-1.1,0.1-2.3,0-3.4-0.2l0,0l0,0c-6.3-3.6-12.1-6.8-16.8-9.4l-0.1-0.1l0-0.1c0-6.4,0.1-11.6,0.1-15.2
						c0-1.7,0-3.1,0.1-4.1c0-0.4,0-0.8,0-1C175.7,736.4,175.7,736.3,175.7,736.3z"/>
				</g>
			</g>
		</g>
		<g>
			<g>
				<path class="st10" d="M197.4,735.9c0,0.1-2.3,0.5-4.9,1.6c-1.3,0.5-2.3,1.3-3.1,1.8c-0.8,0.5-1.3,0.8-1.3,0.8
					c-0.1-0.1,0.3-0.5,1-1.2c0.7-0.6,1.7-1.5,3.1-2.1C195,735.6,197.5,735.6,197.4,735.9z"/>
			</g>
		</g>
		<g>
			<g>
				<path class="st10" d="M214.7,751.9c0,0.1-1.3,0.3-3.4,0.5c-2.1,0.2-5.1,0.4-8.3,0.6c-3.2,0.2-6.2,0.5-8.4,0.1
					c-2.2-0.4-3.2-1.5-3.1-1.5c0.1-0.1,1.1,0.8,3.2,1c2.1,0.3,5-0.2,8.3-0.3c3.3-0.2,6.2-0.4,8.3-0.4
					C213.4,751.8,214.7,751.8,214.7,751.9z"/>
			</g>
		</g>
		<g>
			<g>
				<path class="st10" d="M209.7,756c0.1,0.2-3.4,1.7-7.7,3.4c-2.1,0.9-4.2,1.6-5.8,1.4c-1.6-0.1-2.4-0.8-2.3-0.9
					c0-0.1,0.9,0.4,2.4,0.3c1.5,0,3.4-0.7,5.5-1.6C206.1,757,209.6,755.8,209.7,756z"/>
			</g>
		</g>
	</g>
</g>
</svg>
