<?xml version="1.0" encoding="utf-8"?>
<!-- Generator: Adobe Illustrator 23.1.1, SVG Export Plug-In . SVG Version: 6.00 Build 0)  -->
<svg version="1.1" id="Capa_1" xmlns="http://www.w3.org/2000/svg" xmlns:xlink="http://www.w3.org/1999/xlink" x="0px" y="0px"
	 viewBox="0 0 500 500" style="enable-background:new 0 0 500 500;" xml:space="preserve">
<style type="text/css">
	.st0{fill:#FFFFFF;}
	.st1{opacity:0.5;fill:#ACC8E8;}
	.st2{fill:#54A490;}
	.st3{fill:#96B5DD;}
	.st4{fill:#103558;}
	.st5{fill:#154453;}
	.st6{fill:#AE5541;}
	.st7{fill:#4368A9;}
	.st8{fill:#345F7E;}
	.st9{fill:#D4847C;}
	.st10{fill:#0A2D34;}
	.st11{fill:#DB9B8F;}
	.st12{fill:#EBC57F;}
	.st13{fill:#F2E4CF;}
	.st14{fill:#DB9B90;}
	.st15{fill:#CE6D5A;}
	.st16{fill:#53A494;}
	.st17{fill:#325A94;}
	.st18{opacity:0.5;fill:#103558;}
	.st19{fill:#CE6E5A;}
	.st20{fill:#20404B;}
	.st21{fill:#184553;}
	.st22{fill:#AE5642;}
</style>
<rect x="-30.2" y="-27.7" class="st0" width="547.9" height="528.1"/>
<g>
	<path class="st1" d="M439.5,472.7c17.6-26.9,44.6-79.6,46.7-112.8c3.1-49.1-30.5-40.7-55.1-66.2c-10.7-11.1,20.2-47.4-25.5-76.5
		c-28.3-18-68.2,17.9-91.7-27c-24.1-46.1-116.7-62.2-192-36c-114.8,40,3,79.2-71.7,110.9c-44.7,18.9-23.5,60.2-19,73.6
		c3.9,11.7,25.9,25.5-6.1,55.7c-26.6,25.2-5.8,65.5,2,78.4H439.5z"/>
	<path class="st2" d="M4.3,472.7h473.6c1,0,1.9,1.3,1.9,2.8c0,1.6-0.8,2.8-1.9,2.8H4.3c-1,0-1.9-1.3-1.9-2.8
		C2.4,474,3.2,472.7,4.3,472.7z"/>
	
		<rect x="267.2" y="398.4" transform="matrix(-0.8839 -0.4676 0.4676 -0.8839 453.4077 912.8958)" class="st3" width="145.6" height="3.5"/>
	<g>
		<path class="st4" d="M348.8,471.2l-2.7,0c0.4-26.2,0.7-66,0.1-68.2c0,0,0,0.1,0.2,0.3l2.2-1.3c0.4,0.4,0.6,0.6,0.6,11.8
			c0,5.7,0,13.7,0,23.5C349,454.1,348.8,471,348.8,471.2z"/>
		<g>
			<path class="st5" d="M371.3,399.5l-1.5-1.2c5.3-6.3,8.2-18.3,8.5-34.6c0.2-12.5-1.3-23.2-1.3-23.3l1.9-0.3
				c0,0.1,1.5,10.9,1.4,23.6c-0.1,7.4-0.7,14-1.9,19.6C376.8,390.3,374.5,395.8,371.3,399.5z"/>
		</g>
		<path class="st6" d="M357.5,309.8c0.8,0,30.1-3.2,30.6,0.8c0.5,3.9,1.6,34.6-3.7,35.7c-5.2,1-30.7-3.7-30.7-3.7L357.5,309.8z"/>
		<path class="st7" d="M319.9,401.6c1.1-0.2-2.9,3.9,0,5.2c2.9,1.3,46.4,0.5,49.8-1c3.4-1.6,7.6-4.2,6-7.6
			c-1.6-3.4-28.4-7.9-28.4-7.9l-24.3,6.6C323,396.9,318.6,401.8,319.9,401.6z"/>
		<path class="st8" d="M363.7,468.2h-32.2c-1.5,0-2.7,1.2-2.7,2.7l0,0c0,0.3,0.2,0.5,0.5,0.5h36.7c0.3,0,0.5-0.2,0.5-0.5v0
			C366.4,469.4,365.1,468.2,363.7,468.2z"/>
		<path class="st8" d="M349.6,465.6h-3.9c-1.2,0-2.1,0.9-2.1,2.1v0c0,1.2,0.9,2.1,2.1,2.1h3.9c1.2,0,2.1-0.9,2.1-2.1l0,0
			C351.7,466.5,350.8,465.6,349.6,465.6z"/>
	</g>
	<path class="st9" d="M330.5,391c0.9-0.4,24.1-16.7,24.1-16.7l-28.4-2.8c0,0-44.4,6.1-50.9,11.5c-0.5,0.4-0.9,0.8-1.3,1.1
		c-3.2,2.9-3.7,7.7-1.3,11.2c4.4,6.4,1.6,5.8,9.1,16.3c8.8,12.5,29.4,37.3,29.4,37.3l0,0c2.5,3.1,5.9,7.3,5.9,7.9
		c0.1,0.9-0.3,10.5-1.3,11.4c-1,0.9-4,1.5-3,2.5c0.7,0.8,6.3,0.6,9.9,0.4c1.1-0.1,2.4-8.6,2.8-9.9c0.6-1.8,2.1-5.9,1.6-7.2
		c-0.3-0.6-1.6-1.9-3.4-3.1c-1.2-0.8-4.4-4.8-6.7-7.9c0,0-21.2-39.6-23.3-41.2c-2.2-1.5-10.8-11.3-10.8-11.3s14.3,5.4,14.9,5.4
		C298.5,396,329.6,391.4,330.5,391z"/>
	<path class="st10" d="M323.5,451c0,0-5.7,16-7.9,16.8c-0.6,0.2-3.4,0.7-4,2c-0.2,0.4,0,1.6,0,1.6h11.9c0,0,1.5-7.1,2.1-10.2
		c0,0,3.1-7.6,2.8-8.3C328,452.3,323.5,451,323.5,451z"/>
	<path class="st11" d="M357.5,374.6c0,0-24.6-2.4-33,0c-8.4,2.4-42.4,12.8-44.8,15.4c-2.4,2.6-33.1,64.5-33.1,64.5
		c-1.7,3.3-3.4,6.4-4,7.1c-0.9,1-2,2.1-3.1,2.7c-0.4,0.3-1.6,1-1.9,1.2c-5,2.4-6.2,3.1-7.8,4.3c-0.9,0.7-1.7,1.5-0.5,1.4l21.6-0.3
		c0,0,1-0.4,1.8-1.9c0.8-1.6-0.6-3.7-0.9-5.4c-0.2-1.1,0.6-3.2,1.7-5.4l0,0c0,0,29.6-34.9,30.3-37.5c0.6-2.6,6.5-18.6,6.5-18.6
		c14.3,0,57.7,0.8,65-6.1C362.3,389.2,357.5,374.6,357.5,374.6z"/>
	<path class="st10" d="M261,464.3c5.7,1.5,9.9,0.5,12.3-0.5c0.6,1.7,1.4,3.9,1,5.1c-0.5,1.5-1.3,1.9-1.9,1.9
		c-5.2,0.1-19.1,0.3-23.1,0.4c-0.6,0-0.9-0.6-0.5-1.1C249.7,468.9,260.6,464.5,261,464.3z"/>
	<path class="st6" d="M326.2,371.5c0,0-44.4,6.1-50.9,11.5c-0.1,0.1-0.2,0.1-0.2,0.2c0.8-0.1,1.3-0.2,1.3-0.2s10.2-0.6,18.5,12
		c1.6,0.6,2.8,1,3,1c0.6,0,31.8-4.5,32.7-5c0.9-0.4,24.1-16.7,24.1-16.7L326.2,371.5z"/>
	<path class="st6" d="M357.5,374.6c0,0-24.6-2.4-33,0c-6.3,1.8-26.5,7.9-37.6,12c3.9,2.7,8.2,7.4,11.7,15.5
		c18.4,0,50.3-0.3,56.4-6.1C362.3,389.2,357.5,374.6,357.5,374.6z"/>
	<path class="st9" d="M284.6,348.3l25.9-5.7c0,0,9.4-12,18.4-22.4c2.7,2.6,4.1,6.7,6.8,9.2l-19.8,21.9c-0.7,0.8-1.7,1.2-2.8,1.2
		l-27.5,0.1l-9.4,0.7v-6L284.6,348.3z"/>
	<path class="st12" d="M333.2,316.5c-4.5-1.2-22.7,26.1-22.7,26.1s2.5,1.1,6.8,7.1l7-7.7l0,0c0,0,13.9-13.1,16.5-17.7
		S337.7,317.7,333.2,316.5z"/>
	<path class="st5" d="M323.2,284.9c0.1-0.2,0.2-0.3,0.2-0.3l0-0.1c0.3-0.8,0.7-1.6,1.1-2.4c2.6-5.3,9-8.3,14.9-8.3
		c1.9,0,3.7,0.3,5.3,0.7c2.4,1.1,8.3,4.8,9.8,16c0.6,4-0.3,7.9-2.1,11.2c1.6,1,3.7,3,5.2,7.1c2.8,7.5,16.6,9.1,18,19.1
		c1.4,10-13,27.9-28.2,16.3c-11.6-8.8-9.7-25.7-8.1-33.2c-3.6,0.5-7.5-0.2-11.2-2.4c-4.7-2.9-6.7-6.7-7.2-10.5
		C320.8,293.4,321.6,289.1,323.2,284.9z"/>
	<path class="st13" d="M342.1,313.2c0,0,9.2-1.8,13.4,1.7c4.2,3.5-0.9,34.7-0.9,39.9c0,5.2,2.9,19.8,2.9,19.8s-27.9,4.9-32.3-2.9
		c0,0-1.3-29.6-1.1-33.3c0.2-3.7,1.4-14.8,5.5-20.6C330.7,316.1,342.1,313.2,342.1,313.2z"/>
	<g>
		<path class="st6" d="M337.1,310.7c9.4,0,16.1-8.5,16.4-8.9c0.3-0.4,0.2-0.9-0.1-1.2c-0.4-0.3-0.9-0.2-1.2,0.1l0,0
			c-0.1,0.1-6.5,8.2-15.1,8.2c-0.5,0-0.8,0.4-0.8,0.8C336.3,310.3,336.6,310.7,337.1,310.7z"/>
	</g>
	<path class="st14" d="M342.1,298.9c0,0,0,0.3,0.1,0.7c0.4,2.2,2,9.7,3.1,11.8c1.3,2.5-4.5,10.4-10.1,9.4c-1.7-0.3,1.4-7.3,1.3-8
		c-0.3-1.4-0.7-3.3-1.1-5.3c-0.2-1.1-0.4-2.2-0.7-3.3c-0.6-3-1.1-5.5-1.1-5.5L342.1,298.9z"/>
	<path class="st15" d="M342.3,299.7c-0.1-0.5-0.1-0.7-0.1-0.7l-8.4-0.2c0,0,0.5,2.5,1.1,5.5c0.2,1.1,0.4,2.2,0.7,3.3
		c1.3-0.2,2.6-0.8,4-2c1.5-1.3,2.4-2.8,3-4.5C342.4,300.5,342.3,300,342.3,299.7z"/>
	<path class="st9" d="M308.6,445.8c0,0,8.5,10.2,8.5,11c0.1,0.9-0.3,10.5-1.3,11.4c-1,0.9-4,1.5-3,2.5c0.7,0.8,6.3,0.6,9.9,0.4
		c1.1-0.1,2.4-8.6,2.8-9.9c0.6-1.8,2.1-5.9,1.6-7.2c-0.3-0.6-1.6-1.9-3.4-3.1c-1.9-1.2-9.3-11.5-9.3-11.5L308.6,445.8z"/>
	<path class="st5" d="M323.5,451c0,0-5.7,16-7.9,16.8c-0.6,0.2-3.4,0.7-4,2c-0.2,0.4,0,1.6,0,1.6h11.9c0,0,1.5-7.1,2.1-10.2
		c0,0,3.1-7.6,2.8-8.3C328,452.3,323.5,451,323.5,451z"/>
	<path class="st11" d="M279.5,450.7c0,0-6.9,9.7-6.3,12.8c0.3,1.7,1.8,3.8,0.9,5.4c-0.8,1.6-1.8,1.9-1.8,1.9l-21.6,0.3
		c-1.2,0-0.4-0.7,0.5-1.4c1.6-1.1,2.8-1.9,7.8-4.3c0.3-0.2,1.5-0.9,1.9-1.2c1.1-0.7,2.2-1.7,3.1-2.7c1.5-1.7,8.4-15.8,8.4-15.8
		L279.5,450.7z"/>
	<path class="st5" d="M261,464.3c5.7,1.5,9.9,0.5,12.3-0.5c0.6,1.7,1.4,3.9,1,5.1c-0.5,1.5-1.3,1.9-1.9,1.9
		c-5.2,0.1-19.1,0.3-23.1,0.4c-0.6,0-0.9-0.6-0.5-1.1C249.7,468.9,260.6,464.5,261,464.3z"/>
	<path class="st14" d="M301,348.3l25.9-5.7c0,0,9.4-12,18.4-22.4c2.7,2.6,4.1,6.7,6.8,9.2l-19.8,21.9c-0.7,0.8-1.7,1.2-2.8,1.2
		l-27.5,0.1l-9.4,0.7v-6L301,348.3z"/>
	<g>
		<path class="st16" d="M247.7,318.7h42.8c1.1,0,2.2,0.7,2.6,1.7l13.2,32.1h23.6c0.7,0,1.2,0.5,1.2,1.2l0,0c0,0.7-0.5,1.2-1.2,1.2
			h-67.1c-1.8,0-3.5-1.1-4.3-2.8l-13.3-29.5C244.3,320.8,245.7,318.7,247.7,318.7z"/>
		<path class="st0" d="M270.7,337.4c0.3,1.4,1.5,2.4,2.8,2.2c1.3-0.3,2.1-1.6,1.8-3.1c-0.3-1.4-1.5-2.4-2.8-2.2
			C271.2,334.6,270.4,336,270.7,337.4z"/>
	</g>
	<path class="st14" d="M334.9,278.5c0,0,4.5-0.5,7.4,3.1c2.8,3.6,5.9,14.6-1.2,20.6c-7,6-14-0.8-15-8
		C325,287,324.6,278.2,334.9,278.5z"/>
	<path class="st14" d="M324,294c0.8,1.6,2.3,2.5,3.1,2c0.9-0.5,0.9-2.2,0.1-3.8c-0.8-1.6-2.3-2.5-3.1-2
		C323.2,290.8,323.1,292.5,324,294z"/>
	<path class="st5" d="M334.4,277.3c0,0,6,10.5,10.4,11c4.3,0.5,4.9,6.1,4.9,6.1s-1.5-12.8-5.8-15.3
		C339.5,276.6,334.4,277.3,334.4,277.3z"/>
	<path class="st14" d="M343.6,290.9c-0.4,1.9,0.4,3.6,1.6,3.8c1.2,0.2,2.5-1.1,2.9-2.9c0.4-1.9-0.4-3.6-1.6-3.8
		C345.2,287.7,343.9,289.1,343.6,290.9z"/>
	<path class="st0" d="M338.4,297.1l-6.4,1.4c0,0,0.7,2.4,3.5,1.9C339,299.7,338.4,297.1,338.4,297.1z"/>
	<path class="st12" d="M353.1,313.4c-4.5-1.2-19.3,20.5-19.3,20.5c-4,5-6.8,8.6-6.8,8.6s2.5,1.1,6.8,7.1l7-7.7l0,0
		c0,0,13.9-13.1,16.5-17.7C359.9,319.6,357.6,314.6,353.1,313.4z"/>
	<polygon class="st17" points="258.7,472.7 155.5,472.7 128.9,359.1 258.7,359.1 	"/>
	<rect x="257.2" y="359.1" class="st7" width="148.7" height="113.7"/>
	<rect x="114.3" y="355" class="st4" width="294.5" height="4.1"/>
	<g>
		<path class="st3" d="M282.8,196.3h-92.4c-3.2,0-5.8,2.6-5.8,5.8v38.1c0,3.2,2.6,5.8,5.8,5.8h72.7c2.9,4.1,8.3,11.5,8.8,11.5
			c0.4,0-0.4-6.9-1-11.5h11.9c3.2,0,5.8-2.6,5.8-5.8v-38.1C288.6,198.9,286,196.3,282.8,196.3z"/>
		<path class="st0" d="M223.5,211.2h-25.7c-0.7,0-1.3-0.6-1.3-1.3l0,0c0-0.7,0.6-1.3,1.3-1.3h25.7c0.7,0,1.3,0.6,1.3,1.3l0,0
			C224.8,210.6,224.2,211.2,223.5,211.2z"/>
		<path class="st0" d="M214.4,219.4h-16.6c-0.7,0-1.3-0.6-1.3-1.3v0c0-0.7,0.6-1.3,1.3-1.3h16.6c0.7,0,1.3,0.6,1.3,1.3l0,0
			C215.6,218.9,215.1,219.4,214.4,219.4z"/>
		<path class="st0" d="M240.1,219.4h-21c-0.7,0-1.3-0.6-1.3-1.3l0,0c0-0.7,0.6-1.3,1.3-1.3h21c0.7,0,1.3,0.6,1.3,1.3v0
			C241.4,218.9,240.8,219.4,240.1,219.4z"/>
		<path class="st0" d="M275.9,219.4h-30.3c-0.7,0-1.3-0.6-1.3-1.3v0c0-0.7,0.6-1.3,1.3-1.3h30.3c0.7,0,1.3,0.6,1.3,1.3l0,0
			C277.2,218.9,276.6,219.4,275.9,219.4z"/>
		<path class="st0" d="M276.1,211.2h-44.9c-0.7,0-1.3-0.6-1.3-1.3l0,0c0-0.7,0.6-1.3,1.3-1.3h44.9c0.7,0,1.3,0.6,1.3,1.3v0
			C277.3,210.6,276.8,211.2,276.1,211.2z"/>
		<path class="st0" d="M276.1,235.5h-78.3c-0.7,0-1.3-0.6-1.3-1.3l0,0c0-0.7,0.6-1.3,1.3-1.3h78.3c0.7,0,1.3,0.6,1.3,1.3v0
			C277.3,235,276.8,235.5,276.1,235.5z"/>
		<path class="st0" d="M237,227.6h-39.2c-0.7,0-1.3-0.6-1.3-1.3v0c0-0.7,0.6-1.3,1.3-1.3H237c0.7,0,1.3,0.6,1.3,1.3v0
			C238.3,227,237.7,227.6,237,227.6z"/>
		<path class="st0" d="M276.1,227.6h-34.5c-0.7,0-1.3-0.6-1.3-1.3l0,0c0-0.7,0.6-1.3,1.3-1.3h34.5c0.7,0,1.3,0.6,1.3,1.3v0
			C277.3,227,276.8,227.6,276.1,227.6z"/>
	</g>
	<rect x="257.2" y="396" class="st18" width="148.7" height="18"/>
	<rect x="257.2" y="419.8" class="st18" width="148.7" height="4"/>
	<g>
		<g>
			<path class="st5" d="M99.2,292.1c15.4,6.5,20.3-7.6,19.9-7.3c0.3-0.3,2.6-1.4,4.1-2.1c6.2-3.1,9.9-10.2,9.7-17.5
				c8.8-5.5,11.1-17.1,5.1-23.5c1.9-7.1-3.1-15-9.3-18.6c-4.7-8.4-16.7-4.8-23.1,1.8c-3.3,3.4-5.2,8.3-5.1,13.2
				c-7.6,3.2-11.5,11.7-9.8,20.3C80.4,266.9,83.5,285.5,99.2,292.1z"/>
			<g>
				<path class="st6" d="M83.4,341.4l-2.6-0.7c0-0.2,5-20.4,10.3-40.5c3.1-11.8,5.7-21.3,7.8-28.2c4-13.5,4.9-13.9,5.7-14.3l1,2.6
					c0.2-0.1,0.3-0.2,0.3-0.2c-0.6,0.7-3.2,6.3-12.6,42C88.2,321.8,83.4,341.2,83.4,341.4z"/>
			</g>
			<g>
				<path class="st14" d="M172,340.8c0,0-1.2-0.9-1.5-1.3c-0.4-0.4-1.6-1.7-1.6-1.7s-4-4.7-3.6-5c0.4-0.3,1.5,0.2,1.9,0.4
					c0.3,0.2,0.8,0.4,1.1,0.6c0.3,0.2,0.8,0.1,1.1-0.3c0.3-0.4-0.9-1.5-1.4-1.8c-1.5-1-6.2-2.7-6.7-2.9c-0.6-0.2-5.9-9.7-8-12.9l0,0
					c-3.3-5.2-6.4-10.7-6.7-11.3l-7.1-25.4l-10.3-1c0,0,7.4,28.3,8,29.6c0.3,0.7,8.8,12.1,8.8,12.1c4.6,5.4,8.6,10.1,9.3,11
					c0,0,1.5,3.4,2.3,5.6c0.8,2.2,2.5,3.9,2.8,4.5c0,0.1,1.1,2.2,3.2,4.1c1.8,1.6,0.8-0.8,0.8-0.8s-2.8-3.7-2.5-3.8
					c0.3-0.1,1.7,2,3.6,3.8c0.5,0.5,1,0.9,1.5,1.4c1.2,1.1,2.3,0.7,1.2-0.7c-0.4-0.5-1-1.3-1.6-1.8c-0.6-0.5-1-1.2-1.4-1.8
					c-0.9-1-1.5-1.8-1.4-1.8c0.1,0,0.1-0.3,0.6,0.1c0.7,0.6,1.8,2.1,2.9,2.9c0.6,0.4,1.8,1.4,1.8,1.4s2.1,1.4,2.2,1.3
					c0.6-0.5-0.6-2-1.5-2.5c-0.4-0.6-1.7-1.6-1.7-1.6s-2.1-2.7-1.7-3c0.3-0.3,6.6,5.1,7.2,4.5C173.9,342.5,172,340.8,172,340.8z"/>
				<path class="st19" d="M160.7,333.3c0,0,3.2,1.2,4.5-0.4c0,0-0.4,1.2-1.7,1.4C162.3,334.5,160.7,333.3,160.7,333.3z"/>
			</g>
			<path class="st14" d="M116.7,348l5.8,53.8c0,0-2.8,11.4-2.5,14.6c0.3,3.2,6.3,45.7,6.3,45.7l-0.3,2.3l-0.1,6.9l22.4,0.2
				c0,0-4.7-2.2-11.3-6.5c-0.5-0.3-1.6-1.3-1.9-3.4c-1.8-13.1,1.7-56.7,1.7-56.7l2.7-56.8L116.7,348z"/>
			<path class="st14" d="M104,358.2c-1.3,0.3-3.2,46.5-4.2,48.6c-6.6,13-8.2,52.4-8.2,52.4l-2.7,5.5l0.6,5.3c0,0,4.9,2.9,8.4,0.9
				l-0.5-5.3l-0.4-7.1l16.6-49.2l9.1-50.2L104,358.2z"/>
			<path class="st20" d="M146.6,383.2l0.8-31.9c0.1-9-2.8-17.7-6.3-25.9l-7.5-13.1c-2.4,0.8-3.8-6.6-6.3-6.3c-1.9,0.2-3.2,0.7-5,0.8
				c-3.4,0.2-5.4,7-9,6.6c0,0.2-2.3,1.1-2.3,1.2c-1.7,4.8-6.1,10-8.5,24.3c-2.7,16.2-2.7,44.1-2.3,46
				C125.5,386.1,131.6,387.1,146.6,383.2z"/>
			<path class="st21" d="M125.8,473.1h23.1c0.9-0.1,1.1-0.8,0.8-1.2c-0.6-0.9-3.3-1.6-6.3-3c-5.3,0.6-16.4-3.5-17.3-4.7
				C125.6,466.6,125.4,473,125.8,473.1z"/>
			<path class="st21" d="M88.9,464.7c0,0,2.1,6,4.3,5.9c2.2-0.2,4.2-4.9,4.2-4.9s0.8,4,0.4,6.2c-0.4,2.2-3.5,4.5-5.7,3.5
				C89.9,474.4,87,469.3,88.9,464.7z"/>
			<path class="st22" d="M131.8,291.8c0,0,3.2-0.4,6.3-1.5c1.9-0.7,4.9-2.1,4.9-2.1s-1.7-15-6.1-24.1c-1.8-3.8-3.6-5.6-6.2-6
				C130.8,258,131.8,291.8,131.8,291.8z"/>
			<path class="st15" d="M137.4,274.8c-0.7-2.4-2.1-5.6-2.9-7.8c-1.4-3.8-1.8-7.3-3.1-8.8c-0.7-0.8-9.3-0.7-10.3-0.8
				c-0.4,0-2.2,0.1-3.8,0.2l0,0c-1,0.1-10.7,0.9-12.1,1.5c-7,7-10.4,16.4-15.6,26.8c0,0,3.9,2.3,7.1,3.8c1.4,0.6,4,1.6,4,1.6
				l6.1-10.4c0.1-0.1,0.4-0.4,0.5-0.2c0.1,0.3,4.6,32.9,4.6,32.9s17.9,1.5,22.2-0.6c0,0,0.8-21.7,2.3-28.1
				C136.7,282.5,138.5,278.7,137.4,274.8z"/>
			<path class="st14" d="M116.1,247.6c0,0,1.3,7.6,1.1,10.6c-0.3,3,1,12.6,6.8,12.7c5.8,0,1.9-10,1.3-12.9
				c-0.5-2.9-1.4-14.2-1.4-14.2L116.1,247.6z"/>
			<path class="st19" d="M116.6,251.2c2.9,2.4,6.1,3.2,8.1,2.5c-0.5-4.4-0.9-10.1-0.9-10.1l-7.8,4
				C116.1,247.6,116.3,249.2,116.6,251.2z"/>
			<path class="st14" d="M120.5,227.3c0,0-4.5,0.5-6.5,4.6c-2,4.1-1,16.4,6.5,19.9c5.9,2.8,11.5-4,11.5-11.3
				C132,234.4,130.4,224.8,120.5,227.3z"/>
			<path class="st5" d="M122.2,224.3c-0.8,8.8-6.8,13.3-9.4,14.3c-3.7-4-2.2-9,0.8-11.4C116.5,224.9,122.2,224.3,122.2,224.3z"/>
			<path class="st14" d="M115.1,241.3c0.7,1.7,0.4,3.6-0.7,4.1c-1.1,0.5-2.7-0.5-3.4-2.2c-0.7-1.7-0.4-3.6,0.7-4.1
				C112.8,238.6,114.4,239.6,115.1,241.3z"/>
			<path class="st0" d="M121.1,246.2l6.6-0.1c0,0-0.1,2.5-3,2.6C121.1,248.9,121.1,246.2,121.1,246.2z"/>
			<path class="st22" d="M109.3,341.3v10.3c0,5.4-3.8,9.7-8.5,9.7h-8.7v-24.1h13.6c0.9,0,1.8,0.4,2.4,1.1
				C108.9,339.1,109.3,340.1,109.3,341.3z"/>
			<path class="st15" d="M108.2,338.4L108.2,338.4c-1.9,0-3.3,1.7-3.3,3.7v7.6c0,6.4-4.5,11.6-10.1,11.6h-5.3
				c-5.6,0-10.1-5.2-10.1-11.6v-7.6c0-2.7,1.9-4.9,4.2-4.9h22.2C106.7,337.3,107.6,337.7,108.2,338.4z"/>
			<g>
				<path class="st6" d="M109.3,341.1l-2.7,0c0-0.2,0.1-19.4-0.2-38.9c-0.2-11.5-0.4-20.8-0.7-27.8c-0.5-11.9-1.2-14.1-1.4-14.4
					c0-0.6,0.3-2.1,0.3-2.1c0.5-0.2,1-0.1,1.5,0.2c0.7,0.5,1.1,1.4,1.6,5.1c0.3,2.3,0.5,5.5,0.7,9.7c0.3,6.9,0.6,16.4,0.8,28.1
					C109.4,320.9,109.3,340.9,109.3,341.1z"/>
			</g>
			<path class="st14" d="M122.9,322.7c0.3,0.1,2.7,0.2,2.7,0.2s3.5-2.1,4-1.1c0.2,0.3-3.6,2.4-3.6,2.4s-3.6,0.1-4.5,0.1
				c-1.6,0-5-0.5-10.1-4.3c-4.4-2.2-26.5-15.1-26.8-17.6c-0.2-1.4,3.2-9,6.4-15.8c1.4,0.8,3.7,2,5.6,2.9c0.9,0.4,2.4,1,3.3,1.4
				c-2.1,4.1-4.1,8.3-3.8,9.1c0.2,0.8,19.1,15.1,19.1,15.1l3.8-0.5c0,0,6.6,0.8,6.8,1.6c0.2,0.8-2.8,0.6-3.2,0.7
				c-0.2,0.1-0.7,0.2-1,0.5c1.1,0.5,2.8,1.4,3.8,1.4c2.2,0.1,4.8-0.2,5.1,0.1c0.3,0.4-3.1,1.4-5.4,1.5c-1,0.1-1.6-0.2-2-0.2
				c-0.6,0.1,0.4,0.6,2.1,0.5c0.9-0.1,2.6-0.6,3.6-0.7c1.7-0.2,2.6-0.1,2.8,0c0.2,0.2-4.8,1.8-4.8,1.8s-3.3,0.4-4,0.4
				C122.5,322.4,122,322.5,122.9,322.7z"/>
		</g>
	</g>
</g>
</svg>
